  0
SECTION
  2
HEADER
  9
$ACADVER
  1
AC1012
  9
$DWGCODEPAGE
  3
gb2312
  9
$INSBASE
 10
0.0
 20
0.0
 30
0.0
  9
$EXTMIN
 10
1.000000000000000E+20
 20
1.000000000000000E+20
 30
1.000000000000000E+20
  9
$EXTMAX
 10
-1.000000000000000E+20
 20
-1.000000000000000E+20
 30
-1.000000000000000E+20
  9
$LIMMIN
 10
0.0
 20
0.0
  9
$LIMMAX
 10
420.0
 20
297.0
  9
$ORTHOMODE
 70
     0
  9
$REGENMODE
 70
     1
  9
$FILLMODE
 70
     1
  9
$QTEXTMODE
 70
     0
  9
$MIRRTEXT
 70
     1
  9
$DRAGMODE
 70
     2
  9
$LTSCALE
 40
1.0
  9
$OSMODE
 70
    37
  9
$ATTMODE
 70
     1
  9
$TEXTSIZE
 40
2.5
  9
$TRACEWID
 40
1.0
  9
$TEXTSTYLE
  7
STANDARD
  9
$CLAYER
  8
0
  9
$CELTYPE
  6
BYLAYER
  9
$CECOLOR
 62
   256
  9
$CELTSCALE
 40
1.0
  9
$DELOBJ
 70
     1
  9
$DISPSILH
 70
     0
  9
$DIMSCALE
 40
1.0
  9
$DIMASZ
 40
2.5
  9
$DIMEXO
 40
0.625
  9
$DIMDLI
 40
3.75
  9
$DIMRND
 40
0.0
  9
$DIMDLE
 40
0.0
  9
$DIMEXE
 40
1.25
  9
$DIMTP
 40
0.0
  9
$DIMTM
 40
0.0
  9
$DIMTXT
 40
2.5
  9
$DIMCEN
 40
2.5
  9
$DIMTSZ
 40
0.0
  9
$DIMTOL
 70
     0
  9
$DIMLIM
 70
     0
  9
$DIMTIH
 70
     0
  9
$DIMTOH
 70
     0
  9
$DIMSE1
 70
     0
  9
$DIMSE2
 70
     0
  9
$DIMTAD
 70
     1
  9
$DIMZIN
 70
     8
  9
$DIMBLK
  1

  9
$DIMASO
 70
     1
  9
$DIMSHO
 70
     1
  9
$DIMPOST
  1

  9
$DIMAPOST
  1

  9
$DIMALT
 70
     0
  9
$DIMALTD
 70
     3
  9
$DIMALTF
 40
0.03937007874016
  9
$DIMLFAC
 40
1.0
  9
$DIMTOFL
 70
     1
  9
$DIMTVP
 40
0.0
  9
$DIMTIX
 70
     0
  9
$DIMSOXD
 70
     0
  9
$DIMSAH
 70
     0
  9
$DIMBLK1
  1

  9
$DIMBLK2
  1

  9
$DIMSTYLE
  2
ISO-25
  9
$DIMCLRD
 70
     0
  9
$DIMCLRE
 70
     0
  9
$DIMCLRT
 70
     0
  9
$DIMTFAC
 40
1.0
  9
$DIMGAP
 40
0.625
  9
$DIMJUST
 70
     0
  9
$DIMSD1
 70
     0
  9
$DIMSD2
 70
     0
  9
$DIMTOLJ
 70
     0
  9
$DIMTZIN
 70
     8
  9
$DIMALTZ
 70
     0
  9
$DIMALTTZ
 70
     0
  9
$DIMFIT
 70
     3
  9
$DIMUPT
 70
     0
  9
$DIMUNIT
 70
     2
  9
$DIMDEC
 70
     2
  9
$DIMTDEC
 70
     2
  9
$DIMALTU
 70
     2
  9
$DIMALTTD
 70
     3
  9
$DIMTXSTY
  7
STANDARD
  9
$DIMAUNIT
 70
     0
  9
$LUNITS
 70
     2
  9
$LUPREC
 70
     4
  9
$SKETCHINC
 40
1.0
  9
$FILLETRAD
 40
10.0
  9
$AUNITS
 70
     0
  9
$AUPREC
 70
     0
  9
$MENU
  1
.
  9
$ELEVATION
 40
0.0
  9
$PELEVATION
 40
0.0
  9
$THICKNESS
 40
0.0
  9
$LIMCHECK
 70
     0
  9
$BLIPMODE
 70
     0
  9
$CHAMFERA
 40
10.0
  9
$CHAMFERB
 40
10.0
  9
$CHAMFERC
 40
20.0
  9
$CHAMFERD
 40
0.0
  9
$SKPOLY
 70
     0
  9
$TDCREATE
 40
2453935.933843252
  9
$TDUPDATE
 40
2453935.934398680
  9
$TDINDWG
 40
0.0005563542
  9
$TDUSRTIMER
 40
0.0005562384
  9
$USRTIMER
 70
     1
  9
$ANGBASE
 50
0.0
  9
$ANGDIR
 70
     0
  9
$PDMODE
 70
     0
  9
$PDSIZE
 40
0.0
  9
$PLINEWID
 40
0.0
  9
$COORDS
 70
     1
  9
$SPLFRAME
 70
     0
  9
$SPLINETYPE
 70
     6
  9
$SPLINESEGS
 70
     8
  9
$ATTDIA
 70
     0
  9
$ATTREQ
 70
     1
  9
$HANDLING
 70
 22529
  9
$HANDSEED
  5
4A
  9
$SURFTAB1
 70
     6
  9
$SURFTAB2
 70
     6
  9
$SURFTYPE
 70
     6
  9
$SURFU
 70
     6
  9
$SURFV
 70
     6
  9
$UCSNAME
  2

  9
$UCSORG
 10
0.0
 20
0.0
 30
0.0
  9
$UCSXDIR
 10
1.0
 20
0.0
 30
0.0
  9
$UCSYDIR
 10
0.0
 20
1.0
 30
0.0
  9
$PUCSNAME
  2

  9
$PUCSORG
 10
0.0
 20
0.0
 30
0.0
  9
$PUCSXDIR
 10
1.0
 20
0.0
 30
0.0
  9
$PUCSYDIR
 10
0.0
 20
1.0
 30
0.0
  9
$USERI1
 70
     0
  9
$USERI2
 70
     0
  9
$USERI3
 70
     0
  9
$USERI4
 70
     0
  9
$USERI5
 70
     0
  9
$USERR1
 40
0.0
  9
$USERR2
 40
0.0
  9
$USERR3
 40
0.0
  9
$USERR4
 40
0.0
  9
$USERR5
 40
0.0
  9
$WORLDVIEW
 70
     1
  9
$SHADEDGE
 70
     3
  9
$SHADEDIF
 70
    70
  9
$TILEMODE
 70
     1
  9
$MAXACTVP
 70
    64
  9
$PINSBASE
 10
0.0
 20
0.0
 30
0.0
  9
$PLIMCHECK
 70
     0
  9
$PEXTMIN
 10
1.000000000000000E+20
 20
1.000000000000000E+20
 30
1.000000000000000E+20
  9
$PEXTMAX
 10
-1.000000000000000E+20
 20
-1.000000000000000E+20
 30
-1.000000000000000E+20
  9
$PLIMMIN
 10
0.0
 20
0.0
  9
$PLIMMAX
 10
420.0
 20
297.0
  9
$UNITMODE
 70
     0
  9
$VISRETAIN
 70
     1
  9
$PLINEGEN
 70
     0
  9
$PSLTSCALE
 70
     1
  9
$TREEDEPTH
 70
  3020
  9
$PICKSTYLE
 70
     1
  9
$CMLSTYLE
  2
STANDARD
  9
$CMLJUST
 70
     0
  9
$CMLSCALE
 40
20.0
  9
$SAVEIMAGES
 70
     1
  0
ENDSEC
  0
SECTION
  2
CLASSES
  0
CLASS
  1
ACDBDICTIONARYWDFLT
  2
AcDbDictionaryWithDefault
  3
AutoCAD 2000
 90
    32768
280
     0
281
     0
  0
CLASS
  1
ACDBPLACEHOLDER
  2
AcDbPlaceHolder
  3
AutoCAD 2000
 90
    32768
280
     0
281
     0
  0
CLASS
  1
LAYOUT
  2
AcDbLayout
  3
AutoCAD 2000
 90
    32768
280
     0
281
     0
  0
CLASS
  1
DICTIONARYVAR
  2
AcDbDictionaryVar
  3
AutoCAD 2000
 90
    32768
280
     0
281
     0
  0
CLASS
  1
LONG_TRANSACTION
  2
AcDbLongTransaction
  3
AutoCAD 2000
 90
    32768
280
     0
281
     0
  0
CLASS
  1
LWPOLYLINE
  2
AcDbPolyline
  3
AutoCAD 2000
 90
    32768
280
     0
281
     1
  0
CLASS
  1
HATCH
  2
AcDbHatch
  3
AutoCAD 2000
 90
    32768
280
     0
281
     1
  0
CLASS
  1
XRECORD
  2
AcDbXrecord
  3
AutoCAD 2000
 90
    32768
280
     0
281
     0
  0
ENDSEC
  0
SECTION
  2
TABLES
  0
TABLE
  2
VPORT
  5
8
330
0
100
AcDbSymbolTable
 70
     2
  0
VPORT
  5
43
330
8
100
AcDbSymbolTableRecord
100
AcDbViewportTableRecord
  2
*ACTIVE
 70
     0
 10
0.0
 20
0.0
 11
1.0
 21
1.0
 12
505.3812210517317
 22
257.5500453436709
 13
0.0
 23
0.0
 14
10.0
 24
10.0
 15
10.0
 25
10.0
 16
0.0
 26
0.0
 36
1.0
 17
0.0
 27
0.0
 37
0.0
 40
515.1000906873419
 41
1.962264150943396
 42
50.0
 43
0.0
 44
0.0
 50
0.0
 51
0.0
 71
     0
 72
   100
 73
     1
 74
     3
 75
     0
 76
     0
 77
     0
 78
     0
  0
ENDTAB
  0
TABLE
  2
LTYPE
  5
5
330
0
100
AcDbSymbolTable
 70
     1
  0
LTYPE
  5
14
330
5
100
AcDbSymbolTableRecord
100
AcDbLinetypeTableRecord
  2
BYBLOCK
 70
     0
  3

 72
    65
 73
     0
 40
0.0
  0
LTYPE
  5
15
330
5
100
AcDbSymbolTableRecord
100
AcDbLinetypeTableRecord
  2
BYLAYER
 70
     0
  3

 72
    65
 73
     0
 40
0.0
  0
LTYPE
  5
16
330
5
100
AcDbSymbolTableRecord
100
AcDbLinetypeTableRecord
  2
CONTINUOUS
 70
     0
  3
Solid line
 72
    65
 73
     0
 40
0.0
  0
ENDTAB
  0
TABLE
  2
LAYER
  5
2
330
0
100
AcDbSymbolTable
 70
     1
  0
LAYER
  5
10
330
2
100
AcDbSymbolTableRecord
100
AcDbLayerTableRecord
  2
0
 70
     0
 62
     7
  6
CONTINUOUS
  0
ENDTAB
  0
TABLE
  2
STYLE
  5
3
330
0
100
AcDbSymbolTable
 70
     1
  0
STYLE
  5
11
330
3
100
AcDbSymbolTableRecord
100
AcDbTextStyleTableRecord
  2
STANDARD
 70
     0
 40
0.0
 41
1.0
 50
0.0
 71
     0
 42
2.5
  3
txt
  4

  0
ENDTAB
  0
TABLE
  2
VIEW
  5
6
330
0
100
AcDbSymbolTable
 70
     0
  0
ENDTAB
  0
TABLE
  2
UCS
  5
7
330
0
100
AcDbSymbolTable
 70
     0
  0
ENDTAB
  0
TABLE
  2
APPID
  5
9
330
0
100
AcDbSymbolTable
 70
     1
  0
APPID
  5
12
330
9
100
AcDbSymbolTableRecord
100
AcDbRegAppTableRecord
  2
ACAD
 70
     0
  0
ENDTAB
  0
TABLE
  2
DIMSTYLE
  5
A
330
0
100
AcDbSymbolTable
 70
     1
  0
DIMSTYLE
105
27
330
A
100
AcDbSymbolTableRecord
100
AcDbDimStyleTableRecord
  2
ISO-25
 70
     0
  3

  4

  5

  6

  7

 40
1.0
 41
2.5
 42
0.625
 43
3.75
 44
1.25
 45
0.0
 46
0.0
 47
0.0
 48
0.0
140
2.5
141
2.5
142
0.0
143
0.03937007874016
144
1.0
145
0.0
146
1.0
147
0.625
 71
     0
 72
     0
 73
     0
 74
     0
 75
     0
 76
     0
 77
     1
 78
     8
170
     0
171
     3
172
     1
173
     0
174
     0
175
     0
176
     0
177
     0
178
     0
270
     2
271
     2
272
     2
273
     2
274
     3
340
11
275
     0
280
     0
281
     0
282
     0
283
     0
284
     8
285
     0
286
     0
287
     3
288
     0
  0
ENDTAB
  0
TABLE
  2
BLOCK_RECORD
  5
1
330
0
100
AcDbSymbolTable
 70
     1
  0
BLOCK_RECORD
  5
1F
102
{ACAD_XDICTIONARY
360
46
102
}
330
1
100
AcDbSymbolTableRecord
100
AcDbBlockTableRecord
  2
*MODEL_SPACE
  0
BLOCK_RECORD
  5
1B
102
{ACAD_XDICTIONARY
360
44
102
}
330
1
100
AcDbSymbolTableRecord
100
AcDbBlockTableRecord
  2
*PAPER_SPACE
  0
ENDTAB
  0
ENDSEC
  0
SECTION
  2
BLOCKS
  0
BLOCK
  5
20
330
1F
100
AcDbEntity
  8
0
100
AcDbBlockBegin
  2
*MODEL_SPACE
 70
     0
 10
0.0
 20
0.0
 30
0.0
  3
*MODEL_SPACE
  1

  0
ENDBLK
  5
21
330
1F
100
AcDbEntity
  8
0
100
AcDbBlockEnd
  0
BLOCK
  5
1C
330
1B
100
AcDbEntity
 67
     1
  8
0
100
AcDbBlockBegin
  2
*PAPER_SPACE
 70
     0
 10
0.0
 20
0.0
 30
0.0
  3
*PAPER_SPACE
  1

  0
ENDBLK
  5
1D
330
1B
100
AcDbEntity
 67
     1
  8
0
100
AcDbBlockEnd
  0
ENDSEC
  0
SECTION
  2
ENTITIES
  0
LINE
  5
100
330
1F
100
AcDbEntity
  8
0
  62
3
100
AcDbLine
 10
506.558226
 20
488.351663
 30
0.000000
 11
564.558229
 21
488.351663
 31
0.000000
  0
LINE
  5
101
330
1F
100
AcDbEntity
  8
0
  62
3
100
AcDbLine
 10
564.558229
 20
488.351663
 30
0.000000
 11
564.558229
 21
412.351669
 31
0.000000
  0
LINE
  5
102
330
1F
100
AcDbEntity
  8
0
  62
3
100
AcDbLine
 10
564.558229
 20
412.351669
 30
0.000000
 11
506.558226
 21
412.351669
 31
0.000000
  0
LINE
  5
103
330
1F
100
AcDbEntity
  8
0
  62
3
100
AcDbLine
 10
506.558226
 20
412.351669
 30
0.000000
 11
506.558226
 21
488.351663
 31
0.000000
  0
SPLINE
  5
104
330
1F
100
AcDbEntity
  8
0
 62
     7
100
AcDbSpline
210
0.000000
220
0.000000
230
1.0
 70
     8
 71
     3
 72
     8
 73
     4
 42
0.0000000001
 43
0.0000000001
 44
0.0000000001
 12
0.000000
 22
0.000000
 32
0.000000
 13
0.000000
 23
0.000000
 33
0.000000
 40
0.000000
 40
0.000000
 40
0.000000
 40
0.000000
 40
1.000000
 40
1.000000
 40
1.000000
 40
1.000000
 10
565.101428
 20
458.102399
 30
0.000000
 10
566.016462
 20
453.474559
 30
0.000000
 10
565.544564
 20
448.633704
 30
0.000000
 10
563.748021
 20
444.218776
 30
0.000000
  0
SPLINE
  5
105
330
1F
100
AcDbEntity
  8
0
 62
     7
100
AcDbSpline
210
0.000000
220
0.000000
230
1.0
 70
     8
 71
     3
 72
     8
 73
     4
 42
0.0000000001
 43
0.0000000001
 44
0.0000000001
 12
0.000000
 22
0.000000
 32
0.000000
 13
0.000000
 23
0.000000
 33
0.000000
 40
0.000000
 40
0.000000
 40
0.000000
 40
0.000000
 40
1.000000
 40
1.000000
 40
1.000000
 40
1.000000
 10
563.748021
 20
444.218776
 30
0.000000
 10
561.962231
 20
439.800335
 30
0.000000
 10
558.856651
 20
435.819792
 30
0.000000
 10
554.841182
 20
432.802535
 30
0.000000
  0
SPLINE
  5
106
330
1F
100
AcDbEntity
  8
0
 62
     7
100
AcDbSpline
210
0.000000
220
0.000000
230
1.0
 70
     8
 71
     3
 72
     8
 73
     4
 42
0.0000000001
 43
0.0000000001
 44
0.0000000001
 12
0.000000
 22
0.000000
 32
0.000000
 13
0.000000
 23
0.000000
 33
0.000000
 40
0.000000
 40
0.000000
 40
0.000000
 40
0.000000
 40
1.000000
 40
1.000000
 40
1.000000
 40
1.000000
 10
554.841182
 20
432.802535
 30
0.000000
 10
550.833069
 20
429.777411
 30
0.000000
 10
545.925943
 20
427.723763
 30
0.000000
 10
540.767491
 20
426.912650
 30
0.000000
  0
SPLINE
  5
107
330
1F
100
AcDbEntity
  8
0
 62
     7
100
AcDbSpline
210
0.000000
220
0.000000
230
1.0
 70
     8
 71
     3
 72
     8
 73
     4
 42
0.0000000001
 43
0.0000000001
 44
0.0000000001
 12
0.000000
 22
0.000000
 32
0.000000
 13
0.000000
 23
0.000000
 33
0.000000
 40
0.000000
 40
0.000000
 40
0.000000
 40
0.000000
 40
1.000000
 40
1.000000
 40
1.000000
 40
1.000000
 10
540.767491
 20
426.912650
 30
0.000000
 10
535.611026
 20
426.091422
 30
0.000000
 10
530.217215
 20
426.514942
 30
0.000000
 10
525.297982
 20
428.127309
 30
0.000000
  0
SPLINE
  5
108
330
1F
100
AcDbEntity
  8
0
 62
     7
100
AcDbSpline
210
0.000000
220
0.000000
230
1.0
 70
     8
 71
     3
 72
     8
 73
     4
 42
0.0000000001
 43
0.0000000001
 44
0.0000000001
 12
0.000000
 22
0.000000
 32
0.000000
 13
0.000000
 23
0.000000
 33
0.000000
 40
0.000000
 40
0.000000
 40
0.000000
 40
0.000000
 40
1.000000
 40
1.000000
 40
1.000000
 40
1.000000
 10
525.297982
 20
428.127309
 30
0.000000
 10
520.374835
 20
429.730025
 30
0.000000
 10
515.939606
 20
432.517232
 30
0.000000
 10
512.577697
 20
436.121047
 30
0.000000
  0
SPLINE
  5
109
330
1F
100
AcDbEntity
  8
0
 62
     7
100
AcDbSpline
210
0.000000
220
0.000000
230
1.0
 70
     8
 71
     3
 72
     8
 73
     4
 42
0.0000000001
 43
0.0000000001
 44
0.0000000001
 12
0.000000
 22
0.000000
 32
0.000000
 13
0.000000
 23
0.000000
 33
0.000000
 40
0.000000
 40
0.000000
 40
0.000000
 40
0.000000
 40
1.000000
 40
1.000000
 40
1.000000
 40
1.000000
 10
512.577697
 20
436.121047
 30
0.000000
 10
509.207022
 20
439.718261
 30
0.000000
 10
506.918792
 20
444.122323
 30
0.000000
 10
506.015027
 20
448.751947
 30
0.000000
  0
SPLINE
  5
110
330
1F
100
AcDbEntity
  8
0
 62
     7
100
AcDbSpline
210
0.000000
220
0.000000
230
1.0
 70
     8
 71
     3
 72
     8
 73
     4
 42
0.0000000001
 43
0.0000000001
 44
0.0000000001
 12
0.000000
 22
0.000000
 32
0.000000
 13
0.000000
 23
0.000000
 33
0.000000
 40
0.000000
 40
0.000000
 40
0.000000
 40
0.000000
 40
1.000000
 40
1.000000
 40
1.000000
 40
1.000000
 10
506.015027
 20
448.751947
 30
0.000000
 10
505.099993
 20
453.379788
 30
0.000000
 10
505.571891
 20
458.220642
 30
0.000000
 10
507.368434
 20
462.635571
 30
0.000000
  0
SPLINE
  5
111
330
1F
100
AcDbEntity
  8
0
 62
     7
100
AcDbSpline
210
0.000000
220
0.000000
230
1.0
 70
     8
 71
     3
 72
     8
 73
     4
 42
0.0000000001
 43
0.0000000001
 44
0.0000000001
 12
0.000000
 22
0.000000
 32
0.000000
 13
0.000000
 23
0.000000
 33
0.000000
 40
0.000000
 40
0.000000
 40
0.000000
 40
0.000000
 40
1.000000
 40
1.000000
 40
1.000000
 40
1.000000
 10
507.368434
 20
462.635571
 30
0.000000
 10
509.154224
 20
467.054012
 30
0.000000
 10
512.259804
 20
471.034555
 30
0.000000
 10
516.275273
 20
474.051811
 30
0.000000
  0
SPLINE
  5
112
330
1F
100
AcDbEntity
  8
0
 62
     7
100
AcDbSpline
210
0.000000
220
0.000000
230
1.0
 70
     8
 71
     3
 72
     8
 73
     4
 42
0.0000000001
 43
0.0000000001
 44
0.0000000001
 12
0.000000
 22
0.000000
 32
0.000000
 13
0.000000
 23
0.000000
 33
0.000000
 40
0.000000
 40
0.000000
 40
0.000000
 40
0.000000
 40
1.000000
 40
1.000000
 40
1.000000
 40
1.000000
 10
516.275273
 20
474.051811
 30
0.000000
 10
520.283386
 20
477.076935
 30
0.000000
 10
525.190512
 20
479.130584
 30
0.000000
 10
530.348964
 20
479.941697
 30
0.000000
  0
SPLINE
  5
113
330
1F
100
AcDbEntity
  8
0
 62
     7
100
AcDbSpline
210
0.000000
220
0.000000
230
1.0
 70
     8
 71
     3
 72
     8
 73
     4
 42
0.0000000001
 43
0.0000000001
 44
0.0000000001
 12
0.000000
 22
0.000000
 32
0.000000
 13
0.000000
 23
0.000000
 33
0.000000
 40
0.000000
 40
0.000000
 40
0.000000
 40
0.000000
 40
1.000000
 40
1.000000
 40
1.000000
 40
1.000000
 10
530.348964
 20
479.941697
 30
0.000000
 10
535.505429
 20
480.762924
 30
0.000000
 10
540.899240
 20
480.339404
 30
0.000000
 10
545.818473
 20
478.727037
 30
0.000000
  0
SPLINE
  5
114
330
1F
100
AcDbEntity
  8
0
 62
     7
100
AcDbSpline
210
0.000000
220
0.000000
230
1.0
 70
     8
 71
     3
 72
     8
 73
     4
 42
0.0000000001
 43
0.0000000001
 44
0.0000000001
 12
0.000000
 22
0.000000
 32
0.000000
 13
0.000000
 23
0.000000
 33
0.000000
 40
0.000000
 40
0.000000
 40
0.000000
 40
0.000000
 40
1.000000
 40
1.000000
 40
1.000000
 40
1.000000
 10
545.818473
 20
478.727037
 30
0.000000
 10
550.741620
 20
477.124321
 30
0.000000
 10
555.176849
 20
474.337115
 30
0.000000
 10
558.538758
 20
470.733299
 30
0.000000
  0
SPLINE
  5
115
330
1F
100
AcDbEntity
  8
0
 62
     7
100
AcDbSpline
210
0.000000
220
0.000000
230
1.0
 70
     8
 71
     3
 72
     8
 73
     4
 42
0.0000000001
 43
0.0000000001
 44
0.0000000001
 12
0.000000
 22
0.000000
 32
0.000000
 13
0.000000
 23
0.000000
 33
0.000000
 40
0.000000
 40
0.000000
 40
0.000000
 40
0.000000
 40
1.000000
 40
1.000000
 40
1.000000
 40
1.000000
 10
558.538758
 20
470.733299
 30
0.000000
 10
561.909433
 20
467.136086
 30
0.000000
 10
564.197663
 20
462.732023
 30
0.000000
 10
565.101428
 20
458.102399
 30
0.000000
  0
SPLINE
  5
116
330
1F
100
AcDbEntity
  8
0
 62
     7
100
AcDbSpline
210
0.000000
220
0.000000
230
1.0
 70
     8
 71
     3
 72
     8
 73
     4
 42
0.0000000001
 43
0.0000000001
 44
0.0000000001
 12
0.000000
 22
0.000000
 32
0.000000
 13
0.000000
 23
0.000000
 33
0.000000
 40
0.000000
 40
0.000000
 40
0.000000
 40
0.000000
 40
1.000000
 40
1.000000
 40
1.000000
 40
1.000000
 10
583.207113
 20
508.944089
 30
0.000000
 10
583.451705
 20
508.878837
 30
0.000000
 10
583.678362
 20
508.747977
 30
0.000000
 10
583.857168
 20
508.568780
 30
0.000000
  0
SPLINE
  5
117
330
1F
100
AcDbEntity
  8
0
 62
     7
100
AcDbSpline
210
0.000000
220
0.000000
230
1.0
 70
     8
 71
     3
 72
     8
 73
     4
 42
0.0000000001
 43
0.0000000001
 44
0.0000000001
 12
0.000000
 22
0.000000
 32
0.000000
 13
0.000000
 23
0.000000
 33
0.000000
 40
0.000000
 40
0.000000
 40
0.000000
 40
0.000000
 40
1.000000
 40
1.000000
 40
1.000000
 40
1.000000
 10
583.857168
 20
508.568780
 30
0.000000
 10
584.036364
 20
508.389974
 30
0.000000
 10
584.167225
 20
508.163318
 30
0.000000
 10
584.232476
 20
507.918726
 30
0.000000
  0
SPLINE
  5
118
330
1F
100
AcDbEntity
  8
0
 62
     7
100
AcDbSpline
210
0.000000
220
0.000000
230
1.0
 70
     8
 71
     3
 72
     8
 73
     4
 42
0.0000000001
 43
0.0000000001
 44
0.0000000001
 12
0.000000
 22
0.000000
 32
0.000000
 13
0.000000
 23
0.000000
 33
0.000000
 40
0.000000
 40
0.000000
 40
0.000000
 40
0.000000
 40
1.000000
 40
1.000000
 40
1.000000
 40
1.000000
 10
584.232476
 20
507.918726
 30
0.000000
 10
584.298263
 20
507.674277
 30
0.000000
 10
584.298263
 20
507.412557
 30
0.000000
 10
584.232477
 20
507.168108
 30
0.000000
  0
SPLINE
  5
119
330
1F
100
AcDbEntity
  8
0
 62
     7
100
AcDbSpline
210
0.000000
220
0.000000
230
1.0
 70
     8
 71
     3
 72
     8
 73
     4
 42
0.0000000001
 43
0.0000000001
 44
0.0000000001
 12
0.000000
 22
0.000000
 32
0.000000
 13
0.000000
 23
0.000000
 33
0.000000
 40
0.000000
 40
0.000000
 40
0.000000
 40
0.000000
 40
1.000000
 40
1.000000
 40
1.000000
 40
1.000000
 10
584.232477
 20
507.168108
 30
0.000000
 10
584.167225
 20
506.923516
 30
0.000000
 10
584.036364
 20
506.696859
 30
0.000000
 10
583.857168
 20
506.518054
 30
0.000000
  0
SPLINE
  5
120
330
1F
100
AcDbEntity
  8
0
 62
     7
100
AcDbSpline
210
0.000000
220
0.000000
230
1.0
 70
     8
 71
     3
 72
     8
 73
     4
 42
0.0000000001
 43
0.0000000001
 44
0.0000000001
 12
0.000000
 22
0.000000
 32
0.000000
 13
0.000000
 23
0.000000
 33
0.000000
 40
0.000000
 40
0.000000
 40
0.000000
 40
0.000000
 40
1.000000
 40
1.000000
 40
1.000000
 40
1.000000
 10
583.857168
 20
506.518054
 30
0.000000
 10
583.678362
 20
506.338857
 30
0.000000
 10
583.451705
 20
506.207996
 30
0.000000
 10
583.207113
 20
506.142744
 30
0.000000
  0
SPLINE
  5
121
330
1F
100
AcDbEntity
  8
0
 62
     7
100
AcDbSpline
210
0.000000
220
0.000000
230
1.0
 70
     8
 71
     3
 72
     8
 73
     4
 42
0.0000000001
 43
0.0000000001
 44
0.0000000001
 12
0.000000
 22
0.000000
 32
0.000000
 13
0.000000
 23
0.000000
 33
0.000000
 40
0.000000
 40
0.000000
 40
0.000000
 40
0.000000
 40
1.000000
 40
1.000000
 40
1.000000
 40
1.000000
 10
583.207113
 20
506.142744
 30
0.000000
 10
582.962664
 20
506.076958
 30
0.000000
 10
582.700943
 20
506.076958
 30
0.000000
 10
582.456495
 20
506.142745
 30
0.000000
  0
SPLINE
  5
122
330
1F
100
AcDbEntity
  8
0
 62
     7
100
AcDbSpline
210
0.000000
220
0.000000
230
1.0
 70
     8
 71
     3
 72
     8
 73
     4
 42
0.0000000001
 43
0.0000000001
 44
0.0000000001
 12
0.000000
 22
0.000000
 32
0.000000
 13
0.000000
 23
0.000000
 33
0.000000
 40
0.000000
 40
0.000000
 40
0.000000
 40
0.000000
 40
1.000000
 40
1.000000
 40
1.000000
 40
1.000000
 10
582.456495
 20
506.142745
 30
0.000000
 10
582.211903
 20
506.207996
 30
0.000000
 10
581.985246
 20
506.338857
 30
0.000000
 10
581.806441
 20
506.518054
 30
0.000000
  0
SPLINE
  5
123
330
1F
100
AcDbEntity
  8
0
 62
     7
100
AcDbSpline
210
0.000000
220
0.000000
230
1.0
 70
     8
 71
     3
 72
     8
 73
     4
 42
0.0000000001
 43
0.0000000001
 44
0.0000000001
 12
0.000000
 22
0.000000
 32
0.000000
 13
0.000000
 23
0.000000
 33
0.000000
 40
0.000000
 40
0.000000
 40
0.000000
 40
0.000000
 40
1.000000
 40
1.000000
 40
1.000000
 40
1.000000
 10
581.806441
 20
506.518054
 30
0.000000
 10
581.627244
 20
506.696859
 30
0.000000
 10
581.496383
 20
506.923516
 30
0.000000
 10
581.431132
 20
507.168108
 30
0.000000
  0
SPLINE
  5
124
330
1F
100
AcDbEntity
  8
0
 62
     7
100
AcDbSpline
210
0.000000
220
0.000000
230
1.0
 70
     8
 71
     3
 72
     8
 73
     4
 42
0.0000000001
 43
0.0000000001
 44
0.0000000001
 12
0.000000
 22
0.000000
 32
0.000000
 13
0.000000
 23
0.000000
 33
0.000000
 40
0.000000
 40
0.000000
 40
0.000000
 40
0.000000
 40
1.000000
 40
1.000000
 40
1.000000
 40
1.000000
 10
581.431132
 20
507.168108
 30
0.000000
 10
581.365345
 20
507.412556
 30
0.000000
 10
581.365345
 20
507.674277
 30
0.000000
 10
581.431131
 20
507.918726
 30
0.000000
  0
SPLINE
  5
125
330
1F
100
AcDbEntity
  8
0
 62
     7
100
AcDbSpline
210
0.000000
220
0.000000
230
1.0
 70
     8
 71
     3
 72
     8
 73
     4
 42
0.0000000001
 43
0.0000000001
 44
0.0000000001
 12
0.000000
 22
0.000000
 32
0.000000
 13
0.000000
 23
0.000000
 33
0.000000
 40
0.000000
 40
0.000000
 40
0.000000
 40
0.000000
 40
1.000000
 40
1.000000
 40
1.000000
 40
1.000000
 10
581.431131
 20
507.918726
 30
0.000000
 10
581.496383
 20
508.163318
 30
0.000000
 10
581.627244
 20
508.389975
 30
0.000000
 10
581.806441
 20
508.568780
 30
0.000000
  0
SPLINE
  5
126
330
1F
100
AcDbEntity
  8
0
 62
     7
100
AcDbSpline
210
0.000000
220
0.000000
230
1.0
 70
     8
 71
     3
 72
     8
 73
     4
 42
0.0000000001
 43
0.0000000001
 44
0.0000000001
 12
0.000000
 22
0.000000
 32
0.000000
 13
0.000000
 23
0.000000
 33
0.000000
 40
0.000000
 40
0.000000
 40
0.000000
 40
0.000000
 40
1.000000
 40
1.000000
 40
1.000000
 40
1.000000
 10
581.806441
 20
508.568780
 30
0.000000
 10
581.985246
 20
508.747977
 30
0.000000
 10
582.211903
 20
508.878837
 30
0.000000
 10
582.456495
 20
508.944089
 30
0.000000
  0
SPLINE
  5
127
330
1F
100
AcDbEntity
  8
0
 62
     7
100
AcDbSpline
210
0.000000
220
0.000000
230
1.0
 70
     8
 71
     3
 72
     8
 73
     4
 42
0.0000000001
 43
0.0000000001
 44
0.0000000001
 12
0.000000
 22
0.000000
 32
0.000000
 13
0.000000
 23
0.000000
 33
0.000000
 40
0.000000
 40
0.000000
 40
0.000000
 40
0.000000
 40
1.000000
 40
1.000000
 40
1.000000
 40
1.000000
 10
582.456495
 20
508.944089
 30
0.000000
 10
582.700944
 20
509.009875
 30
0.000000
 10
582.962665
 20
509.009875
 30
0.000000
 10
583.207113
 20
508.944089
 30
0.000000
  0
SPLINE
  5
128
330
1F
100
AcDbEntity
  8
0
 62
     7
100
AcDbSpline
210
0.000000
220
0.000000
230
1.0
 70
     8
 71
     3
 72
     8
 73
     4
 42
0.0000000001
 43
0.0000000001
 44
0.0000000001
 12
0.000000
 22
0.000000
 32
0.000000
 13
0.000000
 23
0.000000
 33
0.000000
 40
0.000000
 40
0.000000
 40
0.000000
 40
0.000000
 40
1.000000
 40
1.000000
 40
1.000000
 40
1.000000
 10
535.323018
 20
485.377446
 30
0.000000
 10
535.323018
 20
485.377446
 30
0.000000
 10
556.857712
 20
488.760603
 30
0.000000
 10
579.720146
 20
509.900524
 30
0.000000
  0
SPLINE
  5
129
330
1F
100
AcDbEntity
  8
0
 62
     7
100
AcDbSpline
210
0.000000
220
0.000000
230
1.0
 70
     8
 71
     3
 72
     8
 73
     4
 42
0.0000000001
 43
0.0000000001
 44
0.0000000001
 12
0.000000
 22
0.000000
 32
0.000000
 13
0.000000
 23
0.000000
 33
0.000000
 40
0.000000
 40
0.000000
 40
0.000000
 40
0.000000
 40
1.000000
 40
1.000000
 40
1.000000
 40
1.000000
 10
579.720146
 20
509.900524
 30
0.000000
 10
579.720146
 20
509.900524
 30
0.000000
 10
583.686809
 20
513.600355
 30
0.000000
 10
586.124133
 20
510.970612
 30
0.000000
  0
SPLINE
  5
130
330
1F
100
AcDbEntity
  8
0
 62
     7
100
AcDbSpline
210
0.000000
220
0.000000
230
1.0
 70
     8
 71
     3
 72
     8
 73
     4
 42
0.0000000001
 43
0.0000000001
 44
0.0000000001
 12
0.000000
 22
0.000000
 32
0.000000
 13
0.000000
 23
0.000000
 33
0.000000
 40
0.000000
 40
0.000000
 40
0.000000
 40
0.000000
 40
1.000000
 40
1.000000
 40
1.000000
 40
1.000000
 10
586.059993
 20
511.227172
 30
0.000000
 10
586.059993
 20
511.227172
 30
0.000000
 10
588.510845
 20
508.765295
 30
0.000000
 10
585.200866
 20
504.576396
 30
0.000000
  0
SPLINE
  5
131
330
1F
100
AcDbEntity
  8
0
 62
     7
100
AcDbSpline
210
0.000000
220
0.000000
230
1.0
 70
     8
 71
     3
 72
     8
 73
     4
 42
0.0000000001
 43
0.0000000001
 44
0.0000000001
 12
0.000000
 22
0.000000
 32
0.000000
 13
0.000000
 23
0.000000
 33
0.000000
 40
0.000000
 40
0.000000
 40
0.000000
 40
0.000000
 40
1.000000
 40
1.000000
 40
1.000000
 40
1.000000
 10
573.857412
 20
450.238036
 30
0.000000
 10
573.857412
 20
450.238036
 30
0.000000
 10
572.626900
 20
487.555455
 30
0.000000
 10
585.200866
 20
504.576396
 30
0.000000
  0
SPLINE
  5
132
330
1F
100
AcDbEntity
  8
0
 62
     7
100
AcDbSpline
210
0.000000
220
0.000000
230
1.0
 70
     8
 71
     3
 72
     8
 73
     4
 42
0.0000000001
 43
0.0000000001
 44
0.0000000001
 12
0.000000
 22
0.000000
 32
0.000000
 13
0.000000
 23
0.000000
 33
0.000000
 40
0.000000
 40
0.000000
 40
0.000000
 40
0.000000
 40
1.000000
 40
1.000000
 40
1.000000
 40
1.000000
 10
487.427193
 20
508.944089
 30
0.000000
 10
487.182601
 20
508.878837
 30
0.000000
 10
486.955944
 20
508.747977
 30
0.000000
 10
486.777138
 20
508.568780
 30
0.000000
  0
SPLINE
  5
133
330
1F
100
AcDbEntity
  8
0
 62
     7
100
AcDbSpline
210
0.000000
220
0.000000
230
1.0
 70
     8
 71
     3
 72
     8
 73
     4
 42
0.0000000001
 43
0.0000000001
 44
0.0000000001
 12
0.000000
 22
0.000000
 32
0.000000
 13
0.000000
 23
0.000000
 33
0.000000
 40
0.000000
 40
0.000000
 40
0.000000
 40
0.000000
 40
1.000000
 40
1.000000
 40
1.000000
 40
1.000000
 10
486.777138
 20
508.568780
 30
0.000000
 10
486.597942
 20
508.389974
 30
0.000000
 10
486.467081
 20
508.163318
 30
0.000000
 10
486.401830
 20
507.918726
 30
0.000000
  0
SPLINE
  5
134
330
1F
100
AcDbEntity
  8
0
 62
     7
100
AcDbSpline
210
0.000000
220
0.000000
230
1.0
 70
     8
 71
     3
 72
     8
 73
     4
 42
0.0000000001
 43
0.0000000001
 44
0.0000000001
 12
0.000000
 22
0.000000
 32
0.000000
 13
0.000000
 23
0.000000
 33
0.000000
 40
0.000000
 40
0.000000
 40
0.000000
 40
0.000000
 40
1.000000
 40
1.000000
 40
1.000000
 40
1.000000
 10
486.401830
 20
507.918726
 30
0.000000
 10
486.336043
 20
507.674277
 30
0.000000
 10
486.336043
 20
507.412557
 30
0.000000
 10
486.401829
 20
507.168108
 30
0.000000
  0
SPLINE
  5
135
330
1F
100
AcDbEntity
  8
0
 62
     7
100
AcDbSpline
210
0.000000
220
0.000000
230
1.0
 70
     8
 71
     3
 72
     8
 73
     4
 42
0.0000000001
 43
0.0000000001
 44
0.0000000001
 12
0.000000
 22
0.000000
 32
0.000000
 13
0.000000
 23
0.000000
 33
0.000000
 40
0.000000
 40
0.000000
 40
0.000000
 40
0.000000
 40
1.000000
 40
1.000000
 40
1.000000
 40
1.000000
 10
486.401829
 20
507.168108
 30
0.000000
 10
486.467081
 20
506.923516
 30
0.000000
 10
486.597941
 20
506.696859
 30
0.000000
 10
486.777138
 20
506.518054
 30
0.000000
  0
SPLINE
  5
136
330
1F
100
AcDbEntity
  8
0
 62
     7
100
AcDbSpline
210
0.000000
220
0.000000
230
1.0
 70
     8
 71
     3
 72
     8
 73
     4
 42
0.0000000001
 43
0.0000000001
 44
0.0000000001
 12
0.000000
 22
0.000000
 32
0.000000
 13
0.000000
 23
0.000000
 33
0.000000
 40
0.000000
 40
0.000000
 40
0.000000
 40
0.000000
 40
1.000000
 40
1.000000
 40
1.000000
 40
1.000000
 10
486.777138
 20
506.518054
 30
0.000000
 10
486.955944
 20
506.338857
 30
0.000000
 10
487.182601
 20
506.207996
 30
0.000000
 10
487.427193
 20
506.142744
 30
0.000000
  0
SPLINE
  5
137
330
1F
100
AcDbEntity
  8
0
 62
     7
100
AcDbSpline
210
0.000000
220
0.000000
230
1.0
 70
     8
 71
     3
 72
     8
 73
     4
 42
0.0000000001
 43
0.0000000001
 44
0.0000000001
 12
0.000000
 22
0.000000
 32
0.000000
 13
0.000000
 23
0.000000
 33
0.000000
 40
0.000000
 40
0.000000
 40
0.000000
 40
0.000000
 40
1.000000
 40
1.000000
 40
1.000000
 40
1.000000
 10
487.427193
 20
506.142744
 30
0.000000
 10
487.671642
 20
506.076958
 30
0.000000
 10
487.933363
 20
506.076958
 30
0.000000
 10
488.177811
 20
506.142745
 30
0.000000
  0
SPLINE
  5
138
330
1F
100
AcDbEntity
  8
0
 62
     7
100
AcDbSpline
210
0.000000
220
0.000000
230
1.0
 70
     8
 71
     3
 72
     8
 73
     4
 42
0.0000000001
 43
0.0000000001
 44
0.0000000001
 12
0.000000
 22
0.000000
 32
0.000000
 13
0.000000
 23
0.000000
 33
0.000000
 40
0.000000
 40
0.000000
 40
0.000000
 40
0.000000
 40
1.000000
 40
1.000000
 40
1.000000
 40
1.000000
 10
488.177811
 20
506.142745
 30
0.000000
 10
488.422403
 20
506.207996
 30
0.000000
 10
488.649060
 20
506.338857
 30
0.000000
 10
488.827865
 20
506.518054
 30
0.000000
  0
SPLINE
  5
139
330
1F
100
AcDbEntity
  8
0
 62
     7
100
AcDbSpline
210
0.000000
220
0.000000
230
1.0
 70
     8
 71
     3
 72
     8
 73
     4
 42
0.0000000001
 43
0.0000000001
 44
0.0000000001
 12
0.000000
 22
0.000000
 32
0.000000
 13
0.000000
 23
0.000000
 33
0.000000
 40
0.000000
 40
0.000000
 40
0.000000
 40
0.000000
 40
1.000000
 40
1.000000
 40
1.000000
 40
1.000000
 10
488.827865
 20
506.518054
 30
0.000000
 10
489.007062
 20
506.696859
 30
0.000000
 10
489.137923
 20
506.923516
 30
0.000000
 10
489.203174
 20
507.168108
 30
0.000000
  0
SPLINE
  5
140
330
1F
100
AcDbEntity
  8
0
 62
     7
100
AcDbSpline
210
0.000000
220
0.000000
230
1.0
 70
     8
 71
     3
 72
     8
 73
     4
 42
0.0000000001
 43
0.0000000001
 44
0.0000000001
 12
0.000000
 22
0.000000
 32
0.000000
 13
0.000000
 23
0.000000
 33
0.000000
 40
0.000000
 40
0.000000
 40
0.000000
 40
0.000000
 40
1.000000
 40
1.000000
 40
1.000000
 40
1.000000
 10
489.203174
 20
507.168108
 30
0.000000
 10
489.268961
 20
507.412556
 30
0.000000
 10
489.268961
 20
507.674277
 30
0.000000
 10
489.203175
 20
507.918726
 30
0.000000
  0
SPLINE
  5
141
330
1F
100
AcDbEntity
  8
0
 62
     7
100
AcDbSpline
210
0.000000
220
0.000000
230
1.0
 70
     8
 71
     3
 72
     8
 73
     4
 42
0.0000000001
 43
0.0000000001
 44
0.0000000001
 12
0.000000
 22
0.000000
 32
0.000000
 13
0.000000
 23
0.000000
 33
0.000000
 40
0.000000
 40
0.000000
 40
0.000000
 40
0.000000
 40
1.000000
 40
1.000000
 40
1.000000
 40
1.000000
 10
489.203175
 20
507.918726
 30
0.000000
 10
489.137923
 20
508.163318
 30
0.000000
 10
489.007062
 20
508.389975
 30
0.000000
 10
488.827865
 20
508.568780
 30
0.000000
  0
SPLINE
  5
142
330
1F
100
AcDbEntity
  8
0
 62
     7
100
AcDbSpline
210
0.000000
220
0.000000
230
1.0
 70
     8
 71
     3
 72
     8
 73
     4
 42
0.0000000001
 43
0.0000000001
 44
0.0000000001
 12
0.000000
 22
0.000000
 32
0.000000
 13
0.000000
 23
0.000000
 33
0.000000
 40
0.000000
 40
0.000000
 40
0.000000
 40
0.000000
 40
1.000000
 40
1.000000
 40
1.000000
 40
1.000000
 10
488.827865
 20
508.568780
 30
0.000000
 10
488.649060
 20
508.747977
 30
0.000000
 10
488.422403
 20
508.878837
 30
0.000000
 10
488.177811
 20
508.944089
 30
0.000000
  0
SPLINE
  5
143
330
1F
100
AcDbEntity
  8
0
 62
     7
100
AcDbSpline
210
0.000000
220
0.000000
230
1.0
 70
     8
 71
     3
 72
     8
 73
     4
 42
0.0000000001
 43
0.0000000001
 44
0.0000000001
 12
0.000000
 22
0.000000
 32
0.000000
 13
0.000000
 23
0.000000
 33
0.000000
 40
0.000000
 40
0.000000
 40
0.000000
 40
0.000000
 40
1.000000
 40
1.000000
 40
1.000000
 40
1.000000
 10
488.177811
 20
508.944089
 30
0.000000
 10
487.933362
 20
509.009875
 30
0.000000
 10
487.671641
 20
509.009875
 30
0.000000
 10
487.427193
 20
508.944089
 30
0.000000
  0
SPLINE
  5
144
330
1F
100
AcDbEntity
  8
0
 62
     7
100
AcDbSpline
210
0.000000
220
0.000000
230
1.0
 70
     8
 71
     3
 72
     8
 73
     4
 42
0.0000000001
 43
0.0000000001
 44
0.0000000001
 12
0.000000
 22
0.000000
 32
0.000000
 13
0.000000
 23
0.000000
 33
0.000000
 40
0.000000
 40
0.000000
 40
0.000000
 40
0.000000
 40
1.000000
 40
1.000000
 40
1.000000
 40
1.000000
 10
535.311288
 20
485.377446
 30
0.000000
 10
535.311288
 20
485.377446
 30
0.000000
 10
513.776594
 20
488.760603
 30
0.000000
 10
490.914160
 20
509.900524
 30
0.000000
  0
SPLINE
  5
145
330
1F
100
AcDbEntity
  8
0
 62
     7
100
AcDbSpline
210
0.000000
220
0.000000
230
1.0
 70
     8
 71
     3
 72
     8
 73
     4
 42
0.0000000001
 43
0.0000000001
 44
0.0000000001
 12
0.000000
 22
0.000000
 32
0.000000
 13
0.000000
 23
0.000000
 33
0.000000
 40
0.000000
 40
0.000000
 40
0.000000
 40
0.000000
 40
1.000000
 40
1.000000
 40
1.000000
 40
1.000000
 10
490.914160
 20
509.900524
 30
0.000000
 10
490.914160
 20
509.900524
 30
0.000000
 10
486.947497
 20
513.600355
 30
0.000000
 10
484.510173
 20
510.970612
 30
0.000000
  0
SPLINE
  5
146
330
1F
100
AcDbEntity
  8
0
 62
     7
100
AcDbSpline
210
0.000000
220
0.000000
230
1.0
 70
     8
 71
     3
 72
     8
 73
     4
 42
0.0000000001
 43
0.0000000001
 44
0.0000000001
 12
0.000000
 22
0.000000
 32
0.000000
 13
0.000000
 23
0.000000
 33
0.000000
 40
0.000000
 40
0.000000
 40
0.000000
 40
0.000000
 40
1.000000
 40
1.000000
 40
1.000000
 40
1.000000
 10
484.574313
 20
511.227172
 30
0.000000
 10
484.574313
 20
511.227172
 30
0.000000
 10
482.123460
 20
508.765295
 30
0.000000
 10
485.433440
 20
504.576396
 30
0.000000
  0
SPLINE
  5
147
330
1F
100
AcDbEntity
  8
0
 62
     7
100
AcDbSpline
210
0.000000
220
0.000000
230
1.0
 70
     8
 71
     3
 72
     8
 73
     4
 42
0.0000000001
 43
0.0000000001
 44
0.0000000001
 12
0.000000
 22
0.000000
 32
0.000000
 13
0.000000
 23
0.000000
 33
0.000000
 40
0.000000
 40
0.000000
 40
0.000000
 40
0.000000
 40
1.000000
 40
1.000000
 40
1.000000
 40
1.000000
 10
495.697544
 20
450.238036
 30
0.000000
 10
495.697544
 20
450.238036
 30
0.000000
 10
496.810971
 20
487.555455
 30
0.000000
 10
485.433440
 20
504.576396
 30
0.000000
  0
SPLINE
  5
148
330
1F
100
AcDbEntity
  8
0
 62
     7
100
AcDbSpline
210
0.000000
220
0.000000
230
1.0
 70
     8
 71
     3
 72
     8
 73
     4
 42
0.0000000001
 43
0.0000000001
 44
0.0000000001
 12
0.000000
 22
0.000000
 32
0.000000
 13
0.000000
 23
0.000000
 33
0.000000
 40
0.000000
 40
0.000000
 40
0.000000
 40
0.000000
 40
1.000000
 40
1.000000
 40
1.000000
 40
1.000000
 10
583.207113
 20
391.534649
 30
0.000000
 10
583.451705
 20
391.599901
 30
0.000000
 10
583.678362
 20
391.730761
 30
0.000000
 10
583.857168
 20
391.909958
 30
0.000000
  0
SPLINE
  5
149
330
1F
100
AcDbEntity
  8
0
 62
     7
100
AcDbSpline
210
0.000000
220
0.000000
230
1.0
 70
     8
 71
     3
 72
     8
 73
     4
 42
0.0000000001
 43
0.0000000001
 44
0.0000000001
 12
0.000000
 22
0.000000
 32
0.000000
 13
0.000000
 23
0.000000
 33
0.000000
 40
0.000000
 40
0.000000
 40
0.000000
 40
0.000000
 40
1.000000
 40
1.000000
 40
1.000000
 40
1.000000
 10
583.857168
 20
391.909958
 30
0.000000
 10
584.036364
 20
392.088764
 30
0.000000
 10
584.167225
 20
392.315420
 30
0.000000
 10
584.232476
 20
392.560012
 30
0.000000
  0
SPLINE
  5
150
330
1F
100
AcDbEntity
  8
0
 62
     7
100
AcDbSpline
210
0.000000
220
0.000000
230
1.0
 70
     8
 71
     3
 72
     8
 73
     4
 42
0.0000000001
 43
0.0000000001
 44
0.0000000001
 12
0.000000
 22
0.000000
 32
0.000000
 13
0.000000
 23
0.000000
 33
0.000000
 40
0.000000
 40
0.000000
 40
0.000000
 40
0.000000
 40
1.000000
 40
1.000000
 40
1.000000
 40
1.000000
 10
584.232476
 20
392.560012
 30
0.000000
 10
584.298263
 20
392.804461
 30
0.000000
 10
584.298263
 20
393.066182
 30
0.000000
 10
584.232477
 20
393.310631
 30
0.000000
  0
SPLINE
  5
151
330
1F
100
AcDbEntity
  8
0
 62
     7
100
AcDbSpline
210
0.000000
220
0.000000
230
1.0
 70
     8
 71
     3
 72
     8
 73
     4
 42
0.0000000001
 43
0.0000000001
 44
0.0000000001
 12
0.000000
 22
0.000000
 32
0.000000
 13
0.000000
 23
0.000000
 33
0.000000
 40
0.000000
 40
0.000000
 40
0.000000
 40
0.000000
 40
1.000000
 40
1.000000
 40
1.000000
 40
1.000000
 10
584.232477
 20
393.310631
 30
0.000000
 10
584.167225
 20
393.555222
 30
0.000000
 10
584.036364
 20
393.781879
 30
0.000000
 10
583.857168
 20
393.960685
 30
0.000000
  0
SPLINE
  5
152
330
1F
100
AcDbEntity
  8
0
 62
     7
100
AcDbSpline
210
0.000000
220
0.000000
230
1.0
 70
     8
 71
     3
 72
     8
 73
     4
 42
0.0000000001
 43
0.0000000001
 44
0.0000000001
 12
0.000000
 22
0.000000
 32
0.000000
 13
0.000000
 23
0.000000
 33
0.000000
 40
0.000000
 40
0.000000
 40
0.000000
 40
0.000000
 40
1.000000
 40
1.000000
 40
1.000000
 40
1.000000
 10
583.857168
 20
393.960685
 30
0.000000
 10
583.678362
 20
394.139882
 30
0.000000
 10
583.451705
 20
394.270742
 30
0.000000
 10
583.207113
 20
394.335994
 30
0.000000
  0
SPLINE
  5
153
330
1F
100
AcDbEntity
  8
0
 62
     7
100
AcDbSpline
210
0.000000
220
0.000000
230
1.0
 70
     8
 71
     3
 72
     8
 73
     4
 42
0.0000000001
 43
0.0000000001
 44
0.0000000001
 12
0.000000
 22
0.000000
 32
0.000000
 13
0.000000
 23
0.000000
 33
0.000000
 40
0.000000
 40
0.000000
 40
0.000000
 40
0.000000
 40
1.000000
 40
1.000000
 40
1.000000
 40
1.000000
 10
583.207113
 20
394.335994
 30
0.000000
 10
582.962664
 20
394.401780
 30
0.000000
 10
582.700943
 20
394.401780
 30
0.000000
 10
582.456495
 20
394.335994
 30
0.000000
  0
SPLINE
  5
154
330
1F
100
AcDbEntity
  8
0
 62
     7
100
AcDbSpline
210
0.000000
220
0.000000
230
1.0
 70
     8
 71
     3
 72
     8
 73
     4
 42
0.0000000001
 43
0.0000000001
 44
0.0000000001
 12
0.000000
 22
0.000000
 32
0.000000
 13
0.000000
 23
0.000000
 33
0.000000
 40
0.000000
 40
0.000000
 40
0.000000
 40
0.000000
 40
1.000000
 40
1.000000
 40
1.000000
 40
1.000000
 10
582.456495
 20
394.335994
 30
0.000000
 10
582.211903
 20
394.270742
 30
0.000000
 10
581.985246
 20
394.139882
 30
0.000000
 10
581.806441
 20
393.960685
 30
0.000000
  0
SPLINE
  5
155
330
1F
100
AcDbEntity
  8
0
 62
     7
100
AcDbSpline
210
0.000000
220
0.000000
230
1.0
 70
     8
 71
     3
 72
     8
 73
     4
 42
0.0000000001
 43
0.0000000001
 44
0.0000000001
 12
0.000000
 22
0.000000
 32
0.000000
 13
0.000000
 23
0.000000
 33
0.000000
 40
0.000000
 40
0.000000
 40
0.000000
 40
0.000000
 40
1.000000
 40
1.000000
 40
1.000000
 40
1.000000
 10
581.806441
 20
393.960685
 30
0.000000
 10
581.627244
 20
393.781879
 30
0.000000
 10
581.496383
 20
393.555223
 30
0.000000
 10
581.431132
 20
393.310631
 30
0.000000
  0
SPLINE
  5
156
330
1F
100
AcDbEntity
  8
0
 62
     7
100
AcDbSpline
210
0.000000
220
0.000000
230
1.0
 70
     8
 71
     3
 72
     8
 73
     4
 42
0.0000000001
 43
0.0000000001
 44
0.0000000001
 12
0.000000
 22
0.000000
 32
0.000000
 13
0.000000
 23
0.000000
 33
0.000000
 40
0.000000
 40
0.000000
 40
0.000000
 40
0.000000
 40
1.000000
 40
1.000000
 40
1.000000
 40
1.000000
 10
581.431132
 20
393.310631
 30
0.000000
 10
581.365345
 20
393.066182
 30
0.000000
 10
581.365345
 20
392.804461
 30
0.000000
 10
581.431131
 20
392.560012
 30
0.000000
  0
SPLINE
  5
157
330
1F
100
AcDbEntity
  8
0
 62
     7
100
AcDbSpline
210
0.000000
220
0.000000
230
1.0
 70
     8
 71
     3
 72
     8
 73
     4
 42
0.0000000001
 43
0.0000000001
 44
0.0000000001
 12
0.000000
 22
0.000000
 32
0.000000
 13
0.000000
 23
0.000000
 33
0.000000
 40
0.000000
 40
0.000000
 40
0.000000
 40
0.000000
 40
1.000000
 40
1.000000
 40
1.000000
 40
1.000000
 10
581.431131
 20
392.560012
 30
0.000000
 10
581.496383
 20
392.315421
 30
0.000000
 10
581.627244
 20
392.088763
 30
0.000000
 10
581.806441
 20
391.909958
 30
0.000000
  0
SPLINE
  5
158
330
1F
100
AcDbEntity
  8
0
 62
     7
100
AcDbSpline
210
0.000000
220
0.000000
230
1.0
 70
     8
 71
     3
 72
     8
 73
     4
 42
0.0000000001
 43
0.0000000001
 44
0.0000000001
 12
0.000000
 22
0.000000
 32
0.000000
 13
0.000000
 23
0.000000
 33
0.000000
 40
0.000000
 40
0.000000
 40
0.000000
 40
0.000000
 40
1.000000
 40
1.000000
 40
1.000000
 40
1.000000
 10
581.806441
 20
391.909958
 30
0.000000
 10
581.985246
 20
391.730761
 30
0.000000
 10
582.211903
 20
391.599901
 30
0.000000
 10
582.456495
 20
391.534649
 30
0.000000
  0
SPLINE
  5
159
330
1F
100
AcDbEntity
  8
0
 62
     7
100
AcDbSpline
210
0.000000
220
0.000000
230
1.0
 70
     8
 71
     3
 72
     8
 73
     4
 42
0.0000000001
 43
0.0000000001
 44
0.0000000001
 12
0.000000
 22
0.000000
 32
0.000000
 13
0.000000
 23
0.000000
 33
0.000000
 40
0.000000
 40
0.000000
 40
0.000000
 40
0.000000
 40
1.000000
 40
1.000000
 40
1.000000
 40
1.000000
 10
582.456495
 20
391.534649
 30
0.000000
 10
582.700944
 20
391.468863
 30
0.000000
 10
582.962665
 20
391.468863
 30
0.000000
 10
583.207113
 20
391.534649
 30
0.000000
  0
SPLINE
  5
160
330
1F
100
AcDbEntity
  8
0
 62
     7
100
AcDbSpline
210
0.000000
220
0.000000
230
1.0
 70
     8
 71
     3
 72
     8
 73
     4
 42
0.0000000001
 43
0.0000000001
 44
0.0000000001
 12
0.000000
 22
0.000000
 32
0.000000
 13
0.000000
 23
0.000000
 33
0.000000
 40
0.000000
 40
0.000000
 40
0.000000
 40
0.000000
 40
1.000000
 40
1.000000
 40
1.000000
 40
1.000000
 10
535.323018
 20
415.101292
 30
0.000000
 10
535.323018
 20
415.101292
 30
0.000000
 10
556.857712
 20
411.718136
 30
0.000000
 10
579.720146
 20
390.578214
 30
0.000000
  0
SPLINE
  5
161
330
1F
100
AcDbEntity
  8
0
 62
     7
100
AcDbSpline
210
0.000000
220
0.000000
230
1.0
 70
     8
 71
     3
 72
     8
 73
     4
 42
0.0000000001
 43
0.0000000001
 44
0.0000000001
 12
0.000000
 22
0.000000
 32
0.000000
 13
0.000000
 23
0.000000
 33
0.000000
 40
0.000000
 40
0.000000
 40
0.000000
 40
0.000000
 40
1.000000
 40
1.000000
 40
1.000000
 40
1.000000
 10
579.720146
 20
390.578214
 30
0.000000
 10
579.720146
 20
390.578214
 30
0.000000
 10
583.686809
 20
386.878383
 30
0.000000
 10
586.124133
 20
389.508127
 30
0.000000
  0
SPLINE
  5
162
330
1F
100
AcDbEntity
  8
0
 62
     7
100
AcDbSpline
210
0.000000
220
0.000000
230
1.0
 70
     8
 71
     3
 72
     8
 73
     4
 42
0.0000000001
 43
0.0000000001
 44
0.0000000001
 12
0.000000
 22
0.000000
 32
0.000000
 13
0.000000
 23
0.000000
 33
0.000000
 40
0.000000
 40
0.000000
 40
0.000000
 40
0.000000
 40
1.000000
 40
1.000000
 40
1.000000
 40
1.000000
 10
586.059993
 20
389.251566
 30
0.000000
 10
586.059993
 20
389.251566
 30
0.000000
 10
588.510845
 20
391.713443
 30
0.000000
 10
585.200866
 20
395.902342
 30
0.000000
  0
SPLINE
  5
163
330
1F
100
AcDbEntity
  8
0
 62
     7
100
AcDbSpline
210
0.000000
220
0.000000
230
1.0
 70
     8
 71
     3
 72
     8
 73
     4
 42
0.0000000001
 43
0.0000000001
 44
0.0000000001
 12
0.000000
 22
0.000000
 32
0.000000
 13
0.000000
 23
0.000000
 33
0.000000
 40
0.000000
 40
0.000000
 40
0.000000
 40
0.000000
 40
1.000000
 40
1.000000
 40
1.000000
 40
1.000000
 10
573.857412
 20
450.240702
 30
0.000000
 10
573.857412
 20
450.240702
 30
0.000000
 10
572.626900
 20
412.923283
 30
0.000000
 10
585.200866
 20
395.902342
 30
0.000000
  0
SPLINE
  5
164
330
1F
100
AcDbEntity
  8
0
 62
     7
100
AcDbSpline
210
0.000000
220
0.000000
230
1.0
 70
     8
 71
     3
 72
     8
 73
     4
 42
0.0000000001
 43
0.0000000001
 44
0.0000000001
 12
0.000000
 22
0.000000
 32
0.000000
 13
0.000000
 23
0.000000
 33
0.000000
 40
0.000000
 40
0.000000
 40
0.000000
 40
0.000000
 40
1.000000
 40
1.000000
 40
1.000000
 40
1.000000
 10
487.427193
 20
391.534649
 30
0.000000
 10
487.182601
 20
391.599901
 30
0.000000
 10
486.955944
 20
391.730761
 30
0.000000
 10
486.777138
 20
391.909958
 30
0.000000
  0
SPLINE
  5
165
330
1F
100
AcDbEntity
  8
0
 62
     7
100
AcDbSpline
210
0.000000
220
0.000000
230
1.0
 70
     8
 71
     3
 72
     8
 73
     4
 42
0.0000000001
 43
0.0000000001
 44
0.0000000001
 12
0.000000
 22
0.000000
 32
0.000000
 13
0.000000
 23
0.000000
 33
0.000000
 40
0.000000
 40
0.000000
 40
0.000000
 40
0.000000
 40
1.000000
 40
1.000000
 40
1.000000
 40
1.000000
 10
486.777138
 20
391.909958
 30
0.000000
 10
486.597942
 20
392.088764
 30
0.000000
 10
486.467081
 20
392.315420
 30
0.000000
 10
486.401830
 20
392.560012
 30
0.000000
  0
SPLINE
  5
166
330
1F
100
AcDbEntity
  8
0
 62
     7
100
AcDbSpline
210
0.000000
220
0.000000
230
1.0
 70
     8
 71
     3
 72
     8
 73
     4
 42
0.0000000001
 43
0.0000000001
 44
0.0000000001
 12
0.000000
 22
0.000000
 32
0.000000
 13
0.000000
 23
0.000000
 33
0.000000
 40
0.000000
 40
0.000000
 40
0.000000
 40
0.000000
 40
1.000000
 40
1.000000
 40
1.000000
 40
1.000000
 10
486.401830
 20
392.560012
 30
0.000000
 10
486.336043
 20
392.804461
 30
0.000000
 10
486.336043
 20
393.066182
 30
0.000000
 10
486.401829
 20
393.310631
 30
0.000000
  0
SPLINE
  5
167
330
1F
100
AcDbEntity
  8
0
 62
     7
100
AcDbSpline
210
0.000000
220
0.000000
230
1.0
 70
     8
 71
     3
 72
     8
 73
     4
 42
0.0000000001
 43
0.0000000001
 44
0.0000000001
 12
0.000000
 22
0.000000
 32
0.000000
 13
0.000000
 23
0.000000
 33
0.000000
 40
0.000000
 40
0.000000
 40
0.000000
 40
0.000000
 40
1.000000
 40
1.000000
 40
1.000000
 40
1.000000
 10
486.401829
 20
393.310631
 30
0.000000
 10
486.467081
 20
393.555222
 30
0.000000
 10
486.597941
 20
393.781879
 30
0.000000
 10
486.777138
 20
393.960685
 30
0.000000
  0
SPLINE
  5
168
330
1F
100
AcDbEntity
  8
0
 62
     7
100
AcDbSpline
210
0.000000
220
0.000000
230
1.0
 70
     8
 71
     3
 72
     8
 73
     4
 42
0.0000000001
 43
0.0000000001
 44
0.0000000001
 12
0.000000
 22
0.000000
 32
0.000000
 13
0.000000
 23
0.000000
 33
0.000000
 40
0.000000
 40
0.000000
 40
0.000000
 40
0.000000
 40
1.000000
 40
1.000000
 40
1.000000
 40
1.000000
 10
486.777138
 20
393.960685
 30
0.000000
 10
486.955944
 20
394.139882
 30
0.000000
 10
487.182601
 20
394.270742
 30
0.000000
 10
487.427193
 20
394.335994
 30
0.000000
  0
SPLINE
  5
169
330
1F
100
AcDbEntity
  8
0
 62
     7
100
AcDbSpline
210
0.000000
220
0.000000
230
1.0
 70
     8
 71
     3
 72
     8
 73
     4
 42
0.0000000001
 43
0.0000000001
 44
0.0000000001
 12
0.000000
 22
0.000000
 32
0.000000
 13
0.000000
 23
0.000000
 33
0.000000
 40
0.000000
 40
0.000000
 40
0.000000
 40
0.000000
 40
1.000000
 40
1.000000
 40
1.000000
 40
1.000000
 10
487.427193
 20
394.335994
 30
0.000000
 10
487.671642
 20
394.401780
 30
0.000000
 10
487.933363
 20
394.401780
 30
0.000000
 10
488.177811
 20
394.335994
 30
0.000000
  0
SPLINE
  5
170
330
1F
100
AcDbEntity
  8
0
 62
     7
100
AcDbSpline
210
0.000000
220
0.000000
230
1.0
 70
     8
 71
     3
 72
     8
 73
     4
 42
0.0000000001
 43
0.0000000001
 44
0.0000000001
 12
0.000000
 22
0.000000
 32
0.000000
 13
0.000000
 23
0.000000
 33
0.000000
 40
0.000000
 40
0.000000
 40
0.000000
 40
0.000000
 40
1.000000
 40
1.000000
 40
1.000000
 40
1.000000
 10
488.177811
 20
394.335994
 30
0.000000
 10
488.422403
 20
394.270742
 30
0.000000
 10
488.649060
 20
394.139882
 30
0.000000
 10
488.827865
 20
393.960685
 30
0.000000
  0
SPLINE
  5
171
330
1F
100
AcDbEntity
  8
0
 62
     7
100
AcDbSpline
210
0.000000
220
0.000000
230
1.0
 70
     8
 71
     3
 72
     8
 73
     4
 42
0.0000000001
 43
0.0000000001
 44
0.0000000001
 12
0.000000
 22
0.000000
 32
0.000000
 13
0.000000
 23
0.000000
 33
0.000000
 40
0.000000
 40
0.000000
 40
0.000000
 40
0.000000
 40
1.000000
 40
1.000000
 40
1.000000
 40
1.000000
 10
488.827865
 20
393.960685
 30
0.000000
 10
489.007062
 20
393.781879
 30
0.000000
 10
489.137923
 20
393.555223
 30
0.000000
 10
489.203174
 20
393.310631
 30
0.000000
  0
SPLINE
  5
172
330
1F
100
AcDbEntity
  8
0
 62
     7
100
AcDbSpline
210
0.000000
220
0.000000
230
1.0
 70
     8
 71
     3
 72
     8
 73
     4
 42
0.0000000001
 43
0.0000000001
 44
0.0000000001
 12
0.000000
 22
0.000000
 32
0.000000
 13
0.000000
 23
0.000000
 33
0.000000
 40
0.000000
 40
0.000000
 40
0.000000
 40
0.000000
 40
1.000000
 40
1.000000
 40
1.000000
 40
1.000000
 10
489.203174
 20
393.310631
 30
0.000000
 10
489.268961
 20
393.066182
 30
0.000000
 10
489.268961
 20
392.804461
 30
0.000000
 10
489.203175
 20
392.560012
 30
0.000000
  0
SPLINE
  5
173
330
1F
100
AcDbEntity
  8
0
 62
     7
100
AcDbSpline
210
0.000000
220
0.000000
230
1.0
 70
     8
 71
     3
 72
     8
 73
     4
 42
0.0000000001
 43
0.0000000001
 44
0.0000000001
 12
0.000000
 22
0.000000
 32
0.000000
 13
0.000000
 23
0.000000
 33
0.000000
 40
0.000000
 40
0.000000
 40
0.000000
 40
0.000000
 40
1.000000
 40
1.000000
 40
1.000000
 40
1.000000
 10
489.203175
 20
392.560012
 30
0.000000
 10
489.137923
 20
392.315421
 30
0.000000
 10
489.007062
 20
392.088763
 30
0.000000
 10
488.827865
 20
391.909958
 30
0.000000
  0
SPLINE
  5
174
330
1F
100
AcDbEntity
  8
0
 62
     7
100
AcDbSpline
210
0.000000
220
0.000000
230
1.0
 70
     8
 71
     3
 72
     8
 73
     4
 42
0.0000000001
 43
0.0000000001
 44
0.0000000001
 12
0.000000
 22
0.000000
 32
0.000000
 13
0.000000
 23
0.000000
 33
0.000000
 40
0.000000
 40
0.000000
 40
0.000000
 40
0.000000
 40
1.000000
 40
1.000000
 40
1.000000
 40
1.000000
 10
488.827865
 20
391.909958
 30
0.000000
 10
488.649060
 20
391.730761
 30
0.000000
 10
488.422403
 20
391.599901
 30
0.000000
 10
488.177811
 20
391.534649
 30
0.000000
  0
SPLINE
  5
175
330
1F
100
AcDbEntity
  8
0
 62
     7
100
AcDbSpline
210
0.000000
220
0.000000
230
1.0
 70
     8
 71
     3
 72
     8
 73
     4
 42
0.0000000001
 43
0.0000000001
 44
0.0000000001
 12
0.000000
 22
0.000000
 32
0.000000
 13
0.000000
 23
0.000000
 33
0.000000
 40
0.000000
 40
0.000000
 40
0.000000
 40
0.000000
 40
1.000000
 40
1.000000
 40
1.000000
 40
1.000000
 10
488.177811
 20
391.534649
 30
0.000000
 10
487.933362
 20
391.468863
 30
0.000000
 10
487.671641
 20
391.468863
 30
0.000000
 10
487.427193
 20
391.534649
 30
0.000000
  0
SPLINE
  5
176
330
1F
100
AcDbEntity
  8
0
 62
     7
100
AcDbSpline
210
0.000000
220
0.000000
230
1.0
 70
     8
 71
     3
 72
     8
 73
     4
 42
0.0000000001
 43
0.0000000001
 44
0.0000000001
 12
0.000000
 22
0.000000
 32
0.000000
 13
0.000000
 23
0.000000
 33
0.000000
 40
0.000000
 40
0.000000
 40
0.000000
 40
0.000000
 40
1.000000
 40
1.000000
 40
1.000000
 40
1.000000
 10
535.311288
 20
415.101292
 30
0.000000
 10
535.311288
 20
415.101292
 30
0.000000
 10
513.776594
 20
411.718136
 30
0.000000
 10
490.914160
 20
390.578214
 30
0.000000
  0
SPLINE
  5
177
330
1F
100
AcDbEntity
  8
0
 62
     7
100
AcDbSpline
210
0.000000
220
0.000000
230
1.0
 70
     8
 71
     3
 72
     8
 73
     4
 42
0.0000000001
 43
0.0000000001
 44
0.0000000001
 12
0.000000
 22
0.000000
 32
0.000000
 13
0.000000
 23
0.000000
 33
0.000000
 40
0.000000
 40
0.000000
 40
0.000000
 40
0.000000
 40
1.000000
 40
1.000000
 40
1.000000
 40
1.000000
 10
490.914160
 20
390.578214
 30
0.000000
 10
490.914160
 20
390.578214
 30
0.000000
 10
486.947497
 20
386.878383
 30
0.000000
 10
484.510173
 20
389.508127
 30
0.000000
  0
SPLINE
  5
178
330
1F
100
AcDbEntity
  8
0
 62
     7
100
AcDbSpline
210
0.000000
220
0.000000
230
1.0
 70
     8
 71
     3
 72
     8
 73
     4
 42
0.0000000001
 43
0.0000000001
 44
0.0000000001
 12
0.000000
 22
0.000000
 32
0.000000
 13
0.000000
 23
0.000000
 33
0.000000
 40
0.000000
 40
0.000000
 40
0.000000
 40
0.000000
 40
1.000000
 40
1.000000
 40
1.000000
 40
1.000000
 10
484.574313
 20
389.251566
 30
0.000000
 10
484.574313
 20
389.251566
 30
0.000000
 10
482.123460
 20
391.713443
 30
0.000000
 10
485.433440
 20
395.902342
 30
0.000000
  0
SPLINE
  5
179
330
1F
100
AcDbEntity
  8
0
 62
     7
100
AcDbSpline
210
0.000000
220
0.000000
230
1.0
 70
     8
 71
     3
 72
     8
 73
     4
 42
0.0000000001
 43
0.0000000001
 44
0.0000000001
 12
0.000000
 22
0.000000
 32
0.000000
 13
0.000000
 23
0.000000
 33
0.000000
 40
0.000000
 40
0.000000
 40
0.000000
 40
0.000000
 40
1.000000
 40
1.000000
 40
1.000000
 40
1.000000
 10
495.697544
 20
450.240702
 30
0.000000
 10
495.697544
 20
450.240702
 30
0.000000
 10
496.810971
 20
412.923283
 30
0.000000
 10
485.433440
 20
395.902342
 30
0.000000
  0
SPLINE
  5
180
330
1F
100
AcDbEntity
  8
0
 62
     7
100
AcDbSpline
210
0.000000
220
0.000000
230
1.0
 70
     8
 71
     3
 72
     8
 73
     4
 42
0.0000000001
 43
0.0000000001
 44
0.0000000001
 12
0.000000
 22
0.000000
 32
0.000000
 13
0.000000
 23
0.000000
 33
0.000000
 40
0.000000
 40
0.000000
 40
0.000000
 40
0.000000
 40
1.000000
 40
1.000000
 40
1.000000
 40
1.000000
 10
508.548357
 20
484.862143
 30
0.000000
 10
508.548080
 20
485.115260
 30
0.000000
 10
508.615811
 20
485.368035
 30
0.000000
 10
508.742609
 20
485.587102
 30
0.000000
  0
SPLINE
  5
181
330
1F
100
AcDbEntity
  8
0
 62
     7
100
AcDbSpline
210
0.000000
220
0.000000
230
1.0
 70
     8
 71
     3
 72
     8
 73
     4
 42
0.0000000001
 43
0.0000000001
 44
0.0000000001
 12
0.000000
 22
0.000000
 32
0.000000
 13
0.000000
 23
0.000000
 33
0.000000
 40
0.000000
 40
0.000000
 40
0.000000
 40
0.000000
 40
1.000000
 40
1.000000
 40
1.000000
 40
1.000000
 10
508.742609
 20
485.587102
 30
0.000000
 10
508.868928
 20
485.806447
 30
0.000000
 10
509.053972
 20
485.991491
 30
0.000000
 10
509.273316
 20
486.117810
 30
0.000000
  0
SPLINE
  5
182
330
1F
100
AcDbEntity
  8
0
 62
     7
100
AcDbSpline
210
0.000000
220
0.000000
230
1.0
 70
     8
 71
     3
 72
     8
 73
     4
 42
0.0000000001
 43
0.0000000001
 44
0.0000000001
 12
0.000000
 22
0.000000
 32
0.000000
 13
0.000000
 23
0.000000
 33
0.000000
 40
0.000000
 40
0.000000
 40
0.000000
 40
0.000000
 40
1.000000
 40
1.000000
 40
1.000000
 40
1.000000
 10
509.273316
 20
486.117810
 30
0.000000
 10
509.492384
 20
486.244608
 30
0.000000
 10
509.745159
 20
486.312339
 30
0.000000
 10
509.998276
 20
486.312062
 30
0.000000
  0
SPLINE
  5
183
330
1F
100
AcDbEntity
  8
0
 62
     7
100
AcDbSpline
210
0.000000
220
0.000000
230
1.0
 70
     8
 71
     3
 72
     8
 73
     4
 42
0.0000000001
 43
0.0000000001
 44
0.0000000001
 12
0.000000
 22
0.000000
 32
0.000000
 13
0.000000
 23
0.000000
 33
0.000000
 40
0.000000
 40
0.000000
 40
0.000000
 40
0.000000
 40
1.000000
 40
1.000000
 40
1.000000
 40
1.000000
 10
509.998276
 20
486.312062
 30
0.000000
 10
510.251394
 20
486.312339
 30
0.000000
 10
510.504168
 20
486.244608
 30
0.000000
 10
510.723236
 20
486.117810
 30
0.000000
  0
SPLINE
  5
184
330
1F
100
AcDbEntity
  8
0
 62
     7
100
AcDbSpline
210
0.000000
220
0.000000
230
1.0
 70
     8
 71
     3
 72
     8
 73
     4
 42
0.0000000001
 43
0.0000000001
 44
0.0000000001
 12
0.000000
 22
0.000000
 32
0.000000
 13
0.000000
 23
0.000000
 33
0.000000
 40
0.000000
 40
0.000000
 40
0.000000
 40
0.000000
 40
1.000000
 40
1.000000
 40
1.000000
 40
1.000000
 10
510.723236
 20
486.117810
 30
0.000000
 10
510.942580
 20
485.991491
 30
0.000000
 10
511.127624
 20
485.806447
 30
0.000000
 10
511.253943
 20
485.587102
 30
0.000000
  0
SPLINE
  5
185
330
1F
100
AcDbEntity
  8
0
 62
     7
100
AcDbSpline
210
0.000000
220
0.000000
230
1.0
 70
     8
 71
     3
 72
     8
 73
     4
 42
0.0000000001
 43
0.0000000001
 44
0.0000000001
 12
0.000000
 22
0.000000
 32
0.000000
 13
0.000000
 23
0.000000
 33
0.000000
 40
0.000000
 40
0.000000
 40
0.000000
 40
0.000000
 40
1.000000
 40
1.000000
 40
1.000000
 40
1.000000
 10
511.253943
 20
485.587102
 30
0.000000
 10
511.380741
 20
485.368035
 30
0.000000
 10
511.448472
 20
485.115260
 30
0.000000
 10
511.448196
 20
484.862143
 30
0.000000
  0
SPLINE
  5
186
330
1F
100
AcDbEntity
  8
0
 62
     7
100
AcDbSpline
210
0.000000
220
0.000000
230
1.0
 70
     8
 71
     3
 72
     8
 73
     4
 42
0.0000000001
 43
0.0000000001
 44
0.0000000001
 12
0.000000
 22
0.000000
 32
0.000000
 13
0.000000
 23
0.000000
 33
0.000000
 40
0.000000
 40
0.000000
 40
0.000000
 40
0.000000
 40
1.000000
 40
1.000000
 40
1.000000
 40
1.000000
 10
511.448196
 20
484.862143
 30
0.000000
 10
511.448472
 20
484.609025
 30
0.000000
 10
511.380741
 20
484.356251
 30
0.000000
 10
511.253943
 20
484.137183
 30
0.000000
  0
SPLINE
  5
187
330
1F
100
AcDbEntity
  8
0
 62
     7
100
AcDbSpline
210
0.000000
220
0.000000
230
1.0
 70
     8
 71
     3
 72
     8
 73
     4
 42
0.0000000001
 43
0.0000000001
 44
0.0000000001
 12
0.000000
 22
0.000000
 32
0.000000
 13
0.000000
 23
0.000000
 33
0.000000
 40
0.000000
 40
0.000000
 40
0.000000
 40
0.000000
 40
1.000000
 40
1.000000
 40
1.000000
 40
1.000000
 10
511.253943
 20
484.137183
 30
0.000000
 10
511.127624
 20
483.917839
 30
0.000000
 10
510.942580
 20
483.732795
 30
0.000000
 10
510.723236
 20
483.606476
 30
0.000000
  0
SPLINE
  5
188
330
1F
100
AcDbEntity
  8
0
 62
     7
100
AcDbSpline
210
0.000000
220
0.000000
230
1.0
 70
     8
 71
     3
 72
     8
 73
     4
 42
0.0000000001
 43
0.0000000001
 44
0.0000000001
 12
0.000000
 22
0.000000
 32
0.000000
 13
0.000000
 23
0.000000
 33
0.000000
 40
0.000000
 40
0.000000
 40
0.000000
 40
0.000000
 40
1.000000
 40
1.000000
 40
1.000000
 40
1.000000
 10
510.723236
 20
483.606476
 30
0.000000
 10
510.504168
 20
483.479677
 30
0.000000
 10
510.251394
 20
483.411947
 30
0.000000
 10
509.998276
 20
483.412223
 30
0.000000
  0
SPLINE
  5
189
330
1F
100
AcDbEntity
  8
0
 62
     7
100
AcDbSpline
210
0.000000
220
0.000000
230
1.0
 70
     8
 71
     3
 72
     8
 73
     4
 42
0.0000000001
 43
0.0000000001
 44
0.0000000001
 12
0.000000
 22
0.000000
 32
0.000000
 13
0.000000
 23
0.000000
 33
0.000000
 40
0.000000
 40
0.000000
 40
0.000000
 40
0.000000
 40
1.000000
 40
1.000000
 40
1.000000
 40
1.000000
 10
509.998276
 20
483.412223
 30
0.000000
 10
509.745159
 20
483.411947
 30
0.000000
 10
509.492384
 20
483.479677
 30
0.000000
 10
509.273316
 20
483.606476
 30
0.000000
  0
SPLINE
  5
190
330
1F
100
AcDbEntity
  8
0
 62
     7
100
AcDbSpline
210
0.000000
220
0.000000
230
1.0
 70
     8
 71
     3
 72
     8
 73
     4
 42
0.0000000001
 43
0.0000000001
 44
0.0000000001
 12
0.000000
 22
0.000000
 32
0.000000
 13
0.000000
 23
0.000000
 33
0.000000
 40
0.000000
 40
0.000000
 40
0.000000
 40
0.000000
 40
1.000000
 40
1.000000
 40
1.000000
 40
1.000000
 10
509.273316
 20
483.606476
 30
0.000000
 10
509.053972
 20
483.732795
 30
0.000000
 10
508.868928
 20
483.917839
 30
0.000000
 10
508.742609
 20
484.137183
 30
0.000000
  0
SPLINE
  5
191
330
1F
100
AcDbEntity
  8
0
 62
     7
100
AcDbSpline
210
0.000000
220
0.000000
230
1.0
 70
     8
 71
     3
 72
     8
 73
     4
 42
0.0000000001
 43
0.0000000001
 44
0.0000000001
 12
0.000000
 22
0.000000
 32
0.000000
 13
0.000000
 23
0.000000
 33
0.000000
 40
0.000000
 40
0.000000
 40
0.000000
 40
0.000000
 40
1.000000
 40
1.000000
 40
1.000000
 40
1.000000
 10
508.742609
 20
484.137183
 30
0.000000
 10
508.615811
 20
484.356251
 30
0.000000
 10
508.548080
 20
484.609025
 30
0.000000
 10
508.548357
 20
484.862143
 30
0.000000
  0
SPLINE
  5
192
330
1F
100
AcDbEntity
  8
0
 62
     7
100
AcDbSpline
210
0.000000
220
0.000000
230
1.0
 70
     8
 71
     3
 72
     8
 73
     4
 42
0.0000000001
 43
0.0000000001
 44
0.0000000001
 12
0.000000
 22
0.000000
 32
0.000000
 13
0.000000
 23
0.000000
 33
0.000000
 40
0.000000
 40
0.000000
 40
0.000000
 40
0.000000
 40
1.000000
 40
1.000000
 40
1.000000
 40
1.000000
 10
559.648357
 20
484.887143
 30
0.000000
 10
559.648080
 20
485.140260
 30
0.000000
 10
559.715811
 20
485.393035
 30
0.000000
 10
559.842609
 20
485.612102
 30
0.000000
  0
SPLINE
  5
193
330
1F
100
AcDbEntity
  8
0
 62
     7
100
AcDbSpline
210
0.000000
220
0.000000
230
1.0
 70
     8
 71
     3
 72
     8
 73
     4
 42
0.0000000001
 43
0.0000000001
 44
0.0000000001
 12
0.000000
 22
0.000000
 32
0.000000
 13
0.000000
 23
0.000000
 33
0.000000
 40
0.000000
 40
0.000000
 40
0.000000
 40
0.000000
 40
1.000000
 40
1.000000
 40
1.000000
 40
1.000000
 10
559.842609
 20
485.612102
 30
0.000000
 10
559.968928
 20
485.831447
 30
0.000000
 10
560.153972
 20
486.016491
 30
0.000000
 10
560.373316
 20
486.142810
 30
0.000000
  0
SPLINE
  5
194
330
1F
100
AcDbEntity
  8
0
 62
     7
100
AcDbSpline
210
0.000000
220
0.000000
230
1.0
 70
     8
 71
     3
 72
     8
 73
     4
 42
0.0000000001
 43
0.0000000001
 44
0.0000000001
 12
0.000000
 22
0.000000
 32
0.000000
 13
0.000000
 23
0.000000
 33
0.000000
 40
0.000000
 40
0.000000
 40
0.000000
 40
0.000000
 40
1.000000
 40
1.000000
 40
1.000000
 40
1.000000
 10
560.373316
 20
486.142810
 30
0.000000
 10
560.592384
 20
486.269608
 30
0.000000
 10
560.845159
 20
486.337339
 30
0.000000
 10
561.098276
 20
486.337062
 30
0.000000
  0
SPLINE
  5
195
330
1F
100
AcDbEntity
  8
0
 62
     7
100
AcDbSpline
210
0.000000
220
0.000000
230
1.0
 70
     8
 71
     3
 72
     8
 73
     4
 42
0.0000000001
 43
0.0000000001
 44
0.0000000001
 12
0.000000
 22
0.000000
 32
0.000000
 13
0.000000
 23
0.000000
 33
0.000000
 40
0.000000
 40
0.000000
 40
0.000000
 40
0.000000
 40
1.000000
 40
1.000000
 40
1.000000
 40
1.000000
 10
561.098276
 20
486.337062
 30
0.000000
 10
561.351394
 20
486.337339
 30
0.000000
 10
561.604168
 20
486.269608
 30
0.000000
 10
561.823236
 20
486.142810
 30
0.000000
  0
SPLINE
  5
196
330
1F
100
AcDbEntity
  8
0
 62
     7
100
AcDbSpline
210
0.000000
220
0.000000
230
1.0
 70
     8
 71
     3
 72
     8
 73
     4
 42
0.0000000001
 43
0.0000000001
 44
0.0000000001
 12
0.000000
 22
0.000000
 32
0.000000
 13
0.000000
 23
0.000000
 33
0.000000
 40
0.000000
 40
0.000000
 40
0.000000
 40
0.000000
 40
1.000000
 40
1.000000
 40
1.000000
 40
1.000000
 10
561.823236
 20
486.142810
 30
0.000000
 10
562.042580
 20
486.016491
 30
0.000000
 10
562.227624
 20
485.831447
 30
0.000000
 10
562.353943
 20
485.612102
 30
0.000000
  0
SPLINE
  5
197
330
1F
100
AcDbEntity
  8
0
 62
     7
100
AcDbSpline
210
0.000000
220
0.000000
230
1.0
 70
     8
 71
     3
 72
     8
 73
     4
 42
0.0000000001
 43
0.0000000001
 44
0.0000000001
 12
0.000000
 22
0.000000
 32
0.000000
 13
0.000000
 23
0.000000
 33
0.000000
 40
0.000000
 40
0.000000
 40
0.000000
 40
0.000000
 40
1.000000
 40
1.000000
 40
1.000000
 40
1.000000
 10
562.353943
 20
485.612102
 30
0.000000
 10
562.480741
 20
485.393035
 30
0.000000
 10
562.548472
 20
485.140260
 30
0.000000
 10
562.548196
 20
484.887143
 30
0.000000
  0
SPLINE
  5
198
330
1F
100
AcDbEntity
  8
0
 62
     7
100
AcDbSpline
210
0.000000
220
0.000000
230
1.0
 70
     8
 71
     3
 72
     8
 73
     4
 42
0.0000000001
 43
0.0000000001
 44
0.0000000001
 12
0.000000
 22
0.000000
 32
0.000000
 13
0.000000
 23
0.000000
 33
0.000000
 40
0.000000
 40
0.000000
 40
0.000000
 40
0.000000
 40
1.000000
 40
1.000000
 40
1.000000
 40
1.000000
 10
562.548196
 20
484.887143
 30
0.000000
 10
562.548472
 20
484.634025
 30
0.000000
 10
562.480741
 20
484.381251
 30
0.000000
 10
562.353943
 20
484.162183
 30
0.000000
  0
SPLINE
  5
199
330
1F
100
AcDbEntity
  8
0
 62
     7
100
AcDbSpline
210
0.000000
220
0.000000
230
1.0
 70
     8
 71
     3
 72
     8
 73
     4
 42
0.0000000001
 43
0.0000000001
 44
0.0000000001
 12
0.000000
 22
0.000000
 32
0.000000
 13
0.000000
 23
0.000000
 33
0.000000
 40
0.000000
 40
0.000000
 40
0.000000
 40
0.000000
 40
1.000000
 40
1.000000
 40
1.000000
 40
1.000000
 10
562.353943
 20
484.162183
 30
0.000000
 10
562.227624
 20
483.942839
 30
0.000000
 10
562.042580
 20
483.757795
 30
0.000000
 10
561.823236
 20
483.631476
 30
0.000000
  0
SPLINE
  5
200
330
1F
100
AcDbEntity
  8
0
 62
     7
100
AcDbSpline
210
0.000000
220
0.000000
230
1.0
 70
     8
 71
     3
 72
     8
 73
     4
 42
0.0000000001
 43
0.0000000001
 44
0.0000000001
 12
0.000000
 22
0.000000
 32
0.000000
 13
0.000000
 23
0.000000
 33
0.000000
 40
0.000000
 40
0.000000
 40
0.000000
 40
0.000000
 40
1.000000
 40
1.000000
 40
1.000000
 40
1.000000
 10
561.823236
 20
483.631476
 30
0.000000
 10
561.604168
 20
483.504677
 30
0.000000
 10
561.351394
 20
483.436947
 30
0.000000
 10
561.098276
 20
483.437223
 30
0.000000
  0
SPLINE
  5
201
330
1F
100
AcDbEntity
  8
0
 62
     7
100
AcDbSpline
210
0.000000
220
0.000000
230
1.0
 70
     8
 71
     3
 72
     8
 73
     4
 42
0.0000000001
 43
0.0000000001
 44
0.0000000001
 12
0.000000
 22
0.000000
 32
0.000000
 13
0.000000
 23
0.000000
 33
0.000000
 40
0.000000
 40
0.000000
 40
0.000000
 40
0.000000
 40
1.000000
 40
1.000000
 40
1.000000
 40
1.000000
 10
561.098276
 20
483.437223
 30
0.000000
 10
560.845159
 20
483.436947
 30
0.000000
 10
560.592384
 20
483.504677
 30
0.000000
 10
560.373316
 20
483.631476
 30
0.000000
  0
SPLINE
  5
202
330
1F
100
AcDbEntity
  8
0
 62
     7
100
AcDbSpline
210
0.000000
220
0.000000
230
1.0
 70
     8
 71
     3
 72
     8
 73
     4
 42
0.0000000001
 43
0.0000000001
 44
0.0000000001
 12
0.000000
 22
0.000000
 32
0.000000
 13
0.000000
 23
0.000000
 33
0.000000
 40
0.000000
 40
0.000000
 40
0.000000
 40
0.000000
 40
1.000000
 40
1.000000
 40
1.000000
 40
1.000000
 10
560.373316
 20
483.631476
 30
0.000000
 10
560.153972
 20
483.757795
 30
0.000000
 10
559.968928
 20
483.942839
 30
0.000000
 10
559.842609
 20
484.162183
 30
0.000000
  0
SPLINE
  5
203
330
1F
100
AcDbEntity
  8
0
 62
     7
100
AcDbSpline
210
0.000000
220
0.000000
230
1.0
 70
     8
 71
     3
 72
     8
 73
     4
 42
0.0000000001
 43
0.0000000001
 44
0.0000000001
 12
0.000000
 22
0.000000
 32
0.000000
 13
0.000000
 23
0.000000
 33
0.000000
 40
0.000000
 40
0.000000
 40
0.000000
 40
0.000000
 40
1.000000
 40
1.000000
 40
1.000000
 40
1.000000
 10
559.842609
 20
484.162183
 30
0.000000
 10
559.715811
 20
484.381251
 30
0.000000
 10
559.648080
 20
484.634025
 30
0.000000
 10
559.648357
 20
484.887143
 30
0.000000
  0
SPLINE
  5
204
330
1F
100
AcDbEntity
  8
0
 62
     7
100
AcDbSpline
210
0.000000
220
0.000000
230
1.0
 70
     8
 71
     3
 72
     8
 73
     4
 42
0.0000000001
 43
0.0000000001
 44
0.0000000001
 12
0.000000
 22
0.000000
 32
0.000000
 13
0.000000
 23
0.000000
 33
0.000000
 40
0.000000
 40
0.000000
 40
0.000000
 40
0.000000
 40
1.000000
 40
1.000000
 40
1.000000
 40
1.000000
 10
508.548357
 20
415.812143
 30
0.000000
 10
508.548080
 20
416.065260
 30
0.000000
 10
508.615811
 20
416.318035
 30
0.000000
 10
508.742609
 20
416.537102
 30
0.000000
  0
SPLINE
  5
205
330
1F
100
AcDbEntity
  8
0
 62
     7
100
AcDbSpline
210
0.000000
220
0.000000
230
1.0
 70
     8
 71
     3
 72
     8
 73
     4
 42
0.0000000001
 43
0.0000000001
 44
0.0000000001
 12
0.000000
 22
0.000000
 32
0.000000
 13
0.000000
 23
0.000000
 33
0.000000
 40
0.000000
 40
0.000000
 40
0.000000
 40
0.000000
 40
1.000000
 40
1.000000
 40
1.000000
 40
1.000000
 10
508.742609
 20
416.537102
 30
0.000000
 10
508.868928
 20
416.756447
 30
0.000000
 10
509.053972
 20
416.941491
 30
0.000000
 10
509.273316
 20
417.067810
 30
0.000000
  0
SPLINE
  5
206
330
1F
100
AcDbEntity
  8
0
 62
     7
100
AcDbSpline
210
0.000000
220
0.000000
230
1.0
 70
     8
 71
     3
 72
     8
 73
     4
 42
0.0000000001
 43
0.0000000001
 44
0.0000000001
 12
0.000000
 22
0.000000
 32
0.000000
 13
0.000000
 23
0.000000
 33
0.000000
 40
0.000000
 40
0.000000
 40
0.000000
 40
0.000000
 40
1.000000
 40
1.000000
 40
1.000000
 40
1.000000
 10
509.273316
 20
417.067810
 30
0.000000
 10
509.492384
 20
417.194608
 30
0.000000
 10
509.745159
 20
417.262339
 30
0.000000
 10
509.998276
 20
417.262062
 30
0.000000
  0
SPLINE
  5
207
330
1F
100
AcDbEntity
  8
0
 62
     7
100
AcDbSpline
210
0.000000
220
0.000000
230
1.0
 70
     8
 71
     3
 72
     8
 73
     4
 42
0.0000000001
 43
0.0000000001
 44
0.0000000001
 12
0.000000
 22
0.000000
 32
0.000000
 13
0.000000
 23
0.000000
 33
0.000000
 40
0.000000
 40
0.000000
 40
0.000000
 40
0.000000
 40
1.000000
 40
1.000000
 40
1.000000
 40
1.000000
 10
509.998276
 20
417.262062
 30
0.000000
 10
510.251394
 20
417.262339
 30
0.000000
 10
510.504168
 20
417.194608
 30
0.000000
 10
510.723236
 20
417.067810
 30
0.000000
  0
SPLINE
  5
208
330
1F
100
AcDbEntity
  8
0
 62
     7
100
AcDbSpline
210
0.000000
220
0.000000
230
1.0
 70
     8
 71
     3
 72
     8
 73
     4
 42
0.0000000001
 43
0.0000000001
 44
0.0000000001
 12
0.000000
 22
0.000000
 32
0.000000
 13
0.000000
 23
0.000000
 33
0.000000
 40
0.000000
 40
0.000000
 40
0.000000
 40
0.000000
 40
1.000000
 40
1.000000
 40
1.000000
 40
1.000000
 10
510.723236
 20
417.067810
 30
0.000000
 10
510.942580
 20
416.941491
 30
0.000000
 10
511.127624
 20
416.756447
 30
0.000000
 10
511.253943
 20
416.537102
 30
0.000000
  0
SPLINE
  5
209
330
1F
100
AcDbEntity
  8
0
 62
     7
100
AcDbSpline
210
0.000000
220
0.000000
230
1.0
 70
     8
 71
     3
 72
     8
 73
     4
 42
0.0000000001
 43
0.0000000001
 44
0.0000000001
 12
0.000000
 22
0.000000
 32
0.000000
 13
0.000000
 23
0.000000
 33
0.000000
 40
0.000000
 40
0.000000
 40
0.000000
 40
0.000000
 40
1.000000
 40
1.000000
 40
1.000000
 40
1.000000
 10
511.253943
 20
416.537102
 30
0.000000
 10
511.380741
 20
416.318035
 30
0.000000
 10
511.448472
 20
416.065260
 30
0.000000
 10
511.448196
 20
415.812143
 30
0.000000
  0
SPLINE
  5
210
330
1F
100
AcDbEntity
  8
0
 62
     7
100
AcDbSpline
210
0.000000
220
0.000000
230
1.0
 70
     8
 71
     3
 72
     8
 73
     4
 42
0.0000000001
 43
0.0000000001
 44
0.0000000001
 12
0.000000
 22
0.000000
 32
0.000000
 13
0.000000
 23
0.000000
 33
0.000000
 40
0.000000
 40
0.000000
 40
0.000000
 40
0.000000
 40
1.000000
 40
1.000000
 40
1.000000
 40
1.000000
 10
511.448196
 20
415.812143
 30
0.000000
 10
511.448472
 20
415.559025
 30
0.000000
 10
511.380741
 20
415.306251
 30
0.000000
 10
511.253943
 20
415.087183
 30
0.000000
  0
SPLINE
  5
211
330
1F
100
AcDbEntity
  8
0
 62
     7
100
AcDbSpline
210
0.000000
220
0.000000
230
1.0
 70
     8
 71
     3
 72
     8
 73
     4
 42
0.0000000001
 43
0.0000000001
 44
0.0000000001
 12
0.000000
 22
0.000000
 32
0.000000
 13
0.000000
 23
0.000000
 33
0.000000
 40
0.000000
 40
0.000000
 40
0.000000
 40
0.000000
 40
1.000000
 40
1.000000
 40
1.000000
 40
1.000000
 10
511.253943
 20
415.087183
 30
0.000000
 10
511.127624
 20
414.867839
 30
0.000000
 10
510.942580
 20
414.682795
 30
0.000000
 10
510.723236
 20
414.556476
 30
0.000000
  0
SPLINE
  5
212
330
1F
100
AcDbEntity
  8
0
 62
     7
100
AcDbSpline
210
0.000000
220
0.000000
230
1.0
 70
     8
 71
     3
 72
     8
 73
     4
 42
0.0000000001
 43
0.0000000001
 44
0.0000000001
 12
0.000000
 22
0.000000
 32
0.000000
 13
0.000000
 23
0.000000
 33
0.000000
 40
0.000000
 40
0.000000
 40
0.000000
 40
0.000000
 40
1.000000
 40
1.000000
 40
1.000000
 40
1.000000
 10
510.723236
 20
414.556476
 30
0.000000
 10
510.504168
 20
414.429677
 30
0.000000
 10
510.251394
 20
414.361947
 30
0.000000
 10
509.998276
 20
414.362223
 30
0.000000
  0
SPLINE
  5
213
330
1F
100
AcDbEntity
  8
0
 62
     7
100
AcDbSpline
210
0.000000
220
0.000000
230
1.0
 70
     8
 71
     3
 72
     8
 73
     4
 42
0.0000000001
 43
0.0000000001
 44
0.0000000001
 12
0.000000
 22
0.000000
 32
0.000000
 13
0.000000
 23
0.000000
 33
0.000000
 40
0.000000
 40
0.000000
 40
0.000000
 40
0.000000
 40
1.000000
 40
1.000000
 40
1.000000
 40
1.000000
 10
509.998276
 20
414.362223
 30
0.000000
 10
509.745159
 20
414.361947
 30
0.000000
 10
509.492384
 20
414.429677
 30
0.000000
 10
509.273316
 20
414.556476
 30
0.000000
  0
SPLINE
  5
214
330
1F
100
AcDbEntity
  8
0
 62
     7
100
AcDbSpline
210
0.000000
220
0.000000
230
1.0
 70
     8
 71
     3
 72
     8
 73
     4
 42
0.0000000001
 43
0.0000000001
 44
0.0000000001
 12
0.000000
 22
0.000000
 32
0.000000
 13
0.000000
 23
0.000000
 33
0.000000
 40
0.000000
 40
0.000000
 40
0.000000
 40
0.000000
 40
1.000000
 40
1.000000
 40
1.000000
 40
1.000000
 10
509.273316
 20
414.556476
 30
0.000000
 10
509.053972
 20
414.682795
 30
0.000000
 10
508.868928
 20
414.867839
 30
0.000000
 10
508.742609
 20
415.087183
 30
0.000000
  0
SPLINE
  5
215
330
1F
100
AcDbEntity
  8
0
 62
     7
100
AcDbSpline
210
0.000000
220
0.000000
230
1.0
 70
     8
 71
     3
 72
     8
 73
     4
 42
0.0000000001
 43
0.0000000001
 44
0.0000000001
 12
0.000000
 22
0.000000
 32
0.000000
 13
0.000000
 23
0.000000
 33
0.000000
 40
0.000000
 40
0.000000
 40
0.000000
 40
0.000000
 40
1.000000
 40
1.000000
 40
1.000000
 40
1.000000
 10
508.742609
 20
415.087183
 30
0.000000
 10
508.615811
 20
415.306251
 30
0.000000
 10
508.548080
 20
415.559025
 30
0.000000
 10
508.548357
 20
415.812143
 30
0.000000
  0
SPLINE
  5
216
330
1F
100
AcDbEntity
  8
0
 62
     7
100
AcDbSpline
210
0.000000
220
0.000000
230
1.0
 70
     8
 71
     3
 72
     8
 73
     4
 42
0.0000000001
 43
0.0000000001
 44
0.0000000001
 12
0.000000
 22
0.000000
 32
0.000000
 13
0.000000
 23
0.000000
 33
0.000000
 40
0.000000
 40
0.000000
 40
0.000000
 40
0.000000
 40
1.000000
 40
1.000000
 40
1.000000
 40
1.000000
 10
559.648357
 20
415.837143
 30
0.000000
 10
559.648080
 20
416.090260
 30
0.000000
 10
559.715811
 20
416.343035
 30
0.000000
 10
559.842609
 20
416.562102
 30
0.000000
  0
SPLINE
  5
217
330
1F
100
AcDbEntity
  8
0
 62
     7
100
AcDbSpline
210
0.000000
220
0.000000
230
1.0
 70
     8
 71
     3
 72
     8
 73
     4
 42
0.0000000001
 43
0.0000000001
 44
0.0000000001
 12
0.000000
 22
0.000000
 32
0.000000
 13
0.000000
 23
0.000000
 33
0.000000
 40
0.000000
 40
0.000000
 40
0.000000
 40
0.000000
 40
1.000000
 40
1.000000
 40
1.000000
 40
1.000000
 10
559.842609
 20
416.562102
 30
0.000000
 10
559.968928
 20
416.781447
 30
0.000000
 10
560.153972
 20
416.966491
 30
0.000000
 10
560.373316
 20
417.092810
 30
0.000000
  0
SPLINE
  5
218
330
1F
100
AcDbEntity
  8
0
 62
     7
100
AcDbSpline
210
0.000000
220
0.000000
230
1.0
 70
     8
 71
     3
 72
     8
 73
     4
 42
0.0000000001
 43
0.0000000001
 44
0.0000000001
 12
0.000000
 22
0.000000
 32
0.000000
 13
0.000000
 23
0.000000
 33
0.000000
 40
0.000000
 40
0.000000
 40
0.000000
 40
0.000000
 40
1.000000
 40
1.000000
 40
1.000000
 40
1.000000
 10
560.373316
 20
417.092810
 30
0.000000
 10
560.592384
 20
417.219608
 30
0.000000
 10
560.845159
 20
417.287339
 30
0.000000
 10
561.098276
 20
417.287062
 30
0.000000
  0
SPLINE
  5
219
330
1F
100
AcDbEntity
  8
0
 62
     7
100
AcDbSpline
210
0.000000
220
0.000000
230
1.0
 70
     8
 71
     3
 72
     8
 73
     4
 42
0.0000000001
 43
0.0000000001
 44
0.0000000001
 12
0.000000
 22
0.000000
 32
0.000000
 13
0.000000
 23
0.000000
 33
0.000000
 40
0.000000
 40
0.000000
 40
0.000000
 40
0.000000
 40
1.000000
 40
1.000000
 40
1.000000
 40
1.000000
 10
561.098276
 20
417.287062
 30
0.000000
 10
561.351394
 20
417.287339
 30
0.000000
 10
561.604168
 20
417.219608
 30
0.000000
 10
561.823236
 20
417.092810
 30
0.000000
  0
SPLINE
  5
220
330
1F
100
AcDbEntity
  8
0
 62
     7
100
AcDbSpline
210
0.000000
220
0.000000
230
1.0
 70
     8
 71
     3
 72
     8
 73
     4
 42
0.0000000001
 43
0.0000000001
 44
0.0000000001
 12
0.000000
 22
0.000000
 32
0.000000
 13
0.000000
 23
0.000000
 33
0.000000
 40
0.000000
 40
0.000000
 40
0.000000
 40
0.000000
 40
1.000000
 40
1.000000
 40
1.000000
 40
1.000000
 10
561.823236
 20
417.092810
 30
0.000000
 10
562.042580
 20
416.966491
 30
0.000000
 10
562.227624
 20
416.781447
 30
0.000000
 10
562.353943
 20
416.562102
 30
0.000000
  0
SPLINE
  5
221
330
1F
100
AcDbEntity
  8
0
 62
     7
100
AcDbSpline
210
0.000000
220
0.000000
230
1.0
 70
     8
 71
     3
 72
     8
 73
     4
 42
0.0000000001
 43
0.0000000001
 44
0.0000000001
 12
0.000000
 22
0.000000
 32
0.000000
 13
0.000000
 23
0.000000
 33
0.000000
 40
0.000000
 40
0.000000
 40
0.000000
 40
0.000000
 40
1.000000
 40
1.000000
 40
1.000000
 40
1.000000
 10
562.353943
 20
416.562102
 30
0.000000
 10
562.480741
 20
416.343035
 30
0.000000
 10
562.548472
 20
416.090260
 30
0.000000
 10
562.548196
 20
415.837143
 30
0.000000
  0
SPLINE
  5
222
330
1F
100
AcDbEntity
  8
0
 62
     7
100
AcDbSpline
210
0.000000
220
0.000000
230
1.0
 70
     8
 71
     3
 72
     8
 73
     4
 42
0.0000000001
 43
0.0000000001
 44
0.0000000001
 12
0.000000
 22
0.000000
 32
0.000000
 13
0.000000
 23
0.000000
 33
0.000000
 40
0.000000
 40
0.000000
 40
0.000000
 40
0.000000
 40
1.000000
 40
1.000000
 40
1.000000
 40
1.000000
 10
562.548196
 20
415.837143
 30
0.000000
 10
562.548472
 20
415.584025
 30
0.000000
 10
562.480741
 20
415.331251
 30
0.000000
 10
562.353943
 20
415.112183
 30
0.000000
  0
SPLINE
  5
223
330
1F
100
AcDbEntity
  8
0
 62
     7
100
AcDbSpline
210
0.000000
220
0.000000
230
1.0
 70
     8
 71
     3
 72
     8
 73
     4
 42
0.0000000001
 43
0.0000000001
 44
0.0000000001
 12
0.000000
 22
0.000000
 32
0.000000
 13
0.000000
 23
0.000000
 33
0.000000
 40
0.000000
 40
0.000000
 40
0.000000
 40
0.000000
 40
1.000000
 40
1.000000
 40
1.000000
 40
1.000000
 10
562.353943
 20
415.112183
 30
0.000000
 10
562.227624
 20
414.892839
 30
0.000000
 10
562.042580
 20
414.707795
 30
0.000000
 10
561.823236
 20
414.581476
 30
0.000000
  0
SPLINE
  5
224
330
1F
100
AcDbEntity
  8
0
 62
     7
100
AcDbSpline
210
0.000000
220
0.000000
230
1.0
 70
     8
 71
     3
 72
     8
 73
     4
 42
0.0000000001
 43
0.0000000001
 44
0.0000000001
 12
0.000000
 22
0.000000
 32
0.000000
 13
0.000000
 23
0.000000
 33
0.000000
 40
0.000000
 40
0.000000
 40
0.000000
 40
0.000000
 40
1.000000
 40
1.000000
 40
1.000000
 40
1.000000
 10
561.823236
 20
414.581476
 30
0.000000
 10
561.604168
 20
414.454677
 30
0.000000
 10
561.351394
 20
414.386947
 30
0.000000
 10
561.098276
 20
414.387223
 30
0.000000
  0
SPLINE
  5
225
330
1F
100
AcDbEntity
  8
0
 62
     7
100
AcDbSpline
210
0.000000
220
0.000000
230
1.0
 70
     8
 71
     3
 72
     8
 73
     4
 42
0.0000000001
 43
0.0000000001
 44
0.0000000001
 12
0.000000
 22
0.000000
 32
0.000000
 13
0.000000
 23
0.000000
 33
0.000000
 40
0.000000
 40
0.000000
 40
0.000000
 40
0.000000
 40
1.000000
 40
1.000000
 40
1.000000
 40
1.000000
 10
561.098276
 20
414.387223
 30
0.000000
 10
560.845159
 20
414.386947
 30
0.000000
 10
560.592384
 20
414.454677
 30
0.000000
 10
560.373316
 20
414.581476
 30
0.000000
  0
SPLINE
  5
226
330
1F
100
AcDbEntity
  8
0
 62
     7
100
AcDbSpline
210
0.000000
220
0.000000
230
1.0
 70
     8
 71
     3
 72
     8
 73
     4
 42
0.0000000001
 43
0.0000000001
 44
0.0000000001
 12
0.000000
 22
0.000000
 32
0.000000
 13
0.000000
 23
0.000000
 33
0.000000
 40
0.000000
 40
0.000000
 40
0.000000
 40
0.000000
 40
1.000000
 40
1.000000
 40
1.000000
 40
1.000000
 10
560.373316
 20
414.581476
 30
0.000000
 10
560.153972
 20
414.707795
 30
0.000000
 10
559.968928
 20
414.892839
 30
0.000000
 10
559.842609
 20
415.112183
 30
0.000000
  0
SPLINE
  5
227
330
1F
100
AcDbEntity
  8
0
 62
     7
100
AcDbSpline
210
0.000000
220
0.000000
230
1.0
 70
     8
 71
     3
 72
     8
 73
     4
 42
0.0000000001
 43
0.0000000001
 44
0.0000000001
 12
0.000000
 22
0.000000
 32
0.000000
 13
0.000000
 23
0.000000
 33
0.000000
 40
0.000000
 40
0.000000
 40
0.000000
 40
0.000000
 40
1.000000
 40
1.000000
 40
1.000000
 40
1.000000
 10
559.842609
 20
415.112183
 30
0.000000
 10
559.715811
 20
415.331251
 30
0.000000
 10
559.648080
 20
415.584025
 30
0.000000
 10
559.648357
 20
415.837143
 30
0.000000
  0
LINE
  5
228
330
1F
100
AcDbEntity
  8
0
  62
3
100
AcDbLine
 10
508.568140
 20
486.351684
 30
0.000000
 11
562.568168
 21
486.351684
 31
0.000000
  0
LINE
  5
229
330
1F
100
AcDbEntity
  8
0
  62
3
100
AcDbLine
 10
562.568168
 20
486.351684
 30
0.000000
 11
562.568168
 21
414.351648
 31
0.000000
  0
LINE
  5
230
330
1F
100
AcDbEntity
  8
0
  62
3
100
AcDbLine
 10
562.568168
 20
414.351648
 30
0.000000
 11
508.568140
 21
414.351648
 31
0.000000
  0
LINE
  5
231
330
1F
100
AcDbEntity
  8
0
  62
3
100
AcDbLine
 10
508.568140
 20
414.351648
 30
0.000000
 11
508.568140
 21
486.351684
 31
0.000000
  0
SPLINE
  5
232
330
1F
100
AcDbEntity
  8
0
 62
     7
100
AcDbSpline
210
0.000000
220
0.000000
230
1.0
 70
     8
 71
     3
 72
     8
 73
     4
 42
0.0000000001
 43
0.0000000001
 44
0.0000000001
 12
0.000000
 22
0.000000
 32
0.000000
 13
0.000000
 23
0.000000
 33
0.000000
 40
0.000000
 40
0.000000
 40
0.000000
 40
0.000000
 40
1.000000
 40
1.000000
 40
1.000000
 40
1.000000
 10
568.684046
 20
461.141003
 30
0.000000
 10
568.862835
 20
460.961824
 30
0.000000
 10
569.089468
 20
460.830977
 30
0.000000
 10
569.334036
 20
460.765732
 30
0.000000
  0
SPLINE
  5
233
330
1F
100
AcDbEntity
  8
0
 62
     7
100
AcDbSpline
210
0.000000
220
0.000000
230
1.0
 70
     8
 71
     3
 72
     8
 73
     4
 42
0.0000000001
 43
0.0000000001
 44
0.0000000001
 12
0.000000
 22
0.000000
 32
0.000000
 13
0.000000
 23
0.000000
 33
0.000000
 40
0.000000
 40
0.000000
 40
0.000000
 40
0.000000
 40
1.000000
 40
1.000000
 40
1.000000
 40
1.000000
 10
569.334036
 20
460.765732
 30
0.000000
 10
569.578460
 20
460.699952
 30
0.000000
 10
569.840155
 20
460.699952
 30
0.000000
 10
570.084579
 20
460.765732
 30
0.000000
  0
SPLINE
  5
234
330
1F
100
AcDbEntity
  8
0
 62
     7
100
AcDbSpline
210
0.000000
220
0.000000
230
1.0
 70
     8
 71
     3
 72
     8
 73
     4
 42
0.0000000001
 43
0.0000000001
 44
0.0000000001
 12
0.000000
 22
0.000000
 32
0.000000
 13
0.000000
 23
0.000000
 33
0.000000
 40
0.000000
 40
0.000000
 40
0.000000
 40
0.000000
 40
1.000000
 40
1.000000
 40
1.000000
 40
1.000000
 10
570.084579
 20
460.765732
 30
0.000000
 10
570.329147
 20
460.830977
 30
0.000000
 10
570.555780
 20
460.961824
 30
0.000000
 10
570.734568
 20
461.141003
 30
0.000000
  0
SPLINE
  5
235
330
1F
100
AcDbEntity
  8
0
 62
     7
100
AcDbSpline
210
0.000000
220
0.000000
230
1.0
 70
     8
 71
     3
 72
     8
 73
     4
 42
0.0000000001
 43
0.0000000001
 44
0.0000000001
 12
0.000000
 22
0.000000
 32
0.000000
 13
0.000000
 23
0.000000
 33
0.000000
 40
0.000000
 40
0.000000
 40
0.000000
 40
0.000000
 40
1.000000
 40
1.000000
 40
1.000000
 40
1.000000
 10
570.734568
 20
461.141003
 30
0.000000
 10
570.913747
 20
461.319792
 30
0.000000
 10
571.044594
 20
461.546425
 30
0.000000
 10
571.109840
 20
461.790993
 30
0.000000
  0
SPLINE
  5
236
330
1F
100
AcDbEntity
  8
0
 62
     7
100
AcDbSpline
210
0.000000
220
0.000000
230
1.0
 70
     8
 71
     3
 72
     8
 73
     4
 42
0.0000000001
 43
0.0000000001
 44
0.0000000001
 12
0.000000
 22
0.000000
 32
0.000000
 13
0.000000
 23
0.000000
 33
0.000000
 40
0.000000
 40
0.000000
 40
0.000000
 40
0.000000
 40
1.000000
 40
1.000000
 40
1.000000
 40
1.000000
 10
571.109840
 20
461.790993
 30
0.000000
 10
571.175619
 20
462.035417
 30
0.000000
 10
571.175619
 20
462.297111
 30
0.000000
 10
571.109840
 20
462.541536
 30
0.000000
  0
SPLINE
  5
237
330
1F
100
AcDbEntity
  8
0
 62
     7
100
AcDbSpline
210
0.000000
220
0.000000
230
1.0
 70
     8
 71
     3
 72
     8
 73
     4
 42
0.0000000001
 43
0.0000000001
 44
0.0000000001
 12
0.000000
 22
0.000000
 32
0.000000
 13
0.000000
 23
0.000000
 33
0.000000
 40
0.000000
 40
0.000000
 40
0.000000
 40
0.000000
 40
1.000000
 40
1.000000
 40
1.000000
 40
1.000000
 10
571.109840
 20
462.541536
 30
0.000000
 10
571.044594
 20
462.786103
 30
0.000000
 10
570.913747
 20
463.012737
 30
0.000000
 10
570.734568
 20
463.191525
 30
0.000000
  0
SPLINE
  5
238
330
1F
100
AcDbEntity
  8
0
 62
     7
100
AcDbSpline
210
0.000000
220
0.000000
230
1.0
 70
     8
 71
     3
 72
     8
 73
     4
 42
0.0000000001
 43
0.0000000001
 44
0.0000000001
 12
0.000000
 22
0.000000
 32
0.000000
 13
0.000000
 23
0.000000
 33
0.000000
 40
0.000000
 40
0.000000
 40
0.000000
 40
0.000000
 40
1.000000
 40
1.000000
 40
1.000000
 40
1.000000
 10
570.734568
 20
463.191525
 30
0.000000
 10
570.555780
 20
463.370704
 30
0.000000
 10
570.329147
 20
463.501551
 30
0.000000
 10
570.084579
 20
463.566797
 30
0.000000
  0
SPLINE
  5
239
330
1F
100
AcDbEntity
  8
0
 62
     7
100
AcDbSpline
210
0.000000
220
0.000000
230
1.0
 70
     8
 71
     3
 72
     8
 73
     4
 42
0.0000000001
 43
0.0000000001
 44
0.0000000001
 12
0.000000
 22
0.000000
 32
0.000000
 13
0.000000
 23
0.000000
 33
0.000000
 40
0.000000
 40
0.000000
 40
0.000000
 40
0.000000
 40
1.000000
 40
1.000000
 40
1.000000
 40
1.000000
 10
570.084579
 20
463.566797
 30
0.000000
 10
569.840155
 20
463.632576
 30
0.000000
 10
569.578460
 20
463.632576
 30
0.000000
 10
569.334036
 20
463.566797
 30
0.000000
  0
SPLINE
  5
240
330
1F
100
AcDbEntity
  8
0
 62
     7
100
AcDbSpline
210
0.000000
220
0.000000
230
1.0
 70
     8
 71
     3
 72
     8
 73
     4
 42
0.0000000001
 43
0.0000000001
 44
0.0000000001
 12
0.000000
 22
0.000000
 32
0.000000
 13
0.000000
 23
0.000000
 33
0.000000
 40
0.000000
 40
0.000000
 40
0.000000
 40
0.000000
 40
1.000000
 40
1.000000
 40
1.000000
 40
1.000000
 10
569.334036
 20
463.566797
 30
0.000000
 10
569.089468
 20
463.501551
 30
0.000000
 10
568.862835
 20
463.370704
 30
0.000000
 10
568.684046
 20
463.191525
 30
0.000000
  0
SPLINE
  5
241
330
1F
100
AcDbEntity
  8
0
 62
     7
100
AcDbSpline
210
0.000000
220
0.000000
230
1.0
 70
     8
 71
     3
 72
     8
 73
     4
 42
0.0000000001
 43
0.0000000001
 44
0.0000000001
 12
0.000000
 22
0.000000
 32
0.000000
 13
0.000000
 23
0.000000
 33
0.000000
 40
0.000000
 40
0.000000
 40
0.000000
 40
0.000000
 40
1.000000
 40
1.000000
 40
1.000000
 40
1.000000
 10
568.684046
 20
463.191525
 30
0.000000
 10
568.504868
 20
463.012737
 30
0.000000
 10
568.374020
 20
462.786103
 30
0.000000
 10
568.308775
 20
462.541536
 30
0.000000
  0
SPLINE
  5
242
330
1F
100
AcDbEntity
  8
0
 62
     7
100
AcDbSpline
210
0.000000
220
0.000000
230
1.0
 70
     8
 71
     3
 72
     8
 73
     4
 42
0.0000000001
 43
0.0000000001
 44
0.0000000001
 12
0.000000
 22
0.000000
 32
0.000000
 13
0.000000
 23
0.000000
 33
0.000000
 40
0.000000
 40
0.000000
 40
0.000000
 40
0.000000
 40
1.000000
 40
1.000000
 40
1.000000
 40
1.000000
 10
568.308775
 20
462.541536
 30
0.000000
 10
568.242996
 20
462.297111
 30
0.000000
 10
568.242996
 20
462.035417
 30
0.000000
 10
568.308775
 20
461.790993
 30
0.000000
  0
SPLINE
  5
243
330
1F
100
AcDbEntity
  8
0
 62
     7
100
AcDbSpline
210
0.000000
220
0.000000
230
1.0
 70
     8
 71
     3
 72
     8
 73
     4
 42
0.0000000001
 43
0.0000000001
 44
0.0000000001
 12
0.000000
 22
0.000000
 32
0.000000
 13
0.000000
 23
0.000000
 33
0.000000
 40
0.000000
 40
0.000000
 40
0.000000
 40
0.000000
 40
1.000000
 40
1.000000
 40
1.000000
 40
1.000000
 10
568.308775
 20
461.790993
 30
0.000000
 10
568.374020
 20
461.546425
 30
0.000000
 10
568.504868
 20
461.319792
 30
0.000000
 10
568.684046
 20
461.141003
 30
0.000000
  0
LINE
  5
244
330
1F
100
AcDbEntity
  8
0
  62
7
100
AcDbLine
 10
566.624589
 20
475.213253
 30
0.000000
 11
572.824578
 21
475.213253
 31
0.000000
  0
LINE
  5
245
330
1F
100
AcDbEntity
  8
0
  62
7
100
AcDbLine
 10
572.824578
 20
475.213253
 30
0.000000
 11
572.824578
 21
471.813242
 31
0.000000
  0
LINE
  5
246
330
1F
100
AcDbEntity
  8
0
  62
7
100
AcDbLine
 10
572.824578
 20
471.813242
 30
0.000000
 11
566.624589
 21
471.813242
 31
0.000000
  0
LINE
  5
247
330
1F
100
AcDbEntity
  8
0
  62
7
100
AcDbLine
 10
566.624589
 20
471.813242
 30
0.000000
 11
566.624589
 21
475.213253
 31
0.000000
  0
LINE
  5
248
330
1F
100
AcDbEntity
  8
0
  62
7
100
AcDbLine
 10
566.624589
 20
475.213253
 30
0.000000
 11
572.824578
 21
475.213253
 31
0.000000
  0
LINE
  5
249
330
1F
100
AcDbEntity
  8
0
  62
7
100
AcDbLine
 10
572.824578
 20
475.213253
 30
0.000000
 11
572.824578
 21
471.813242
 31
0.000000
  0
LINE
  5
250
330
1F
100
AcDbEntity
  8
0
  62
7
100
AcDbLine
 10
572.824578
 20
471.813242
 30
0.000000
 11
566.624589
 21
471.813242
 31
0.000000
  0
LINE
  5
251
330
1F
100
AcDbEntity
  8
0
  62
7
100
AcDbLine
 10
566.624589
 20
471.813242
 30
0.000000
 11
566.624589
 21
475.213253
 31
0.000000
  0
SPLINE
  5
252
330
1F
100
AcDbEntity
  8
0
 62
     7
100
AcDbSpline
210
0.000000
220
0.000000
230
1.0
 70
     8
 71
     3
 72
     8
 73
     4
 42
0.0000000001
 43
0.0000000001
 44
0.0000000001
 12
0.000000
 22
0.000000
 32
0.000000
 13
0.000000
 23
0.000000
 33
0.000000
 40
0.000000
 40
0.000000
 40
0.000000
 40
0.000000
 40
1.000000
 40
1.000000
 40
1.000000
 40
1.000000
 10
568.684046
 20
438.441003
 30
0.000000
 10
568.862835
 20
438.261824
 30
0.000000
 10
569.089468
 20
438.130977
 30
0.000000
 10
569.334036
 20
438.065732
 30
0.000000
  0
SPLINE
  5
253
330
1F
100
AcDbEntity
  8
0
 62
     7
100
AcDbSpline
210
0.000000
220
0.000000
230
1.0
 70
     8
 71
     3
 72
     8
 73
     4
 42
0.0000000001
 43
0.0000000001
 44
0.0000000001
 12
0.000000
 22
0.000000
 32
0.000000
 13
0.000000
 23
0.000000
 33
0.000000
 40
0.000000
 40
0.000000
 40
0.000000
 40
0.000000
 40
1.000000
 40
1.000000
 40
1.000000
 40
1.000000
 10
569.334036
 20
438.065732
 30
0.000000
 10
569.578460
 20
437.999952
 30
0.000000
 10
569.840155
 20
437.999952
 30
0.000000
 10
570.084579
 20
438.065732
 30
0.000000
  0
SPLINE
  5
254
330
1F
100
AcDbEntity
  8
0
 62
     7
100
AcDbSpline
210
0.000000
220
0.000000
230
1.0
 70
     8
 71
     3
 72
     8
 73
     4
 42
0.0000000001
 43
0.0000000001
 44
0.0000000001
 12
0.000000
 22
0.000000
 32
0.000000
 13
0.000000
 23
0.000000
 33
0.000000
 40
0.000000
 40
0.000000
 40
0.000000
 40
0.000000
 40
1.000000
 40
1.000000
 40
1.000000
 40
1.000000
 10
570.084579
 20
438.065732
 30
0.000000
 10
570.329147
 20
438.130977
 30
0.000000
 10
570.555780
 20
438.261824
 30
0.000000
 10
570.734568
 20
438.441003
 30
0.000000
  0
SPLINE
  5
255
330
1F
100
AcDbEntity
  8
0
 62
     7
100
AcDbSpline
210
0.000000
220
0.000000
230
1.0
 70
     8
 71
     3
 72
     8
 73
     4
 42
0.0000000001
 43
0.0000000001
 44
0.0000000001
 12
0.000000
 22
0.000000
 32
0.000000
 13
0.000000
 23
0.000000
 33
0.000000
 40
0.000000
 40
0.000000
 40
0.000000
 40
0.000000
 40
1.000000
 40
1.000000
 40
1.000000
 40
1.000000
 10
570.734568
 20
438.441003
 30
0.000000
 10
570.913747
 20
438.619792
 30
0.000000
 10
571.044594
 20
438.846425
 30
0.000000
 10
571.109840
 20
439.090993
 30
0.000000
  0
SPLINE
  5
256
330
1F
100
AcDbEntity
  8
0
 62
     7
100
AcDbSpline
210
0.000000
220
0.000000
230
1.0
 70
     8
 71
     3
 72
     8
 73
     4
 42
0.0000000001
 43
0.0000000001
 44
0.0000000001
 12
0.000000
 22
0.000000
 32
0.000000
 13
0.000000
 23
0.000000
 33
0.000000
 40
0.000000
 40
0.000000
 40
0.000000
 40
0.000000
 40
1.000000
 40
1.000000
 40
1.000000
 40
1.000000
 10
571.109840
 20
439.090993
 30
0.000000
 10
571.175619
 20
439.335417
 30
0.000000
 10
571.175619
 20
439.597111
 30
0.000000
 10
571.109840
 20
439.841536
 30
0.000000
  0
SPLINE
  5
257
330
1F
100
AcDbEntity
  8
0
 62
     7
100
AcDbSpline
210
0.000000
220
0.000000
230
1.0
 70
     8
 71
     3
 72
     8
 73
     4
 42
0.0000000001
 43
0.0000000001
 44
0.0000000001
 12
0.000000
 22
0.000000
 32
0.000000
 13
0.000000
 23
0.000000
 33
0.000000
 40
0.000000
 40
0.000000
 40
0.000000
 40
0.000000
 40
1.000000
 40
1.000000
 40
1.000000
 40
1.000000
 10
571.109840
 20
439.841536
 30
0.000000
 10
571.044594
 20
440.086103
 30
0.000000
 10
570.913747
 20
440.312737
 30
0.000000
 10
570.734568
 20
440.491525
 30
0.000000
  0
SPLINE
  5
258
330
1F
100
AcDbEntity
  8
0
 62
     7
100
AcDbSpline
210
0.000000
220
0.000000
230
1.0
 70
     8
 71
     3
 72
     8
 73
     4
 42
0.0000000001
 43
0.0000000001
 44
0.0000000001
 12
0.000000
 22
0.000000
 32
0.000000
 13
0.000000
 23
0.000000
 33
0.000000
 40
0.000000
 40
0.000000
 40
0.000000
 40
0.000000
 40
1.000000
 40
1.000000
 40
1.000000
 40
1.000000
 10
570.734568
 20
440.491525
 30
0.000000
 10
570.555780
 20
440.670704
 30
0.000000
 10
570.329147
 20
440.801551
 30
0.000000
 10
570.084579
 20
440.866797
 30
0.000000
  0
SPLINE
  5
259
330
1F
100
AcDbEntity
  8
0
 62
     7
100
AcDbSpline
210
0.000000
220
0.000000
230
1.0
 70
     8
 71
     3
 72
     8
 73
     4
 42
0.0000000001
 43
0.0000000001
 44
0.0000000001
 12
0.000000
 22
0.000000
 32
0.000000
 13
0.000000
 23
0.000000
 33
0.000000
 40
0.000000
 40
0.000000
 40
0.000000
 40
0.000000
 40
1.000000
 40
1.000000
 40
1.000000
 40
1.000000
 10
570.084579
 20
440.866797
 30
0.000000
 10
569.840155
 20
440.932576
 30
0.000000
 10
569.578460
 20
440.932576
 30
0.000000
 10
569.334036
 20
440.866797
 30
0.000000
  0
SPLINE
  5
260
330
1F
100
AcDbEntity
  8
0
 62
     7
100
AcDbSpline
210
0.000000
220
0.000000
230
1.0
 70
     8
 71
     3
 72
     8
 73
     4
 42
0.0000000001
 43
0.0000000001
 44
0.0000000001
 12
0.000000
 22
0.000000
 32
0.000000
 13
0.000000
 23
0.000000
 33
0.000000
 40
0.000000
 40
0.000000
 40
0.000000
 40
0.000000
 40
1.000000
 40
1.000000
 40
1.000000
 40
1.000000
 10
569.334036
 20
440.866797
 30
0.000000
 10
569.089468
 20
440.801551
 30
0.000000
 10
568.862835
 20
440.670704
 30
0.000000
 10
568.684046
 20
440.491525
 30
0.000000
  0
SPLINE
  5
261
330
1F
100
AcDbEntity
  8
0
 62
     7
100
AcDbSpline
210
0.000000
220
0.000000
230
1.0
 70
     8
 71
     3
 72
     8
 73
     4
 42
0.0000000001
 43
0.0000000001
 44
0.0000000001
 12
0.000000
 22
0.000000
 32
0.000000
 13
0.000000
 23
0.000000
 33
0.000000
 40
0.000000
 40
0.000000
 40
0.000000
 40
0.000000
 40
1.000000
 40
1.000000
 40
1.000000
 40
1.000000
 10
568.684046
 20
440.491525
 30
0.000000
 10
568.504868
 20
440.312737
 30
0.000000
 10
568.374020
 20
440.086103
 30
0.000000
 10
568.308775
 20
439.841536
 30
0.000000
  0
SPLINE
  5
262
330
1F
100
AcDbEntity
  8
0
 62
     7
100
AcDbSpline
210
0.000000
220
0.000000
230
1.0
 70
     8
 71
     3
 72
     8
 73
     4
 42
0.0000000001
 43
0.0000000001
 44
0.0000000001
 12
0.000000
 22
0.000000
 32
0.000000
 13
0.000000
 23
0.000000
 33
0.000000
 40
0.000000
 40
0.000000
 40
0.000000
 40
0.000000
 40
1.000000
 40
1.000000
 40
1.000000
 40
1.000000
 10
568.308775
 20
439.841536
 30
0.000000
 10
568.242996
 20
439.597111
 30
0.000000
 10
568.242996
 20
439.335417
 30
0.000000
 10
568.308775
 20
439.090993
 30
0.000000
  0
SPLINE
  5
263
330
1F
100
AcDbEntity
  8
0
 62
     7
100
AcDbSpline
210
0.000000
220
0.000000
230
1.0
 70
     8
 71
     3
 72
     8
 73
     4
 42
0.0000000001
 43
0.0000000001
 44
0.0000000001
 12
0.000000
 22
0.000000
 32
0.000000
 13
0.000000
 23
0.000000
 33
0.000000
 40
0.000000
 40
0.000000
 40
0.000000
 40
0.000000
 40
1.000000
 40
1.000000
 40
1.000000
 40
1.000000
 10
568.308775
 20
439.090993
 30
0.000000
 10
568.374020
 20
438.846425
 30
0.000000
 10
568.504868
 20
438.619792
 30
0.000000
 10
568.684046
 20
438.441003
 30
0.000000
  0
LINE
  5
264
330
1F
100
AcDbEntity
  8
0
  62
7
100
AcDbLine
 10
566.624589
 20
426.416397
 30
0.000000
 11
572.824578
 21
426.416397
 31
0.000000
  0
LINE
  5
265
330
1F
100
AcDbEntity
  8
0
  62
7
100
AcDbLine
 10
572.824578
 20
426.416397
 30
0.000000
 11
572.824578
 21
429.816408
 31
0.000000
  0
LINE
  5
266
330
1F
100
AcDbEntity
  8
0
  62
7
100
AcDbLine
 10
572.824578
 20
429.816408
 30
0.000000
 11
566.624589
 21
429.816408
 31
0.000000
  0
LINE
  5
267
330
1F
100
AcDbEntity
  8
0
  62
7
100
AcDbLine
 10
566.624589
 20
429.816408
 30
0.000000
 11
566.624589
 21
426.416397
 31
0.000000
  0
LINE
  5
268
330
1F
100
AcDbEntity
  8
0
  62
7
100
AcDbLine
 10
566.624589
 20
426.416397
 30
0.000000
 11
572.824578
 21
426.416397
 31
0.000000
  0
LINE
  5
269
330
1F
100
AcDbEntity
  8
0
  62
7
100
AcDbLine
 10
572.824578
 20
426.416397
 30
0.000000
 11
572.824578
 21
429.816408
 31
0.000000
  0
LINE
  5
270
330
1F
100
AcDbEntity
  8
0
  62
7
100
AcDbLine
 10
572.824578
 20
429.816408
 30
0.000000
 11
566.624589
 21
429.816408
 31
0.000000
  0
LINE
  5
271
330
1F
100
AcDbEntity
  8
0
  62
7
100
AcDbLine
 10
566.624589
 20
429.816408
 30
0.000000
 11
566.624589
 21
426.416397
 31
0.000000
  0
SPLINE
  5
272
330
1F
100
AcDbEntity
  8
0
 62
     7
100
AcDbSpline
210
0.000000
220
0.000000
230
1.0
 70
     8
 71
     3
 72
     8
 73
     4
 42
0.0000000001
 43
0.0000000001
 44
0.0000000001
 12
0.000000
 22
0.000000
 32
0.000000
 13
0.000000
 23
0.000000
 33
0.000000
 40
0.000000
 40
0.000000
 40
0.000000
 40
0.000000
 40
1.000000
 40
1.000000
 40
1.000000
 40
1.000000
 10
499.684046
 20
461.141003
 30
0.000000
 10
499.862835
 20
460.961824
 30
0.000000
 10
500.089468
 20
460.830977
 30
0.000000
 10
500.334036
 20
460.765732
 30
0.000000
  0
SPLINE
  5
273
330
1F
100
AcDbEntity
  8
0
 62
     7
100
AcDbSpline
210
0.000000
220
0.000000
230
1.0
 70
     8
 71
     3
 72
     8
 73
     4
 42
0.0000000001
 43
0.0000000001
 44
0.0000000001
 12
0.000000
 22
0.000000
 32
0.000000
 13
0.000000
 23
0.000000
 33
0.000000
 40
0.000000
 40
0.000000
 40
0.000000
 40
0.000000
 40
1.000000
 40
1.000000
 40
1.000000
 40
1.000000
 10
500.334036
 20
460.765732
 30
0.000000
 10
500.578460
 20
460.699952
 30
0.000000
 10
500.840155
 20
460.699952
 30
0.000000
 10
501.084579
 20
460.765732
 30
0.000000
  0
SPLINE
  5
274
330
1F
100
AcDbEntity
  8
0
 62
     7
100
AcDbSpline
210
0.000000
220
0.000000
230
1.0
 70
     8
 71
     3
 72
     8
 73
     4
 42
0.0000000001
 43
0.0000000001
 44
0.0000000001
 12
0.000000
 22
0.000000
 32
0.000000
 13
0.000000
 23
0.000000
 33
0.000000
 40
0.000000
 40
0.000000
 40
0.000000
 40
0.000000
 40
1.000000
 40
1.000000
 40
1.000000
 40
1.000000
 10
501.084579
 20
460.765732
 30
0.000000
 10
501.329147
 20
460.830977
 30
0.000000
 10
501.555780
 20
460.961824
 30
0.000000
 10
501.734568
 20
461.141003
 30
0.000000
  0
SPLINE
  5
275
330
1F
100
AcDbEntity
  8
0
 62
     7
100
AcDbSpline
210
0.000000
220
0.000000
230
1.0
 70
     8
 71
     3
 72
     8
 73
     4
 42
0.0000000001
 43
0.0000000001
 44
0.0000000001
 12
0.000000
 22
0.000000
 32
0.000000
 13
0.000000
 23
0.000000
 33
0.000000
 40
0.000000
 40
0.000000
 40
0.000000
 40
0.000000
 40
1.000000
 40
1.000000
 40
1.000000
 40
1.000000
 10
501.734568
 20
461.141003
 30
0.000000
 10
501.913747
 20
461.319792
 30
0.000000
 10
502.044594
 20
461.546425
 30
0.000000
 10
502.109840
 20
461.790993
 30
0.000000
  0
SPLINE
  5
276
330
1F
100
AcDbEntity
  8
0
 62
     7
100
AcDbSpline
210
0.000000
220
0.000000
230
1.0
 70
     8
 71
     3
 72
     8
 73
     4
 42
0.0000000001
 43
0.0000000001
 44
0.0000000001
 12
0.000000
 22
0.000000
 32
0.000000
 13
0.000000
 23
0.000000
 33
0.000000
 40
0.000000
 40
0.000000
 40
0.000000
 40
0.000000
 40
1.000000
 40
1.000000
 40
1.000000
 40
1.000000
 10
502.109840
 20
461.790993
 30
0.000000
 10
502.175619
 20
462.035417
 30
0.000000
 10
502.175619
 20
462.297111
 30
0.000000
 10
502.109840
 20
462.541536
 30
0.000000
  0
SPLINE
  5
277
330
1F
100
AcDbEntity
  8
0
 62
     7
100
AcDbSpline
210
0.000000
220
0.000000
230
1.0
 70
     8
 71
     3
 72
     8
 73
     4
 42
0.0000000001
 43
0.0000000001
 44
0.0000000001
 12
0.000000
 22
0.000000
 32
0.000000
 13
0.000000
 23
0.000000
 33
0.000000
 40
0.000000
 40
0.000000
 40
0.000000
 40
0.000000
 40
1.000000
 40
1.000000
 40
1.000000
 40
1.000000
 10
502.109840
 20
462.541536
 30
0.000000
 10
502.044594
 20
462.786103
 30
0.000000
 10
501.913747
 20
463.012737
 30
0.000000
 10
501.734568
 20
463.191525
 30
0.000000
  0
SPLINE
  5
278
330
1F
100
AcDbEntity
  8
0
 62
     7
100
AcDbSpline
210
0.000000
220
0.000000
230
1.0
 70
     8
 71
     3
 72
     8
 73
     4
 42
0.0000000001
 43
0.0000000001
 44
0.0000000001
 12
0.000000
 22
0.000000
 32
0.000000
 13
0.000000
 23
0.000000
 33
0.000000
 40
0.000000
 40
0.000000
 40
0.000000
 40
0.000000
 40
1.000000
 40
1.000000
 40
1.000000
 40
1.000000
 10
501.734568
 20
463.191525
 30
0.000000
 10
501.555780
 20
463.370704
 30
0.000000
 10
501.329147
 20
463.501551
 30
0.000000
 10
501.084579
 20
463.566797
 30
0.000000
  0
SPLINE
  5
279
330
1F
100
AcDbEntity
  8
0
 62
     7
100
AcDbSpline
210
0.000000
220
0.000000
230
1.0
 70
     8
 71
     3
 72
     8
 73
     4
 42
0.0000000001
 43
0.0000000001
 44
0.0000000001
 12
0.000000
 22
0.000000
 32
0.000000
 13
0.000000
 23
0.000000
 33
0.000000
 40
0.000000
 40
0.000000
 40
0.000000
 40
0.000000
 40
1.000000
 40
1.000000
 40
1.000000
 40
1.000000
 10
501.084579
 20
463.566797
 30
0.000000
 10
500.840155
 20
463.632576
 30
0.000000
 10
500.578460
 20
463.632576
 30
0.000000
 10
500.334036
 20
463.566797
 30
0.000000
  0
SPLINE
  5
280
330
1F
100
AcDbEntity
  8
0
 62
     7
100
AcDbSpline
210
0.000000
220
0.000000
230
1.0
 70
     8
 71
     3
 72
     8
 73
     4
 42
0.0000000001
 43
0.0000000001
 44
0.0000000001
 12
0.000000
 22
0.000000
 32
0.000000
 13
0.000000
 23
0.000000
 33
0.000000
 40
0.000000
 40
0.000000
 40
0.000000
 40
0.000000
 40
1.000000
 40
1.000000
 40
1.000000
 40
1.000000
 10
500.334036
 20
463.566797
 30
0.000000
 10
500.089468
 20
463.501551
 30
0.000000
 10
499.862835
 20
463.370704
 30
0.000000
 10
499.684046
 20
463.191525
 30
0.000000
  0
SPLINE
  5
281
330
1F
100
AcDbEntity
  8
0
 62
     7
100
AcDbSpline
210
0.000000
220
0.000000
230
1.0
 70
     8
 71
     3
 72
     8
 73
     4
 42
0.0000000001
 43
0.0000000001
 44
0.0000000001
 12
0.000000
 22
0.000000
 32
0.000000
 13
0.000000
 23
0.000000
 33
0.000000
 40
0.000000
 40
0.000000
 40
0.000000
 40
0.000000
 40
1.000000
 40
1.000000
 40
1.000000
 40
1.000000
 10
499.684046
 20
463.191525
 30
0.000000
 10
499.504868
 20
463.012737
 30
0.000000
 10
499.374020
 20
462.786103
 30
0.000000
 10
499.308775
 20
462.541536
 30
0.000000
  0
SPLINE
  5
282
330
1F
100
AcDbEntity
  8
0
 62
     7
100
AcDbSpline
210
0.000000
220
0.000000
230
1.0
 70
     8
 71
     3
 72
     8
 73
     4
 42
0.0000000001
 43
0.0000000001
 44
0.0000000001
 12
0.000000
 22
0.000000
 32
0.000000
 13
0.000000
 23
0.000000
 33
0.000000
 40
0.000000
 40
0.000000
 40
0.000000
 40
0.000000
 40
1.000000
 40
1.000000
 40
1.000000
 40
1.000000
 10
499.308775
 20
462.541536
 30
0.000000
 10
499.242996
 20
462.297111
 30
0.000000
 10
499.242996
 20
462.035417
 30
0.000000
 10
499.308775
 20
461.790993
 30
0.000000
  0
SPLINE
  5
283
330
1F
100
AcDbEntity
  8
0
 62
     7
100
AcDbSpline
210
0.000000
220
0.000000
230
1.0
 70
     8
 71
     3
 72
     8
 73
     4
 42
0.0000000001
 43
0.0000000001
 44
0.0000000001
 12
0.000000
 22
0.000000
 32
0.000000
 13
0.000000
 23
0.000000
 33
0.000000
 40
0.000000
 40
0.000000
 40
0.000000
 40
0.000000
 40
1.000000
 40
1.000000
 40
1.000000
 40
1.000000
 10
499.308775
 20
461.790993
 30
0.000000
 10
499.374020
 20
461.546425
 30
0.000000
 10
499.504868
 20
461.319792
 30
0.000000
 10
499.684046
 20
461.141003
 30
0.000000
  0
LINE
  5
284
330
1F
100
AcDbEntity
  8
0
  62
7
100
AcDbLine
 10
497.624589
 20
475.213253
 30
0.000000
 11
503.824578
 21
475.213253
 31
0.000000
  0
LINE
  5
285
330
1F
100
AcDbEntity
  8
0
  62
7
100
AcDbLine
 10
503.824578
 20
475.213253
 30
0.000000
 11
503.824578
 21
471.813242
 31
0.000000
  0
LINE
  5
286
330
1F
100
AcDbEntity
  8
0
  62
7
100
AcDbLine
 10
503.824578
 20
471.813242
 30
0.000000
 11
497.624589
 21
471.813242
 31
0.000000
  0
LINE
  5
287
330
1F
100
AcDbEntity
  8
0
  62
7
100
AcDbLine
 10
497.624589
 20
471.813242
 30
0.000000
 11
497.624589
 21
475.213253
 31
0.000000
  0
LINE
  5
288
330
1F
100
AcDbEntity
  8
0
  62
7
100
AcDbLine
 10
497.624589
 20
475.213253
 30
0.000000
 11
503.824578
 21
475.213253
 31
0.000000
  0
LINE
  5
289
330
1F
100
AcDbEntity
  8
0
  62
7
100
AcDbLine
 10
503.824578
 20
475.213253
 30
0.000000
 11
503.824578
 21
471.813242
 31
0.000000
  0
LINE
  5
290
330
1F
100
AcDbEntity
  8
0
  62
7
100
AcDbLine
 10
503.824578
 20
471.813242
 30
0.000000
 11
497.624589
 21
471.813242
 31
0.000000
  0
LINE
  5
291
330
1F
100
AcDbEntity
  8
0
  62
7
100
AcDbLine
 10
497.624589
 20
471.813242
 30
0.000000
 11
497.624589
 21
475.213253
 31
0.000000
  0
SPLINE
  5
292
330
1F
100
AcDbEntity
  8
0
 62
     7
100
AcDbSpline
210
0.000000
220
0.000000
230
1.0
 70
     8
 71
     3
 72
     8
 73
     4
 42
0.0000000001
 43
0.0000000001
 44
0.0000000001
 12
0.000000
 22
0.000000
 32
0.000000
 13
0.000000
 23
0.000000
 33
0.000000
 40
0.000000
 40
0.000000
 40
0.000000
 40
0.000000
 40
1.000000
 40
1.000000
 40
1.000000
 40
1.000000
 10
499.684046
 20
438.441003
 30
0.000000
 10
499.862835
 20
438.261824
 30
0.000000
 10
500.089468
 20
438.130977
 30
0.000000
 10
500.334036
 20
438.065732
 30
0.000000
  0
SPLINE
  5
293
330
1F
100
AcDbEntity
  8
0
 62
     7
100
AcDbSpline
210
0.000000
220
0.000000
230
1.0
 70
     8
 71
     3
 72
     8
 73
     4
 42
0.0000000001
 43
0.0000000001
 44
0.0000000001
 12
0.000000
 22
0.000000
 32
0.000000
 13
0.000000
 23
0.000000
 33
0.000000
 40
0.000000
 40
0.000000
 40
0.000000
 40
0.000000
 40
1.000000
 40
1.000000
 40
1.000000
 40
1.000000
 10
500.334036
 20
438.065732
 30
0.000000
 10
500.578460
 20
437.999952
 30
0.000000
 10
500.840155
 20
437.999952
 30
0.000000
 10
501.084579
 20
438.065732
 30
0.000000
  0
SPLINE
  5
294
330
1F
100
AcDbEntity
  8
0
 62
     7
100
AcDbSpline
210
0.000000
220
0.000000
230
1.0
 70
     8
 71
     3
 72
     8
 73
     4
 42
0.0000000001
 43
0.0000000001
 44
0.0000000001
 12
0.000000
 22
0.000000
 32
0.000000
 13
0.000000
 23
0.000000
 33
0.000000
 40
0.000000
 40
0.000000
 40
0.000000
 40
0.000000
 40
1.000000
 40
1.000000
 40
1.000000
 40
1.000000
 10
501.084579
 20
438.065732
 30
0.000000
 10
501.329147
 20
438.130977
 30
0.000000
 10
501.555780
 20
438.261824
 30
0.000000
 10
501.734568
 20
438.441003
 30
0.000000
  0
SPLINE
  5
295
330
1F
100
AcDbEntity
  8
0
 62
     7
100
AcDbSpline
210
0.000000
220
0.000000
230
1.0
 70
     8
 71
     3
 72
     8
 73
     4
 42
0.0000000001
 43
0.0000000001
 44
0.0000000001
 12
0.000000
 22
0.000000
 32
0.000000
 13
0.000000
 23
0.000000
 33
0.000000
 40
0.000000
 40
0.000000
 40
0.000000
 40
0.000000
 40
1.000000
 40
1.000000
 40
1.000000
 40
1.000000
 10
501.734568
 20
438.441003
 30
0.000000
 10
501.913747
 20
438.619792
 30
0.000000
 10
502.044594
 20
438.846425
 30
0.000000
 10
502.109840
 20
439.090993
 30
0.000000
  0
SPLINE
  5
296
330
1F
100
AcDbEntity
  8
0
 62
     7
100
AcDbSpline
210
0.000000
220
0.000000
230
1.0
 70
     8
 71
     3
 72
     8
 73
     4
 42
0.0000000001
 43
0.0000000001
 44
0.0000000001
 12
0.000000
 22
0.000000
 32
0.000000
 13
0.000000
 23
0.000000
 33
0.000000
 40
0.000000
 40
0.000000
 40
0.000000
 40
0.000000
 40
1.000000
 40
1.000000
 40
1.000000
 40
1.000000
 10
502.109840
 20
439.090993
 30
0.000000
 10
502.175619
 20
439.335417
 30
0.000000
 10
502.175619
 20
439.597111
 30
0.000000
 10
502.109840
 20
439.841536
 30
0.000000
  0
SPLINE
  5
297
330
1F
100
AcDbEntity
  8
0
 62
     7
100
AcDbSpline
210
0.000000
220
0.000000
230
1.0
 70
     8
 71
     3
 72
     8
 73
     4
 42
0.0000000001
 43
0.0000000001
 44
0.0000000001
 12
0.000000
 22
0.000000
 32
0.000000
 13
0.000000
 23
0.000000
 33
0.000000
 40
0.000000
 40
0.000000
 40
0.000000
 40
0.000000
 40
1.000000
 40
1.000000
 40
1.000000
 40
1.000000
 10
502.109840
 20
439.841536
 30
0.000000
 10
502.044594
 20
440.086103
 30
0.000000
 10
501.913747
 20
440.312737
 30
0.000000
 10
501.734568
 20
440.491525
 30
0.000000
  0
SPLINE
  5
298
330
1F
100
AcDbEntity
  8
0
 62
     7
100
AcDbSpline
210
0.000000
220
0.000000
230
1.0
 70
     8
 71
     3
 72
     8
 73
     4
 42
0.0000000001
 43
0.0000000001
 44
0.0000000001
 12
0.000000
 22
0.000000
 32
0.000000
 13
0.000000
 23
0.000000
 33
0.000000
 40
0.000000
 40
0.000000
 40
0.000000
 40
0.000000
 40
1.000000
 40
1.000000
 40
1.000000
 40
1.000000
 10
501.734568
 20
440.491525
 30
0.000000
 10
501.555780
 20
440.670704
 30
0.000000
 10
501.329147
 20
440.801551
 30
0.000000
 10
501.084579
 20
440.866797
 30
0.000000
  0
SPLINE
  5
299
330
1F
100
AcDbEntity
  8
0
 62
     7
100
AcDbSpline
210
0.000000
220
0.000000
230
1.0
 70
     8
 71
     3
 72
     8
 73
     4
 42
0.0000000001
 43
0.0000000001
 44
0.0000000001
 12
0.000000
 22
0.000000
 32
0.000000
 13
0.000000
 23
0.000000
 33
0.000000
 40
0.000000
 40
0.000000
 40
0.000000
 40
0.000000
 40
1.000000
 40
1.000000
 40
1.000000
 40
1.000000
 10
501.084579
 20
440.866797
 30
0.000000
 10
500.840155
 20
440.932576
 30
0.000000
 10
500.578460
 20
440.932576
 30
0.000000
 10
500.334036
 20
440.866797
 30
0.000000
  0
SPLINE
  5
300
330
1F
100
AcDbEntity
  8
0
 62
     7
100
AcDbSpline
210
0.000000
220
0.000000
230
1.0
 70
     8
 71
     3
 72
     8
 73
     4
 42
0.0000000001
 43
0.0000000001
 44
0.0000000001
 12
0.000000
 22
0.000000
 32
0.000000
 13
0.000000
 23
0.000000
 33
0.000000
 40
0.000000
 40
0.000000
 40
0.000000
 40
0.000000
 40
1.000000
 40
1.000000
 40
1.000000
 40
1.000000
 10
500.334036
 20
440.866797
 30
0.000000
 10
500.089468
 20
440.801551
 30
0.000000
 10
499.862835
 20
440.670704
 30
0.000000
 10
499.684046
 20
440.491525
 30
0.000000
  0
SPLINE
  5
301
330
1F
100
AcDbEntity
  8
0
 62
     7
100
AcDbSpline
210
0.000000
220
0.000000
230
1.0
 70
     8
 71
     3
 72
     8
 73
     4
 42
0.0000000001
 43
0.0000000001
 44
0.0000000001
 12
0.000000
 22
0.000000
 32
0.000000
 13
0.000000
 23
0.000000
 33
0.000000
 40
0.000000
 40
0.000000
 40
0.000000
 40
0.000000
 40
1.000000
 40
1.000000
 40
1.000000
 40
1.000000
 10
499.684046
 20
440.491525
 30
0.000000
 10
499.504868
 20
440.312737
 30
0.000000
 10
499.374020
 20
440.086103
 30
0.000000
 10
499.308775
 20
439.841536
 30
0.000000
  0
SPLINE
  5
302
330
1F
100
AcDbEntity
  8
0
 62
     7
100
AcDbSpline
210
0.000000
220
0.000000
230
1.0
 70
     8
 71
     3
 72
     8
 73
     4
 42
0.0000000001
 43
0.0000000001
 44
0.0000000001
 12
0.000000
 22
0.000000
 32
0.000000
 13
0.000000
 23
0.000000
 33
0.000000
 40
0.000000
 40
0.000000
 40
0.000000
 40
0.000000
 40
1.000000
 40
1.000000
 40
1.000000
 40
1.000000
 10
499.308775
 20
439.841536
 30
0.000000
 10
499.242996
 20
439.597111
 30
0.000000
 10
499.242996
 20
439.335417
 30
0.000000
 10
499.308775
 20
439.090993
 30
0.000000
  0
SPLINE
  5
303
330
1F
100
AcDbEntity
  8
0
 62
     7
100
AcDbSpline
210
0.000000
220
0.000000
230
1.0
 70
     8
 71
     3
 72
     8
 73
     4
 42
0.0000000001
 43
0.0000000001
 44
0.0000000001
 12
0.000000
 22
0.000000
 32
0.000000
 13
0.000000
 23
0.000000
 33
0.000000
 40
0.000000
 40
0.000000
 40
0.000000
 40
0.000000
 40
1.000000
 40
1.000000
 40
1.000000
 40
1.000000
 10
499.308775
 20
439.090993
 30
0.000000
 10
499.374020
 20
438.846425
 30
0.000000
 10
499.504868
 20
438.619792
 30
0.000000
 10
499.684046
 20
438.441003
 30
0.000000
  0
LINE
  5
304
330
1F
100
AcDbEntity
  8
0
  62
7
100
AcDbLine
 10
497.624589
 20
426.416397
 30
0.000000
 11
503.824578
 21
426.416397
 31
0.000000
  0
LINE
  5
305
330
1F
100
AcDbEntity
  8
0
  62
7
100
AcDbLine
 10
503.824578
 20
426.416397
 30
0.000000
 11
503.824578
 21
429.816408
 31
0.000000
  0
LINE
  5
306
330
1F
100
AcDbEntity
  8
0
  62
7
100
AcDbLine
 10
503.824578
 20
429.816408
 30
0.000000
 11
497.624589
 21
429.816408
 31
0.000000
  0
LINE
  5
307
330
1F
100
AcDbEntity
  8
0
  62
7
100
AcDbLine
 10
497.624589
 20
429.816408
 30
0.000000
 11
497.624589
 21
426.416397
 31
0.000000
  0
LINE
  5
308
330
1F
100
AcDbEntity
  8
0
  62
7
100
AcDbLine
 10
497.624589
 20
426.416397
 30
0.000000
 11
503.824578
 21
426.416397
 31
0.000000
  0
LINE
  5
309
330
1F
100
AcDbEntity
  8
0
  62
7
100
AcDbLine
 10
503.824578
 20
426.416397
 30
0.000000
 11
503.824578
 21
429.816408
 31
0.000000
  0
LINE
  5
310
330
1F
100
AcDbEntity
  8
0
  62
7
100
AcDbLine
 10
503.824578
 20
429.816408
 30
0.000000
 11
497.624589
 21
429.816408
 31
0.000000
  0
LINE
  5
311
330
1F
100
AcDbEntity
  8
0
  62
7
100
AcDbLine
 10
497.624589
 20
429.816408
 30
0.000000
 11
497.624589
 21
426.416397
 31
0.000000
  0
SPLINE
  5
312
330
1F
100
AcDbEntity
  8
0
 62
     7
100
AcDbSpline
210
0.000000
220
0.000000
230
1.0
 70
     8
 71
     3
 72
     8
 73
     4
 42
0.0000000001
 43
0.0000000001
 44
0.0000000001
 12
0.000000
 22
0.000000
 32
0.000000
 13
0.000000
 23
0.000000
 33
0.000000
 40
0.000000
 40
0.000000
 40
0.000000
 40
0.000000
 40
1.000000
 40
1.000000
 40
1.000000
 40
1.000000
 10
570.651046
 20
412.590338
 30
0.000000
 10
567.250954
 20
412.454053
 30
0.000000
 10
567.176050
 20
410.967263
 30
0.000000
 10
567.176050
 20
410.967263
 30
0.000000
  0
SPLINE
  5
313
330
1F
100
AcDbEntity
  8
0
 62
     7
100
AcDbSpline
210
0.000000
220
0.000000
230
1.0
 70
     8
 71
     3
 72
     8
 73
     4
 42
0.0000000001
 43
0.0000000001
 44
0.0000000001
 12
0.000000
 22
0.000000
 32
0.000000
 13
0.000000
 23
0.000000
 33
0.000000
 40
0.000000
 40
0.000000
 40
0.000000
 40
0.000000
 40
1.000000
 40
1.000000
 40
1.000000
 40
1.000000
 10
574.135601
 20
410.967263
 30
0.000000
 10
574.135601
 20
410.967263
 30
0.000000
 10
574.060695
 20
412.454053
 30
0.000000
 10
570.660603
 20
412.590338
 30
0.000000
  0
SPLINE
  5
314
330
1F
100
AcDbEntity
  8
0
 62
     7
100
AcDbSpline
210
0.000000
220
0.000000
230
1.0
 70
     8
 71
     3
 72
     8
 73
     4
 42
0.0000000001
 43
0.0000000001
 44
0.0000000001
 12
0.000000
 22
0.000000
 32
0.000000
 13
0.000000
 23
0.000000
 33
0.000000
 40
0.000000
 40
0.000000
 40
0.000000
 40
0.000000
 40
1.000000
 40
1.000000
 40
1.000000
 40
1.000000
 10
567.176050
 20
405.269263
 30
0.000000
 10
567.176050
 20
405.269263
 30
0.000000
 10
567.250954
 20
403.782473
 30
0.000000
 10
570.651047
 20
403.646188
 30
0.000000
  0
SPLINE
  5
315
330
1F
100
AcDbEntity
  8
0
 62
     7
100
AcDbSpline
210
0.000000
220
0.000000
230
1.0
 70
     8
 71
     3
 72
     8
 73
     4
 42
0.0000000001
 43
0.0000000001
 44
0.0000000001
 12
0.000000
 22
0.000000
 32
0.000000
 13
0.000000
 23
0.000000
 33
0.000000
 40
0.000000
 40
0.000000
 40
0.000000
 40
0.000000
 40
1.000000
 40
1.000000
 40
1.000000
 40
1.000000
 10
570.660603
 20
403.646188
 30
0.000000
 10
574.060696
 20
403.782473
 30
0.000000
 10
574.135601
 20
405.269263
 30
0.000000
 10
574.135601
 20
405.269263
 30
0.000000
  0
LINE
  5
316
330
1F
100
AcDbEntity
  8
0
  62
7
100
AcDbLine
 10
567.176050
 20
410.967263
 30
0.000000
 11
567.176050
 21
405.268743
 31
0.000000
  0
LINE
  5
317
330
1F
100
AcDbEntity
  8
0
  62
7
100
AcDbLine
 10
574.135873
 20
410.967263
 30
0.000000
 11
574.135873
 21
405.268743
 31
0.000000
  0
LINE
  5
318
330
1F
100
AcDbEntity
  8
0
  62
7
100
AcDbLine
 10
493.971020
 20
494.802890
 30
0.000000
 11
497.115957
 21
480.426033
 31
0.000000
  0
LINE
  5
319
330
1F
100
AcDbEntity
  8
0
  62
7
100
AcDbLine
 10
497.115957
 20
480.426033
 30
0.000000
 11
497.179317
 21
480.200560
 31
0.000000
  0
LINE
  5
320
330
1F
100
AcDbEntity
  8
0
  62
7
100
AcDbLine
 10
497.179317
 20
480.200560
 30
0.000000
 11
497.268600
 21
479.984040
 31
0.000000
  0
LINE
  5
321
330
1F
100
AcDbEntity
  8
0
  62
7
100
AcDbLine
 10
497.268600
 20
479.984040
 30
0.000000
 11
497.382583
 21
479.779442
 31
0.000000
  0
LINE
  5
322
330
1F
100
AcDbEntity
  8
0
  62
7
100
AcDbLine
 10
497.382583
 20
479.779442
 30
0.000000
 11
497.519702
 21
479.589571
 31
0.000000
  0
LINE
  5
323
330
1F
100
AcDbEntity
  8
0
  62
7
100
AcDbLine
 10
497.519702
 20
479.589571
 30
0.000000
 11
497.678078
 21
479.417032
 31
0.000000
  0
LINE
  5
324
330
1F
100
AcDbEntity
  8
0
  62
7
100
AcDbLine
 10
497.678078
 20
479.417032
 30
0.000000
 11
497.855537
 21
479.264191
 31
0.000000
  0
LINE
  5
325
330
1F
100
AcDbEntity
  8
0
  62
7
100
AcDbLine
 10
497.855537
 20
479.264191
 30
0.000000
 11
498.049648
 21
479.133143
 31
0.000000
  0
LINE
  5
326
330
1F
100
AcDbEntity
  8
0
  62
7
100
AcDbLine
 10
498.049648
 20
479.133143
 30
0.000000
 11
498.257747
 21
479.025685
 31
0.000000
  0
LINE
  5
327
330
1F
100
AcDbEntity
  8
0
  62
7
100
AcDbLine
 10
498.257747
 20
479.025685
 30
0.000000
 11
498.476982
 21
478.943291
 31
0.000000
  0
LINE
  5
328
330
1F
100
AcDbEntity
  8
0
  62
7
100
AcDbLine
 10
498.476982
 20
478.943291
 30
0.000000
 11
498.704345
 21
478.887091
 31
0.000000
  0
LINE
  5
329
330
1F
100
AcDbEntity
  8
0
  62
7
100
AcDbLine
 10
498.704345
 20
478.887091
 30
0.000000
 11
498.936719
 21
478.857856
 31
0.000000
  0
LINE
  5
330
330
1F
100
AcDbEntity
  8
0
  62
7
100
AcDbLine
 10
498.936719
 20
478.857856
 30
0.000000
 11
504.096783
 21
478.513852
 31
0.000000
  0
LINE
  5
331
330
1F
100
AcDbEntity
  8
0
  62
7
100
AcDbLine
 10
504.096783
 20
478.513852
 30
0.000000
 11
504.316328
 21
478.511294
 31
0.000000
  0
LINE
  5
332
330
1F
100
AcDbEntity
  8
0
  62
7
100
AcDbLine
 10
504.316328
 20
478.511294
 30
0.000000
 11
504.534831
 21
478.532817
 31
0.000000
  0
LINE
  5
333
330
1F
100
AcDbEntity
  8
0
  62
7
100
AcDbLine
 10
504.534831
 20
478.532817
 30
0.000000
 11
504.749658
 21
478.578161
 31
0.000000
  0
LINE
  5
334
330
1F
100
AcDbEntity
  8
0
  62
7
100
AcDbLine
 10
504.749658
 20
478.578161
 30
0.000000
 11
504.958220
 21
478.646781
 31
0.000000
  0
LINE
  5
335
330
1F
100
AcDbEntity
  8
0
  62
7
100
AcDbLine
 10
504.958220
 20
478.646781
 30
0.000000
 11
505.158004
 21
478.737848
 31
0.000000
  0
LINE
  5
336
330
1F
100
AcDbEntity
  8
0
  62
7
100
AcDbLine
 10
505.158004
 20
478.737848
 30
0.000000
 11
505.346602
 21
478.850266
 31
0.000000
  0
LINE
  5
337
330
1F
100
AcDbEntity
  8
0
  62
7
100
AcDbLine
 10
505.346602
 20
478.850266
 30
0.000000
 11
505.521740
 21
478.982679
 31
0.000000
  0
LINE
  5
338
330
1F
100
AcDbEntity
  8
0
  62
7
100
AcDbLine
 10
505.521740
 20
478.982679
 30
0.000000
 11
505.681309
 21
479.133492
 31
0.000000
  0
LINE
  5
339
330
1F
100
AcDbEntity
  8
0
  62
7
100
AcDbLine
 10
505.681309
 20
479.133492
 30
0.000000
 11
505.823384
 21
479.300888
 31
0.000000
  0
LINE
  5
340
330
1F
100
AcDbEntity
  8
0
  62
7
100
AcDbLine
 10
505.823384
 20
479.300888
 30
0.000000
 11
505.946255
 21
479.482849
 31
0.000000
  0
LINE
  5
341
330
1F
100
AcDbEntity
  8
0
  62
7
100
AcDbLine
 10
505.946255
 20
479.482849
 30
0.000000
 11
506.048439
 21
479.677181
 31
0.000000
  0
LINE
  5
342
330
1F
100
AcDbEntity
  8
0
  62
7
100
AcDbLine
 10
506.048439
 20
479.677181
 30
0.000000
 11
506.128707
 21
479.881543
 31
0.000000
  0
LINE
  5
343
330
1F
100
AcDbEntity
  8
0
  62
7
100
AcDbLine
 10
506.128707
 20
479.881543
 30
0.000000
 11
506.186089
 21
480.093473
 31
0.000000
  0
LINE
  5
344
330
1F
100
AcDbEntity
  8
0
  62
7
100
AcDbLine
 10
506.186089
 20
480.093473
 30
0.000000
 11
506.219895
 21
480.310415
 31
0.000000
  0
LINE
  5
345
330
1F
100
AcDbEntity
  8
0
  62
7
100
AcDbLine
 10
506.219895
 20
480.310415
 30
0.000000
 11
506.907904
 21
487.190500
 31
0.000000
  0
LINE
  5
346
330
1F
100
AcDbEntity
  8
0
  62
7
100
AcDbLine
 10
506.907904
 20
487.190500
 30
0.000000
 11
506.910921
 21
487.223416
 31
0.000000
  0
LINE
  5
347
330
1F
100
AcDbEntity
  8
0
  62
7
100
AcDbLine
 10
506.910921
 20
487.223416
 30
0.000000
 11
507.369593
 21
492.727484
 31
0.000000
  0
LINE
  5
348
330
1F
100
AcDbEntity
  8
0
  62
7
100
AcDbLine
 10
507.369593
 20
492.727484
 30
0.000000
 11
507.375636
 21
492.952409
 31
0.000000
  0
LINE
  5
349
330
1F
100
AcDbEntity
  8
0
  62
7
100
AcDbLine
 10
507.375636
 20
492.952409
 30
0.000000
 11
507.356376
 21
493.176590
 31
0.000000
  0
LINE
  5
350
330
1F
100
AcDbEntity
  8
0
  62
7
100
AcDbLine
 10
507.356376
 20
493.176590
 30
0.000000
 11
507.312056
 21
493.397189
 31
0.000000
  0
LINE
  5
351
330
1F
100
AcDbEntity
  8
0
  62
7
100
AcDbLine
 10
507.312056
 20
493.397189
 30
0.000000
 11
507.243239
 21
493.611413
 31
0.000000
  0
LINE
  5
352
330
1F
100
AcDbEntity
  8
0
  62
7
100
AcDbLine
 10
507.243239
 20
493.611413
 30
0.000000
 11
507.150794
 21
493.816552
 31
0.000000
  0
LINE
  5
353
330
1F
100
AcDbEntity
  8
0
  62
7
100
AcDbLine
 10
507.150794
 20
493.816552
 30
0.000000
 11
507.035892
 21
494.010009
 31
0.000000
  0
LINE
  5
354
330
1F
100
AcDbEntity
  8
0
  62
7
100
AcDbLine
 10
507.035892
 20
494.010009
 30
0.000000
 11
506.899986
 21
494.189335
 31
0.000000
  0
LINE
  5
355
330
1F
100
AcDbEntity
  8
0
  62
7
100
AcDbLine
 10
506.899986
 20
494.189335
 30
0.000000
 11
506.744799
 21
494.352260
 31
0.000000
  0
LINE
  5
356
330
1F
100
AcDbEntity
  8
0
  62
7
100
AcDbLine
 10
506.744799
 20
494.352260
 30
0.000000
 11
506.572292
 21
494.496723
 31
0.000000
  0
LINE
  5
357
330
1F
100
AcDbEntity
  8
0
  62
7
100
AcDbLine
 10
506.572292
 20
494.496723
 30
0.000000
 11
492.582787
 21
504.931518
 31
0.000000
  0
LINE
  5
358
330
1F
100
AcDbEntity
  8
0
  62
7
100
AcDbLine
 10
492.582787
 20
504.931518
 30
0.000000
 11
492.408021
 21
505.048111
 31
0.000000
  0
LINE
  5
359
330
1F
100
AcDbEntity
  8
0
  62
7
100
AcDbLine
 10
492.408021
 20
505.048111
 30
0.000000
 11
492.221989
 21
505.145727
 31
0.000000
  0
LINE
  5
360
330
1F
100
AcDbEntity
  8
0
  62
7
100
AcDbLine
 10
492.221989
 20
505.145727
 30
0.000000
 11
492.026744
 21
505.223290
 31
0.000000
  0
LINE
  5
361
330
1F
100
AcDbEntity
  8
0
  62
7
100
AcDbLine
 10
492.026744
 20
505.223290
 30
0.000000
 11
491.824439
 21
505.279945
 31
0.000000
  0
LINE
  5
362
330
1F
100
AcDbEntity
  8
0
  62
7
100
AcDbLine
 10
491.824439
 20
505.279945
 30
0.000000
 11
491.617308
 21
505.315065
 31
0.000000
  0
LINE
  5
363
330
1F
100
AcDbEntity
  8
0
  62
7
100
AcDbLine
 10
491.617308
 20
505.315065
 30
0.000000
 11
491.407635
 21
505.328263
 31
0.000000
  0
LINE
  5
364
330
1F
100
AcDbEntity
  8
0
  62
7
100
AcDbLine
 10
491.407635
 20
505.328263
 30
0.000000
 11
491.197734
 21
505.319395
 31
0.000000
  0
LINE
  5
365
330
1F
100
AcDbEntity
  8
0
  62
7
100
AcDbLine
 10
491.197734
 20
505.319395
 30
0.000000
 11
490.989922
 21
505.288557
 31
0.000000
  0
LINE
  5
366
330
1F
100
AcDbEntity
  8
0
  62
7
100
AcDbLine
 10
490.989922
 20
505.288557
 30
0.000000
 11
490.786492
 21
505.236090
 31
0.000000
  0
LINE
  5
367
330
1F
100
AcDbEntity
  8
0
  62
7
100
AcDbLine
 10
490.786492
 20
505.236090
 30
0.000000
 11
490.589687
 21
505.162572
 31
0.000000
  0
LINE
  5
368
330
1F
100
AcDbEntity
  8
0
  62
7
100
AcDbLine
 10
490.589687
 20
505.162572
 30
0.000000
 11
490.401680
 21
505.068816
 31
0.000000
  0
LINE
  5
369
330
1F
100
AcDbEntity
  8
0
  62
7
100
AcDbLine
 10
490.401680
 20
505.068816
 30
0.000000
 11
490.224545
 21
504.955855
 31
0.000000
  0
LINE
  5
370
330
1F
100
AcDbEntity
  8
0
  62
7
100
AcDbLine
 10
490.224545
 20
504.955855
 30
0.000000
 11
490.060237
 21
504.824937
 31
0.000000
  0
LINE
  5
371
330
1F
100
AcDbEntity
  8
0
  62
7
100
AcDbLine
 10
490.060237
 20
504.824937
 30
0.000000
 11
489.910569
 21
504.677504
 31
0.000000
  0
LINE
  5
372
330
1F
100
AcDbEntity
  8
0
  62
7
100
AcDbLine
 10
489.910569
 20
504.677504
 30
0.000000
 11
489.777192
 21
504.515185
 31
0.000000
  0
LINE
  5
373
330
1F
100
AcDbEntity
  8
0
  62
7
100
AcDbLine
 10
489.777192
 20
504.515185
 30
0.000000
 11
489.661578
 21
504.339771
 31
0.000000
  0
LINE
  5
374
330
1F
100
AcDbEntity
  8
0
  62
7
100
AcDbLine
 10
489.661578
 20
504.339771
 30
0.000000
 11
489.565002
 21
504.153197
 31
0.000000
  0
LINE
  5
375
330
1F
100
AcDbEntity
  8
0
  62
7
100
AcDbLine
 10
489.565002
 20
504.153197
 30
0.000000
 11
489.488531
 21
503.957521
 31
0.000000
  0
LINE
  5
376
330
1F
100
AcDbEntity
  8
0
  62
7
100
AcDbLine
 10
489.488531
 20
503.957521
 30
0.000000
 11
489.433008
 21
503.754903
 31
0.000000
  0
LINE
  5
377
330
1F
100
AcDbEntity
  8
0
  62
7
100
AcDbLine
 10
489.433008
 20
503.754903
 30
0.000000
 11
489.399045
 21
503.547579
 31
0.000000
  0
LINE
  5
378
330
1F
100
AcDbEntity
  8
0
  62
7
100
AcDbLine
 10
489.399045
 20
503.547579
 30
0.000000
 11
489.387018
 21
503.337835
 31
0.000000
  0
LINE
  5
379
330
1F
100
AcDbEntity
  8
0
  62
7
100
AcDbLine
 10
489.387018
 20
503.337835
 30
0.000000
 11
489.397059
 21
503.127988
 31
0.000000
  0
LINE
  5
380
330
1F
100
AcDbEntity
  8
0
  62
7
100
AcDbLine
 10
489.397059
 20
503.127988
 30
0.000000
 11
489.429058
 21
502.920351
 31
0.000000
  0
LINE
  5
381
330
1F
100
AcDbEntity
  8
0
  62
7
100
AcDbLine
 10
489.429058
 20
502.920351
 30
0.000000
 11
489.482661
 21
502.717217
 31
0.000000
  0
LINE
  5
382
330
1F
100
AcDbEntity
  8
0
  62
7
100
AcDbLine
 10
489.482661
 20
502.717217
 30
0.000000
 11
489.557277
 21
502.520826
 31
0.000000
  0
LINE
  5
383
330
1F
100
AcDbEntity
  8
0
  62
7
100
AcDbLine
 10
489.557277
 20
502.520826
 30
0.000000
 11
489.652082
 21
502.333346
 31
0.000000
  0
LINE
  5
384
330
1F
100
AcDbEntity
  8
0
  62
7
100
AcDbLine
 10
489.652082
 20
502.333346
 30
0.000000
 11
493.971020
 21
494.802890
 31
0.000000
  0
LINE
  5
385
330
1F
100
AcDbEntity
  8
0
  62
7
100
AcDbLine
 10
509.234046
 20
478.649031
 30
0.000000
 11
518.567536
 21
487.657878
 31
0.000000
  0
LINE
  5
386
330
1F
100
AcDbEntity
  8
0
  62
7
100
AcDbLine
 10
518.567536
 20
487.657878
 30
0.000000
 11
518.749245
 21
487.796893
 31
0.000000
  0
LINE
  5
387
330
1F
100
AcDbEntity
  8
0
  62
7
100
AcDbLine
 10
518.749245
 20
487.796893
 30
0.000000
 11
518.957796
 21
487.890970
 31
0.000000
  0
LINE
  5
388
330
1F
100
AcDbEntity
  8
0
  62
7
100
AcDbLine
 10
518.957796
 20
487.890970
 30
0.000000
 11
519.182270
 21
487.935184
 31
0.000000
  0
LINE
  5
389
330
1F
100
AcDbEntity
  8
0
  62
7
100
AcDbLine
 10
519.182270
 20
487.935184
 30
0.000000
 11
519.410919
 21
487.927221
 31
0.000000
  0
LINE
  5
390
330
1F
100
AcDbEntity
  8
0
  62
7
100
AcDbLine
 10
519.410919
 20
487.927221
 30
0.000000
 11
519.631774
 21
487.867498
 31
0.000000
  0
LINE
  5
391
330
1F
100
AcDbEntity
  8
0
  62
7
100
AcDbLine
 10
519.631774
 20
487.867498
 30
0.000000
 11
527.585530
 21
484.702227
 31
0.000000
  0
LINE
  5
392
330
1F
100
AcDbEntity
  8
0
  62
7
100
AcDbLine
 10
527.585530
 20
484.702227
 30
0.000000
 11
527.788714
 21
484.592696
 31
0.000000
  0
LINE
  5
393
330
1F
100
AcDbEntity
  8
0
  62
7
100
AcDbLine
 10
527.788714
 20
484.592696
 30
0.000000
 11
527.961371
 21
484.439496
 31
0.000000
  0
LINE
  5
394
330
1F
100
AcDbEntity
  8
0
  62
7
100
AcDbLine
 10
527.961371
 20
484.439496
 30
0.000000
 11
528.094302
 21
484.250790
 31
0.000000
  0
LINE
  5
395
330
1F
100
AcDbEntity
  8
0
  62
7
100
AcDbLine
 10
528.094302
 20
484.250790
 30
0.000000
 11
528.180425
 21
484.036632
 31
0.000000
  0
LINE
  5
396
330
1F
100
AcDbEntity
  8
0
  62
7
100
AcDbLine
 10
528.180425
 20
484.036632
 30
0.000000
 11
528.215151
 21
483.808433
 31
0.000000
  0
LINE
  5
397
330
1F
100
AcDbEntity
  8
0
  62
7
100
AcDbLine
 10
528.215151
 20
483.808433
 30
0.000000
 11
528.196629
 21
483.578351
 31
0.000000
  0
LINE
  5
398
330
1F
100
AcDbEntity
  8
0
  62
7
100
AcDbLine
 10
528.196629
 20
483.578351
 30
0.000000
 11
528.125846
 21
483.358646
 31
0.000000
  0
LINE
  5
399
330
1F
100
AcDbEntity
  8
0
  62
7
100
AcDbLine
 10
528.125846
 20
483.358646
 30
0.000000
 11
528.006574
 21
483.161023
 31
0.000000
  0
LINE
  5
400
330
1F
100
AcDbEntity
  8
0
  62
7
100
AcDbLine
 10
528.006574
 20
483.161023
 30
0.000000
 11
527.845168
 21
482.996011
 31
0.000000
  0
LINE
  5
401
330
1F
100
AcDbEntity
  8
0
  62
7
100
AcDbLine
 10
527.845168
 20
482.996011
 30
0.000000
 11
527.650228
 21
482.872404
 31
0.000000
  0
LINE
  5
402
330
1F
100
AcDbEntity
  8
0
  62
7
100
AcDbLine
 10
527.650228
 20
482.872404
 30
0.000000
 11
506.954228
 21
472.889627
 31
0.000000
  0
LINE
  5
403
330
1F
100
AcDbEntity
  8
0
  62
7
100
AcDbLine
 10
506.954228
 20
472.889627
 30
0.000000
 11
506.741583
 21
472.815232
 31
0.000000
  0
LINE
  5
404
330
1F
100
AcDbEntity
  8
0
  62
7
100
AcDbLine
 10
506.741583
 20
472.815232
 30
0.000000
 11
506.517681
 21
472.790324
 31
0.000000
  0
LINE
  5
405
330
1F
100
AcDbEntity
  8
0
  62
7
100
AcDbLine
 10
506.517681
 20
472.790324
 30
0.000000
 11
506.293885
 21
472.816169
 31
0.000000
  0
LINE
  5
406
330
1F
100
AcDbEntity
  8
0
  62
7
100
AcDbLine
 10
506.293885
 20
472.816169
 30
0.000000
 11
506.081553
 21
472.891455
 31
0.000000
  0
LINE
  5
407
330
1F
100
AcDbEntity
  8
0
  62
7
100
AcDbLine
 10
506.081553
 20
472.891455
 30
0.000000
 11
505.891463
 21
473.012361
 31
0.000000
  0
LINE
  5
408
330
1F
100
AcDbEntity
  8
0
  62
7
100
AcDbLine
 10
505.891463
 20
473.012361
 30
0.000000
 11
505.733261
 21
473.172750
 31
0.000000
  0
LINE
  5
409
330
1F
100
AcDbEntity
  8
0
  62
7
100
AcDbLine
 10
505.733261
 20
473.172750
 30
0.000000
 11
505.614976
 21
473.364483
 31
0.000000
  0
LINE
  5
410
330
1F
100
AcDbEntity
  8
0
  62
7
100
AcDbLine
 10
505.614976
 20
473.364483
 30
0.000000
 11
505.542613
 21
473.577828
 31
0.000000
  0
LINE
  5
411
330
1F
100
AcDbEntity
  8
0
  62
7
100
AcDbLine
 10
505.542613
 20
473.577828
 30
0.000000
 11
505.519843
 21
473.801958
 31
0.000000
  0
LINE
  5
412
330
1F
100
AcDbEntity
  8
0
  62
7
100
AcDbLine
 10
505.519843
 20
473.801958
 30
0.000000
 11
505.547823
 21
474.025498
 31
0.000000
  0
LINE
  5
413
330
1F
100
AcDbEntity
  8
0
  62
7
100
AcDbLine
 10
505.547823
 20
474.025498
 30
0.000000
 11
505.625131
 21
474.237101
 31
0.000000
  0
LINE
  5
414
330
1F
100
AcDbEntity
  8
0
  62
7
100
AcDbLine
 10
505.625131
 20
474.237101
 30
0.000000
 11
505.747845
 21
474.426029
 31
0.000000
  0
LINE
  5
415
330
1F
100
AcDbEntity
  8
0
  62
7
100
AcDbLine
 10
505.747845
 20
474.426029
 30
0.000000
 11
509.156598
 21
478.565229
 31
0.000000
  0
LINE
  5
416
330
1F
100
AcDbEntity
  8
0
  62
7
100
AcDbLine
 10
509.156598
 20
478.565229
 30
0.000000
 11
509.171314
 21
478.582688
 31
0.000000
  0
LINE
  5
417
330
1F
100
AcDbEntity
  8
0
  62
7
100
AcDbLine
 10
509.171314
 20
478.582688
 30
0.000000
 11
509.186425
 21
478.599807
 31
0.000000
  0
LINE
  5
418
330
1F
100
AcDbEntity
  8
0
  62
7
100
AcDbLine
 10
509.186425
 20
478.599807
 30
0.000000
 11
509.201922
 21
478.616576
 31
0.000000
  0
LINE
  5
419
330
1F
100
AcDbEntity
  8
0
  62
7
100
AcDbLine
 10
509.201922
 20
478.616576
 30
0.000000
 11
509.217799
 21
478.632987
 31
0.000000
  0
LINE
  5
420
330
1F
100
AcDbEntity
  8
0
  62
7
100
AcDbLine
 10
509.217799
 20
478.632987
 30
0.000000
 11
509.234046
 21
478.649031
 31
0.000000
  0
LINE
  5
421
330
1F
100
AcDbEntity
  8
0
  62
7
100
AcDbLine
 10
561.350477
 20
478.649031
 30
0.000000
 11
552.016987
 21
487.657878
 31
0.000000
  0
LINE
  5
422
330
1F
100
AcDbEntity
  8
0
  62
7
100
AcDbLine
 10
552.016987
 20
487.657878
 30
0.000000
 11
551.835277
 21
487.796893
 31
0.000000
  0
LINE
  5
423
330
1F
100
AcDbEntity
  8
0
  62
7
100
AcDbLine
 10
551.835277
 20
487.796893
 30
0.000000
 11
551.626726
 21
487.890970
 31
0.000000
  0
LINE
  5
424
330
1F
100
AcDbEntity
  8
0
  62
7
100
AcDbLine
 10
551.626726
 20
487.890970
 30
0.000000
 11
551.402252
 21
487.935184
 31
0.000000
  0
LINE
  5
425
330
1F
100
AcDbEntity
  8
0
  62
7
100
AcDbLine
 10
551.402252
 20
487.935184
 30
0.000000
 11
551.173603
 21
487.927221
 31
0.000000
  0
LINE
  5
426
330
1F
100
AcDbEntity
  8
0
  62
7
100
AcDbLine
 10
551.173603
 20
487.927221
 30
0.000000
 11
550.952748
 21
487.867498
 31
0.000000
  0
LINE
  5
427
330
1F
100
AcDbEntity
  8
0
  62
7
100
AcDbLine
 10
550.952748
 20
487.867498
 30
0.000000
 11
542.998992
 21
484.702227
 31
0.000000
  0
LINE
  5
428
330
1F
100
AcDbEntity
  8
0
  62
7
100
AcDbLine
 10
542.998992
 20
484.702227
 30
0.000000
 11
542.795808
 21
484.592696
 31
0.000000
  0
LINE
  5
429
330
1F
100
AcDbEntity
  8
0
  62
7
100
AcDbLine
 10
542.795808
 20
484.592696
 30
0.000000
 11
542.623151
 21
484.439496
 31
0.000000
  0
LINE
  5
430
330
1F
100
AcDbEntity
  8
0
  62
7
100
AcDbLine
 10
542.623151
 20
484.439496
 30
0.000000
 11
542.490220
 21
484.250790
 31
0.000000
  0
LINE
  5
431
330
1F
100
AcDbEntity
  8
0
  62
7
100
AcDbLine
 10
542.490220
 20
484.250790
 30
0.000000
 11
542.404097
 21
484.036632
 31
0.000000
  0
LINE
  5
432
330
1F
100
AcDbEntity
  8
0
  62
7
100
AcDbLine
 10
542.404097
 20
484.036632
 30
0.000000
 11
542.369372
 21
483.808433
 31
0.000000
  0
LINE
  5
433
330
1F
100
AcDbEntity
  8
0
  62
7
100
AcDbLine
 10
542.369372
 20
483.808433
 30
0.000000
 11
542.387894
 21
483.578351
 31
0.000000
  0
LINE
  5
434
330
1F
100
AcDbEntity
  8
0
  62
7
100
AcDbLine
 10
542.387894
 20
483.578351
 30
0.000000
 11
542.458676
 21
483.358646
 31
0.000000
  0
LINE
  5
435
330
1F
100
AcDbEntity
  8
0
  62
7
100
AcDbLine
 10
542.458676
 20
483.358646
 30
0.000000
 11
542.577948
 21
483.161023
 31
0.000000
  0
LINE
  5
436
330
1F
100
AcDbEntity
  8
0
  62
7
100
AcDbLine
 10
542.577948
 20
483.161023
 30
0.000000
 11
542.739354
 21
482.996011
 31
0.000000
  0
LINE
  5
437
330
1F
100
AcDbEntity
  8
0
  62
7
100
AcDbLine
 10
542.739354
 20
482.996011
 30
0.000000
 11
542.934295
 21
482.872404
 31
0.000000
  0
LINE
  5
438
330
1F
100
AcDbEntity
  8
0
  62
7
100
AcDbLine
 10
542.934295
 20
482.872404
 30
0.000000
 11
563.630294
 21
472.889627
 31
0.000000
  0
LINE
  5
439
330
1F
100
AcDbEntity
  8
0
  62
7
100
AcDbLine
 10
563.630294
 20
472.889627
 30
0.000000
 11
563.842939
 21
472.815232
 31
0.000000
  0
LINE
  5
440
330
1F
100
AcDbEntity
  8
0
  62
7
100
AcDbLine
 10
563.842939
 20
472.815232
 30
0.000000
 11
564.066841
 21
472.790324
 31
0.000000
  0
LINE
  5
441
330
1F
100
AcDbEntity
  8
0
  62
7
100
AcDbLine
 10
564.066841
 20
472.790324
 30
0.000000
 11
564.290637
 21
472.816169
 31
0.000000
  0
LINE
  5
442
330
1F
100
AcDbEntity
  8
0
  62
7
100
AcDbLine
 10
564.290637
 20
472.816169
 30
0.000000
 11
564.502969
 21
472.891455
 31
0.000000
  0
LINE
  5
443
330
1F
100
AcDbEntity
  8
0
  62
7
100
AcDbLine
 10
564.502969
 20
472.891455
 30
0.000000
 11
564.693059
 21
473.012361
 31
0.000000
  0
LINE
  5
444
330
1F
100
AcDbEntity
  8
0
  62
7
100
AcDbLine
 10
564.693059
 20
473.012361
 30
0.000000
 11
564.851261
 21
473.172750
 31
0.000000
  0
LINE
  5
445
330
1F
100
AcDbEntity
  8
0
  62
7
100
AcDbLine
 10
564.851261
 20
473.172750
 30
0.000000
 11
564.969546
 21
473.364483
 31
0.000000
  0
LINE
  5
446
330
1F
100
AcDbEntity
  8
0
  62
7
100
AcDbLine
 10
564.969546
 20
473.364483
 30
0.000000
 11
565.041909
 21
473.577828
 31
0.000000
  0
LINE
  5
447
330
1F
100
AcDbEntity
  8
0
  62
7
100
AcDbLine
 10
565.041909
 20
473.577828
 30
0.000000
 11
565.064679
 21
473.801958
 31
0.000000
  0
LINE
  5
448
330
1F
100
AcDbEntity
  8
0
  62
7
100
AcDbLine
 10
565.064679
 20
473.801958
 30
0.000000
 11
565.036700
 21
474.025498
 31
0.000000
  0
LINE
  5
449
330
1F
100
AcDbEntity
  8
0
  62
7
100
AcDbLine
 10
565.036700
 20
474.025498
 30
0.000000
 11
564.959391
 21
474.237101
 31
0.000000
  0
LINE
  5
450
330
1F
100
AcDbEntity
  8
0
  62
7
100
AcDbLine
 10
564.959391
 20
474.237101
 30
0.000000
 11
564.836677
 21
474.426029
 31
0.000000
  0
LINE
  5
451
330
1F
100
AcDbEntity
  8
0
  62
7
100
AcDbLine
 10
564.836677
 20
474.426029
 30
0.000000
 11
561.427924
 21
478.565229
 31
0.000000
  0
LINE
  5
452
330
1F
100
AcDbEntity
  8
0
  62
7
100
AcDbLine
 10
561.427924
 20
478.565229
 30
0.000000
 11
561.413208
 21
478.582688
 31
0.000000
  0
LINE
  5
453
330
1F
100
AcDbEntity
  8
0
  62
7
100
AcDbLine
 10
561.413208
 20
478.582688
 30
0.000000
 11
561.398098
 21
478.599807
 31
0.000000
  0
LINE
  5
454
330
1F
100
AcDbEntity
  8
0
  62
7
100
AcDbLine
 10
561.398098
 20
478.599807
 30
0.000000
 11
561.382600
 21
478.616576
 31
0.000000
  0
LINE
  5
455
330
1F
100
AcDbEntity
  8
0
  62
7
100
AcDbLine
 10
561.382600
 20
478.616576
 30
0.000000
 11
561.366724
 21
478.632987
 31
0.000000
  0
LINE
  5
456
330
1F
100
AcDbEntity
  8
0
  62
7
100
AcDbLine
 10
561.366724
 20
478.632987
 30
0.000000
 11
561.350477
 21
478.649031
 31
0.000000
  0
LINE
  5
457
330
1F
100
AcDbEntity
  8
0
  62
7
100
AcDbLine
 10
576.613503
 20
494.802890
 30
0.000000
 11
573.468565
 21
480.426033
 31
0.000000
  0
LINE
  5
458
330
1F
100
AcDbEntity
  8
0
  62
7
100
AcDbLine
 10
573.468565
 20
480.426033
 30
0.000000
 11
573.405206
 21
480.200560
 31
0.000000
  0
LINE
  5
459
330
1F
100
AcDbEntity
  8
0
  62
7
100
AcDbLine
 10
573.405206
 20
480.200560
 30
0.000000
 11
573.315922
 21
479.984040
 31
0.000000
  0
LINE
  5
460
330
1F
100
AcDbEntity
  8
0
  62
7
100
AcDbLine
 10
573.315922
 20
479.984040
 30
0.000000
 11
573.201939
 21
479.779442
 31
0.000000
  0
LINE
  5
461
330
1F
100
AcDbEntity
  8
0
  62
7
100
AcDbLine
 10
573.201939
 20
479.779442
 30
0.000000
 11
573.064820
 21
479.589571
 31
0.000000
  0
LINE
  5
462
330
1F
100
AcDbEntity
  8
0
  62
7
100
AcDbLine
 10
573.064820
 20
479.589571
 30
0.000000
 11
572.906444
 21
479.417032
 31
0.000000
  0
LINE
  5
463
330
1F
100
AcDbEntity
  8
0
  62
7
100
AcDbLine
 10
572.906444
 20
479.417032
 30
0.000000
 11
572.728985
 21
479.264191
 31
0.000000
  0
LINE
  5
464
330
1F
100
AcDbEntity
  8
0
  62
7
100
AcDbLine
 10
572.728985
 20
479.264191
 30
0.000000
 11
572.534874
 21
479.133143
 31
0.000000
  0
LINE
  5
465
330
1F
100
AcDbEntity
  8
0
  62
7
100
AcDbLine
 10
572.534874
 20
479.133143
 30
0.000000
 11
572.326775
 21
479.025685
 31
0.000000
  0
LINE
  5
466
330
1F
100
AcDbEntity
  8
0
  62
7
100
AcDbLine
 10
572.326775
 20
479.025685
 30
0.000000
 11
572.107541
 21
478.943291
 31
0.000000
  0
LINE
  5
467
330
1F
100
AcDbEntity
  8
0
  62
7
100
AcDbLine
 10
572.107541
 20
478.943291
 30
0.000000
 11
571.880177
 21
478.887091
 31
0.000000
  0
LINE
  5
468
330
1F
100
AcDbEntity
  8
0
  62
7
100
AcDbLine
 10
571.880177
 20
478.887091
 30
0.000000
 11
571.647803
 21
478.857856
 31
0.000000
  0
LINE
  5
469
330
1F
100
AcDbEntity
  8
0
  62
7
100
AcDbLine
 10
571.647803
 20
478.857856
 30
0.000000
 11
566.487740
 21
478.513852
 31
0.000000
  0
LINE
  5
470
330
1F
100
AcDbEntity
  8
0
  62
7
100
AcDbLine
 10
566.487740
 20
478.513852
 30
0.000000
 11
566.268194
 21
478.511294
 31
0.000000
  0
LINE
  5
471
330
1F
100
AcDbEntity
  8
0
  62
7
100
AcDbLine
 10
566.268194
 20
478.511294
 30
0.000000
 11
566.049691
 21
478.532817
 31
0.000000
  0
LINE
  5
472
330
1F
100
AcDbEntity
  8
0
  62
7
100
AcDbLine
 10
566.049691
 20
478.532817
 30
0.000000
 11
565.834864
 21
478.578161
 31
0.000000
  0
LINE
  5
473
330
1F
100
AcDbEntity
  8
0
  62
7
100
AcDbLine
 10
565.834864
 20
478.578161
 30
0.000000
 11
565.626302
 21
478.646781
 31
0.000000
  0
LINE
  5
474
330
1F
100
AcDbEntity
  8
0
  62
7
100
AcDbLine
 10
565.626302
 20
478.646781
 30
0.000000
 11
565.426518
 21
478.737848
 31
0.000000
  0
LINE
  5
475
330
1F
100
AcDbEntity
  8
0
  62
7
100
AcDbLine
 10
565.426518
 20
478.737848
 30
0.000000
 11
565.237921
 21
478.850266
 31
0.000000
  0
LINE
  5
476
330
1F
100
AcDbEntity
  8
0
  62
7
100
AcDbLine
 10
565.237921
 20
478.850266
 30
0.000000
 11
565.062782
 21
478.982679
 31
0.000000
  0
LINE
  5
477
330
1F
100
AcDbEntity
  8
0
  62
7
100
AcDbLine
 10
565.062782
 20
478.982679
 30
0.000000
 11
564.903214
 21
479.133492
 31
0.000000
  0
LINE
  5
478
330
1F
100
AcDbEntity
  8
0
  62
7
100
AcDbLine
 10
564.903214
 20
479.133492
 30
0.000000
 11
564.761138
 21
479.300888
 31
0.000000
  0
LINE
  5
479
330
1F
100
AcDbEntity
  8
0
  62
7
100
AcDbLine
 10
564.761138
 20
479.300888
 30
0.000000
 11
564.638267
 21
479.482849
 31
0.000000
  0
LINE
  5
480
330
1F
100
AcDbEntity
  8
0
  62
7
100
AcDbLine
 10
564.638267
 20
479.482849
 30
0.000000
 11
564.536083
 21
479.677181
 31
0.000000
  0
LINE
  5
481
330
1F
100
AcDbEntity
  8
0
  62
7
100
AcDbLine
 10
564.536083
 20
479.677181
 30
0.000000
 11
564.455816
 21
479.881543
 31
0.000000
  0
LINE
  5
482
330
1F
100
AcDbEntity
  8
0
  62
7
100
AcDbLine
 10
564.455816
 20
479.881543
 30
0.000000
 11
564.398433
 21
480.093473
 31
0.000000
  0
LINE
  5
483
330
1F
100
AcDbEntity
  8
0
  62
7
100
AcDbLine
 10
564.398433
 20
480.093473
 30
0.000000
 11
564.364627
 21
480.310415
 31
0.000000
  0
LINE
  5
484
330
1F
100
AcDbEntity
  8
0
  62
7
100
AcDbLine
 10
564.364627
 20
480.310415
 30
0.000000
 11
563.676619
 21
487.190500
 31
0.000000
  0
LINE
  5
485
330
1F
100
AcDbEntity
  8
0
  62
7
100
AcDbLine
 10
563.676619
 20
487.190500
 30
0.000000
 11
563.673602
 21
487.223416
 31
0.000000
  0
LINE
  5
486
330
1F
100
AcDbEntity
  8
0
  62
7
100
AcDbLine
 10
563.673602
 20
487.223416
 30
0.000000
 11
563.214929
 21
492.727484
 31
0.000000
  0
LINE
  5
487
330
1F
100
AcDbEntity
  8
0
  62
7
100
AcDbLine
 10
563.214929
 20
492.727484
 30
0.000000
 11
563.208886
 21
492.952409
 31
0.000000
  0
LINE
  5
488
330
1F
100
AcDbEntity
  8
0
  62
7
100
AcDbLine
 10
563.208886
 20
492.952409
 30
0.000000
 11
563.228146
 21
493.176590
 31
0.000000
  0
LINE
  5
489
330
1F
100
AcDbEntity
  8
0
  62
7
100
AcDbLine
 10
563.228146
 20
493.176590
 30
0.000000
 11
563.272466
 21
493.397189
 31
0.000000
  0
LINE
  5
490
330
1F
100
AcDbEntity
  8
0
  62
7
100
AcDbLine
 10
563.272466
 20
493.397189
 30
0.000000
 11
563.341283
 21
493.611413
 31
0.000000
  0
LINE
  5
491
330
1F
100
AcDbEntity
  8
0
  62
7
100
AcDbLine
 10
563.341283
 20
493.611413
 30
0.000000
 11
563.433728
 21
493.816552
 31
0.000000
  0
LINE
  5
492
330
1F
100
AcDbEntity
  8
0
  62
7
100
AcDbLine
 10
563.433728
 20
493.816552
 30
0.000000
 11
563.548631
 21
494.010009
 31
0.000000
  0
LINE
  5
493
330
1F
100
AcDbEntity
  8
0
  62
7
100
AcDbLine
 10
563.548631
 20
494.010009
 30
0.000000
 11
563.684536
 21
494.189335
 31
0.000000
  0
LINE
  5
494
330
1F
100
AcDbEntity
  8
0
  62
7
100
AcDbLine
 10
563.684536
 20
494.189335
 30
0.000000
 11
563.839724
 21
494.352260
 31
0.000000
  0
LINE
  5
495
330
1F
100
AcDbEntity
  8
0
  62
7
100
AcDbLine
 10
563.839724
 20
494.352260
 30
0.000000
 11
564.012230
 21
494.496723
 31
0.000000
  0
LINE
  5
496
330
1F
100
AcDbEntity
  8
0
  62
7
100
AcDbLine
 10
564.012230
 20
494.496723
 30
0.000000
 11
578.001736
 21
504.931518
 31
0.000000
  0
LINE
  5
497
330
1F
100
AcDbEntity
  8
0
  62
7
100
AcDbLine
 10
578.001736
 20
504.931518
 30
0.000000
 11
578.176501
 21
505.048111
 31
0.000000
  0
LINE
  5
498
330
1F
100
AcDbEntity
  8
0
  62
7
100
AcDbLine
 10
578.176501
 20
505.048111
 30
0.000000
 11
578.362533
 21
505.145727
 31
0.000000
  0
LINE
  5
499
330
1F
100
AcDbEntity
  8
0
  62
7
100
AcDbLine
 10
578.362533
 20
505.145727
 30
0.000000
 11
578.557779
 21
505.223290
 31
0.000000
  0
LINE
  5
500
330
1F
100
AcDbEntity
  8
0
  62
7
100
AcDbLine
 10
578.557779
 20
505.223290
 30
0.000000
 11
578.760083
 21
505.279945
 31
0.000000
  0
LINE
  5
501
330
1F
100
AcDbEntity
  8
0
  62
7
100
AcDbLine
 10
578.760083
 20
505.279945
 30
0.000000
 11
578.967215
 21
505.315065
 31
0.000000
  0
LINE
  5
502
330
1F
100
AcDbEntity
  8
0
  62
7
100
AcDbLine
 10
578.967215
 20
505.315065
 30
0.000000
 11
579.176887
 21
505.328263
 31
0.000000
  0
LINE
  5
503
330
1F
100
AcDbEntity
  8
0
  62
7
100
AcDbLine
 10
579.176887
 20
505.328263
 30
0.000000
 11
579.386788
 21
505.319395
 31
0.000000
  0
LINE
  5
504
330
1F
100
AcDbEntity
  8
0
  62
7
100
AcDbLine
 10
579.386788
 20
505.319395
 30
0.000000
 11
579.594600
 21
505.288557
 31
0.000000
  0
LINE
  5
505
330
1F
100
AcDbEntity
  8
0
  62
7
100
AcDbLine
 10
579.594600
 20
505.288557
 30
0.000000
 11
579.798031
 21
505.236090
 31
0.000000
  0
LINE
  5
506
330
1F
100
AcDbEntity
  8
0
  62
7
100
AcDbLine
 10
579.798031
 20
505.236090
 30
0.000000
 11
579.994835
 21
505.162572
 31
0.000000
  0
LINE
  5
507
330
1F
100
AcDbEntity
  8
0
  62
7
100
AcDbLine
 10
579.994835
 20
505.162572
 30
0.000000
 11
580.182842
 21
505.068816
 31
0.000000
  0
LINE
  5
508
330
1F
100
AcDbEntity
  8
0
  62
7
100
AcDbLine
 10
580.182842
 20
505.068816
 30
0.000000
 11
580.359977
 21
504.955855
 31
0.000000
  0
LINE
  5
509
330
1F
100
AcDbEntity
  8
0
  62
7
100
AcDbLine
 10
580.359977
 20
504.955855
 30
0.000000
 11
580.524285
 21
504.824937
 31
0.000000
  0
LINE
  5
510
330
1F
100
AcDbEntity
  8
0
  62
7
100
AcDbLine
 10
580.524285
 20
504.824937
 30
0.000000
 11
580.673953
 21
504.677504
 31
0.000000
  0
LINE
  5
511
330
1F
100
AcDbEntity
  8
0
  62
7
100
AcDbLine
 10
580.673953
 20
504.677504
 30
0.000000
 11
580.807330
 21
504.515185
 31
0.000000
  0
LINE
  5
512
330
1F
100
AcDbEntity
  8
0
  62
7
100
AcDbLine
 10
580.807330
 20
504.515185
 30
0.000000
 11
580.922945
 21
504.339771
 31
0.000000
  0
LINE
  5
513
330
1F
100
AcDbEntity
  8
0
  62
7
100
AcDbLine
 10
580.922945
 20
504.339771
 30
0.000000
 11
581.019520
 21
504.153197
 31
0.000000
  0
LINE
  5
514
330
1F
100
AcDbEntity
  8
0
  62
7
100
AcDbLine
 10
581.019520
 20
504.153197
 30
0.000000
 11
581.095991
 21
503.957521
 31
0.000000
  0
LINE
  5
515
330
1F
100
AcDbEntity
  8
0
  62
7
100
AcDbLine
 10
581.095991
 20
503.957521
 30
0.000000
 11
581.151515
 21
503.754903
 31
0.000000
  0
LINE
  5
516
330
1F
100
AcDbEntity
  8
0
  62
7
100
AcDbLine
 10
581.151515
 20
503.754903
 30
0.000000
 11
581.185477
 21
503.547579
 31
0.000000
  0
LINE
  5
517
330
1F
100
AcDbEntity
  8
0
  62
7
100
AcDbLine
 10
581.185477
 20
503.547579
 30
0.000000
 11
581.197504
 21
503.337835
 31
0.000000
  0
LINE
  5
518
330
1F
100
AcDbEntity
  8
0
  62
7
100
AcDbLine
 10
581.197504
 20
503.337835
 30
0.000000
 11
581.187463
 21
503.127988
 31
0.000000
  0
LINE
  5
519
330
1F
100
AcDbEntity
  8
0
  62
7
100
AcDbLine
 10
581.187463
 20
503.127988
 30
0.000000
 11
581.155464
 21
502.920351
 31
0.000000
  0
LINE
  5
520
330
1F
100
AcDbEntity
  8
0
  62
7
100
AcDbLine
 10
581.155464
 20
502.920351
 30
0.000000
 11
581.101861
 21
502.717217
 31
0.000000
  0
LINE
  5
521
330
1F
100
AcDbEntity
  8
0
  62
7
100
AcDbLine
 10
581.101861
 20
502.717217
 30
0.000000
 11
581.027246
 21
502.520826
 31
0.000000
  0
LINE
  5
522
330
1F
100
AcDbEntity
  8
0
  62
7
100
AcDbLine
 10
581.027246
 20
502.520826
 30
0.000000
 11
580.932440
 21
502.333346
 31
0.000000
  0
LINE
  5
523
330
1F
100
AcDbEntity
  8
0
  62
7
100
AcDbLine
 10
580.932440
 20
502.333346
 30
0.000000
 11
576.613503
 21
494.802890
 31
0.000000
 0
ENDSEC
  0
SECTION
  2
OBJECTS
  0
DICTIONARY
  5
C
330
0
100
AcDbDictionary
  3
ACAD_GROUP
350
D
  3
ACAD_LAYOUT
350
1A
  3
ACAD_MLINESTYLE
350
17
  3
ACAD_PLOTSETTINGS
350
19
1001
ACAD
1000
TREAT_AS_HARD
1070
     0
  0
DICTIONARY
  5
46
330
1F
100
AcDbDictionary
  3
ACAD_LAYOUTSELFREF
350
47
  0
DICTIONARY
  5
44
330
1B
100
AcDbDictionary
  3
ACAD_LAYOUTSELFREF
350
45
  0
DICTIONARY
  5
D
102
{ACAD_REACTORS
330
C
102
}
330
C
100
AcDbDictionary
1001
ACAD
1000
TREAT_AS_HARD
1070
     0
  0
DICTIONARY
  5
1A
102
{ACAD_REACTORS
330
C
102
}
330
C
100
AcDbDictionary
1001
ACAD
1000
TREAT_AS_HARD
1070
     0
  0
DICTIONARY
  5
17
102
{ACAD_REACTORS
330
C
102
}
330
C
100
AcDbDictionary
  3
STANDARD
350
18
1001
ACAD
1000
TREAT_AS_HARD
1070
     0
  0
DICTIONARY
  5
19
102
{ACAD_REACTORS
330
C
102
}
330
C
100
AcDbDictionary
1001
ACAD
1000
TREAT_AS_HARD
1070
     0
  0
XRECORD
  5
47
102
{ACAD_REACTORS
330
46
102
}
330
46
100
AcDbXrecord
340
1F
  0
XRECORD
  5
45
102
{ACAD_REACTORS
330
44
102
}
330
44
100
AcDbXrecord
340
1B
  0
MLINESTYLE
  5
18
102
{ACAD_REACTORS
330
17
102
}
330
17
100
AcDbMlineStyle
  2
STANDARD
 70
     0
  3

 62
   256
 51
90.0
 52
90.0
 71
     2
 49
0.5
 62
   256
  6
BYLAYER
 49
-0.5
 62
   256
  6
BYLAYER
  0
ENDSEC
  0
EOF
